<svg xmlns="http://www.w3.org/2000/svg" viewBox="0 0 6602.33 4751.96"><defs><style>.cls-1{fill:#ebf3fa;}.cls-2{opacity:0.8;}.cls-3{fill:#d7e5ff;}.cls-4{fill:#aec3ff;}.cls-5{fill:#a8d29f;}.cls-6{fill:#ffb27d;}.cls-7{fill:#739af0;}.cls-8{fill:#1c3154;}.cls-9{fill:#2a4e96;}.cls-10{fill:#233862;}.cls-11{fill:#6385db;}.cls-12{fill:#ed985f;}.cls-13{fill:#2c3a64;}.cls-14{fill:#f99746;}.cls-15{fill:#ed7d2b;}.cls-16{fill:#7599ea;}.cls-17{fill:#90aff4;}.cls-18,.cls-19{fill:#5888dd;}.cls-19{opacity:0.4;}.cls-20{fill:#607cf4;}.cls-21{fill:#e9f3fe;}.cls-22{fill:#f77d48;}.cls-23{fill:#e6efff;}.cls-24{fill:#113c68;}.cls-25{fill:#15447c;}.cls-26{fill:#fca56b;}.cls-27{fill:#163560;}.cls-28{fill:#1f4d84;}.cls-29{opacity:0.5;}.cls-30{fill:#b3cff9;}.cls-31{fill:#ed975d;}.cls-32{fill:#fff;}.cls-33{fill:#1f447f;}.cls-34{fill:#b5453c;}.cls-35{fill:#e8945b;}</style></defs><title>ServerError</title><g id="Layer_2" data-name="Layer 2"><g id="_лой_1" data-name="‘лой_1"><path class="cls-1" d="M6317.45,4741.45c-416.46,0-6047-12.15-6047-12.82C268.15,4723.17-444.3,3850,452.82,2937c444.51-452.35-408.21-1038.4,0-1541.59,699.23-861.93,1391.09-376.51,1967.46-618.92,101.84-42.79,204-111.66,306.33-217.35a1139,1139,0,0,1,188.25-156.29q15.53-10.37,31.39-20.21a1254.67,1254.67,0,0,1,125.6-68.16q43.53-20.53,88.7-38h0a1450.28,1450.28,0,0,1,147-47.87,1661.62,1661.62,0,0,1,219.27-43q48.9-6.37,98.6-10.06c644-48.41,1368.77,223.91,1742.79,621.93,75.3,80.15,417.71,494.86,147.8,1064.88C5345.63,2222.28,6059.56,2566,6313.25,2977,6958.26,4021.84,6323.3,4727.83,6317.45,4741.45Z"/><g class="cls-2"><path class="cls-3" d="M4860.26,2312.14a824.13,824.13,0,0,1-62.82,134.06,814.14,814.14,0,0,1-228.73,251c-212.21,152.28-493.51,200.58-757.52,104.61-314.05-114.17-515.77-400.49-537.26-713.71a805.48,805.48,0,0,1,1-124.89,824.36,824.36,0,0,1,123.46-367.86c.34-.57.7-1.09,1-1.66a820.88,820.88,0,0,1,466.7-348.54c20-5.73,40.26-10.69,60.68-14.87,143.24-29.49,296.15-20.92,443.72,32.73q29.36,10.67,57.35,23.32a813,813,0,0,1,331.83,274h0a821.77,821.77,0,0,1,130.93,297.09q7.53,34.35,12.15,69.38a812.08,812.08,0,0,1,4.26,170.92A820.63,820.63,0,0,1,4860.26,2312.14Z"/><path class="cls-4" d="M3954.67,1593c-48.37,37.47-35.55,137.72-119.28,81.21s-136.32-87.22-160-37.92,50.47,76.31,30.94,130-59.27,59.4-101.15,15.29-43.13-86.59-111-85.19-96.81-26.5-93.51-77.44a71.56,71.56,0,0,0-2.23-23.63c.34-.57.7-1.09,1-1.66a820.88,820.88,0,0,1,466.7-348.54c20-5.73,40.26-10.69,60.68-14.87,23.66,9.6,49,29.12,62.48,68.25,29.54,86.08,77.44,65.82,36.76,137.93s-24,89.8,20.46,103,95.62,31.85,88.63,67S4003.05,1555.56,3954.67,1593Z"/><path class="cls-4" d="M4860.26,2312.14a824.13,824.13,0,0,1-62.82,134.06,814.14,814.14,0,0,1-228.73,251c-22.77-.71-43.47-8.42-60.92-24-82-73.26,26.67-151.07,83.89-188.93s-49-50.41-102.59-124.2,71.85-173.75-8.74-179.15-178.63-10.62-195-97,68.38-68.56,53.54-141.3,55.29-86.35,130.3-65.6,84.26-34.55,177.23-9.44,49.21,139.55,151.79,168.14,89.71,50,89.71,50a49.46,49.46,0,0,1,19.25,12A820.63,820.63,0,0,1,4860.26,2312.14Z"/><path class="cls-4" d="M4902.87,1926.8c-97.65,10.21-91.05-111.7-174-104.48-83.6,7.29-47.83-52.14-89.21-113.55s-181-28.11-152.6-90.23,106.28-13.51,142.8-58.15,113.74-2.11,113.74-2.11a59.36,59.36,0,0,1,16.12,2s0,0,0,0a821.77,821.77,0,0,1,130.93,297.09Q4898.25,1891.77,4902.87,1926.8Z"/><path class="cls-4" d="M4284,1452s66.31-46.94,4-90.57-69.88-18.92-121.53-44.18-87.87,8.65-64.09,68.72,24.74,159.07,78.08,125.87S4239.53,1440.93,4284,1452Z"/></g><path class="cls-5" d="M456.43,4731H742c15.3-13-10.59-42.45-37.64-44.44-11.75-.88-26.61,1.57-43.58,5.16-3.93-52.19-26.37-286.79-110.93-277.36-95.09,10.55,0,103.31,26.88,158.23,19.91,40.68,40.91,99,50.51,126.54-7.72,1.68-15.71,3.32-23.87,4.82-12.61-38.7-59.5-168.86-119.13-161.27-70,8.87-41.87,61.06,7.75,92,36.41,22.78,81.12,55.16,102.36,70.8-18,2.94-36.78,4.92-55.84,4.47C489.56,4708.8,465.69,4723.21,456.43,4731Z"/><path class="cls-5" d="M5000.53,4731H4735.32c-14.21-12.06,9.83-39.44,35-41.27,10.91-.83,24.71,1.46,40.48,4.79,3.65-48.48,24.49-266.39,103-257.63,88.31,9.8,0,96-25,147-18.5,37.78-38,92-46.92,117.53,7.17,1.55,14.59,3.08,22.17,4.47,11.71-35.94,55.27-156.84,110.66-149.8,65,8.25,38.89,56.73-7.2,85.5-33.82,21.16-75.35,51.23-95.08,65.76,16.72,2.73,34.17,4.57,51.87,4.16C4969.76,4710.38,4991.93,4723.77,5000.53,4731Z"/><path class="cls-6" d="M5189.93,2992.52s6.32-62.78-26.52-60.63-41.52,17.21-37.85,29.28,35.59,52,35.59,52Z"/><path class="cls-7" d="M5701.49,3118.32s-36.34,42.71-114.5,92c-7.4,4.68-15.14,9.39-23.31,14.13a864.67,864.67,0,0,1-107.07,52.68c-4.53,1.87-9.85,3.92-15.82,6.06-46.83,16.92-133,40.9-186.42,43-4.65.19-9.06.19-13.16,0-81.28-3.27-91.19-318.76-91.19-318.76s9-31.57,50.81-23.62c0,0,63.42,178.17,86.15,192.7,20.19,12.91,136.22-163,236.1-175.29C5590.32,2993,5701.49,3118.32,5701.49,3118.32Z"/><path class="cls-8" d="M5483.12,4656.78s6,69.45-8.68,76.67l-187.87-.38s0-21.68,30.17-26.5,83.19-22.49,92.16-61.84S5483.12,4656.78,5483.12,4656.78Z"/><path class="cls-9" d="M5345.19,3816.24c.93,45.42,3.11,92.26,7.38,134.36,20.29,199.75,27.43,441.11,30.34,487.64,5.06,80.78,21,209.82,21,209.82s31.65,30,93.34,15.71c0,0,51.11-185.86,62.54-381.57.17-3.21.35-6.44.51-9.67,1.32-25.87,2.71-55.46,4.13-87.36,9.4-213.68,19.61-531.11,19.61-531.11L5348.3,3598.7S5342.88,3703,5345.19,3816.24Z"/><path class="cls-10" d="M5345.19,3816.24c59.75,103.09,173.64,293,219.26,368.93,9.4-213.68,19.61-531.11,19.61-531.11L5348.3,3598.7S5342.88,3703,5345.19,3816.24Z"/><path class="cls-11" d="M5440.79,3283.18c-46.83,16.92-133,40.9-186.42,43,8.17-1.53,67.63-13.31,89.63-39.86,23.62-28.54,63.39-106.06,95-74.43C5453.92,3226.83,5449.54,3256.26,5440.79,3283.18Z"/><path class="cls-6" d="M5836.94,3782.66s14.63,57.39,12.23,70.14-16.68,55.94-25.59,66.65-9.27-46.57-15.2-55.57-2.71,21.39-7.46,23.87-12.66-23-16.19-32.06,12.66-40.51,14.15-63.08S5836.94,3782.66,5836.94,3782.66Z"/><path class="cls-8" d="M5951.13,4577.85s33.44,30.52,26.92,52.2-36.7,36.14-40.78,62.64-20.39,41-35.07,41h-70s-10.81-18.64,15.29-24.27,35.94-36.76,34.31-65.67,2.45-67.45,2.45-67.45l55.46-12.85Z"/><path class="cls-9" d="M5385.45,3658.9s220.7,472.19,338.14,679.38,154.14,265,154.14,265,67.29-26.5,73.4-44.57c0,0-44.91-400-123.56-497.49-44.44-55.1-96.64-220.44-99.09-278.26s-54-195.83-54-195.83Z"/><path class="cls-7" d="M5344.33,3634.32s71.86,77.34,194,100.7c53.59,10.26,162.37,20.17,189.35-18,6.34-9,6.39-22.22,5-42.93-3.64-53.82-17.17-157.88,44-367a356.22,356.22,0,0,0,11.75-55.89c13.35-107,11.9-187.74-80.92-230.88-139.07-64.65-196.15-11.46-196.15-11.46s-74,34.56-107.77,135.29C5335.92,3345.65,5344.33,3634.32,5344.33,3634.32Z"/><path class="cls-6" d="M5623.94,3002.56c-23.42,16.63-64.6,26.45-103.89,6.81-3-1.51-2.64-22.29-1.88-42.69.75-20,2.64-39.67,2.64-39.67l49.48-32.48,47.22-31C5611.85,2970.08,5634.52,2995,5623.94,3002.56Z"/><path class="cls-12" d="M5609.21,2907.53s-32.11,48.19-91,59.15c.75-20,2.89-42.08,2.89-42.08l49.23-30.07Z"/><path class="cls-6" d="M5476.49,2914.49s119.72,44.68,146.36-29.09,60-117.67-15.28-149.32-100.41-8.81-115.39,13.64S5446,2901,5476.49,2914.49Z"/><path class="cls-13" d="M5697.43,2744.37c1.38-1.06,4.17-1.59,10-.77a23.78,23.78,0,0,0-10.17-5.16c.38-8.25-1.08-23.28-14.2-29.46,0,0,6.63,5.42,5.92,14.13-12.74-19.57-44.62-38.28-140.91-49.52-126.91-14.82-101.53,73.32-87.24,86s60.18-5.37,89.85,3,26.8,53,35.84,61,7.11-3.37,22.18-6.89,11.86,19.66,4.92,33.78,8.18,37.53,8.18,37.53l23.3-16.89c23.29-16.89,58.71-100.94,53.66-121.35C5698.32,2748,5697.89,2746.21,5697.43,2744.37Z"/><path class="cls-11" d="M5732.65,3674.1c-3.64-53.82-17.17-157.88,44-367a356.22,356.22,0,0,0,11.75-55.89h0c-45.41-15-128.16,18.33-128.16,18.33S5640.73,3546,5732.65,3674.1Z"/><path class="cls-7" d="M5732.47,3034.31s55.88,20.32,91.53,168.28c23.55,97.75,66.91,241.44,71.79,286.59s-49.56,309.51-49.56,309.51-7.68,5.6-26.5,1.83c-18-3.6-26.39-15.78-26.39-15.78s-13-176.19-9.66-259.38c1.4-34.57-160-253.14-247.12-281.29C5502.35,3233,5732.47,3034.31,5732.47,3034.31Z"/><path class="cls-4" d="M4950.83,2842.78s161.52-4.59,347.91,29.72l19.47-49.07,21.35-53.76s-187.12-80.55-299.6-192.73Z"/><path class="cls-14" d="M5042.52,2574.33l-92.73,273.74h0a24.68,24.68,0,0,1-16.25-31.91l81.62-230a20.35,20.35,0,0,1,27.36-11.83Z"/><path class="cls-14" d="M5131.05,3046.53h0a33.53,33.53,0,0,0,39.33-26.23l31.93-159.76a33.54,33.54,0,0,0-26.23-39.34h0a33.54,33.54,0,0,0-39.34,26.24l-31.92,159.75A33.53,33.53,0,0,0,5131.05,3046.53Z"/><path class="cls-7" d="M4950.83,2842.78s161.52-4.59,347.91,29.72l19.47-49.07C5143.08,2787.67,4950.83,2842.78,4950.83,2842.78Z"/><path class="cls-14" d="M5247.21,2862.64l50.46,8.88c-.77,0,46.88,9.27,62.5-33a34.09,34.09,0,0,0,3-9.11c12.14-52.65-16.77-62.34-16.77-62.34l-64.95-25.31-20.64,73v.26Z"/><path class="cls-15" d="M5247.21,2862.64l50.46,8.88c-.77,0,46.88,9.27,62.5-33-28.55-20.77-99.36-23.73-99.36-23.73v.26Z"/><path class="cls-6" d="M5135.35,2891.83s24.69,9.83,20.17,20.71-35.93,25.82-40.88,17.24S5119.82,2882.65,5135.35,2891.83Z"/><path class="cls-6" d="M5190.4,2982.63s4.67-25.26,5-36.86,1.66-21.08-1.07-21.41-4.72,1.81-5.83,5.54-5.39,26.87-5.39,26.87l2.15,22.34Z"/><path class="cls-16" d="M2748.4,2966.15,2608.52,4629.33s-14.66,100.82,60.34,101c123.3.3,613.72,0,613.72,0s-92.81-21-91.68-68.21c1.32-55.65,163.49-1711.71,163.49-1711.71Z"/><path class="cls-17" d="M3328.74,4700.82c-24.25.07-499,.88-619.11-.66-52.33-.65-61.51-46.53-61.94-76.22a148.18,148.18,0,0,1,1.59-24.76l3.64-43.23,9.27-110.18,8.19-97.34,10.52-125.09,8.86-105.57L2789.15,2936l606-15.72s-68.29,693.05-116.6,1197.54c-5.4,56.2-10.53,110.1-15.27,160.41q-2.31,24.09-4.46,47.06c-4.48,47.73-8.57,91.56-12.14,130.26-1.87,20.4-3.61,39.35-5.17,56.71-6.17,68-9.78,111.48-9.83,119.74a70.66,70.66,0,0,0,1.18,13.47C3242.8,4698.42,3319.64,4700.82,3328.74,4700.82Z"/><polygon class="cls-4" points="1276.72 2061.1 1617.44 3429.7 1664.09 3617.14 1822.78 4254.59 4770.99 4254.59 4186.09 2061.1 1276.72 2061.1"/><polygon class="cls-17" points="1276.71 2061.1 1229.49 2076.84 1760 4302.2 1822.78 4254.6 1276.71 2061.1"/><polygon class="cls-16" points="1760 4302.2 4690.07 4302.2 4770.98 4254.6 1822.78 4254.6 1760 4302.2"/><rect class="cls-4" x="2788.96" y="4700.82" width="634.4" height="30.15" transform="translate(6212.31 9431.79) rotate(180)"/><polygon class="cls-18" points="3262.09 4302.19 3258.81 4325.24 2662.19 4445.77 2670.38 4348.43 2674.28 4302.19 3262.09 4302.19"/><path class="cls-19" d="M3328.74,4700.82c-24.25.07-499,.88-619.11-.66-52.33-.65-61.51-46.53-61.94-76.22l593.81-111.73c-6.17,68-9.78,111.48-9.83,119.74a70.66,70.66,0,0,0,1.18,13.47C3242.8,4698.42,3319.64,4700.82,3328.74,4700.82Z"/><polygon class="cls-4" points="1276.71 2061.1 4186.08 2061.1 4658.13 3823.97 1715.58 3823.97 1276.71 2061.1"/><polygon class="cls-7" points="4520.91 3747.58 1796.85 3747.58 1699.51 3359.8 1661.85 3209.75 1646.5 3148.56 1546.45 2750.05 1541.26 2729.31 1488.38 2518.66 1464.72 2424.41 1444.54 2344.01 1397.22 2155.53 4082.01 2155.53 4133.97 2344.01 4156.13 2424.41 4182.11 2518.66 4353.28 3139.59 4353.28 3139.62 4367.8 3192.22 4374.54 3216.65 4492.73 3645.33 4520.91 3747.58"/><polygon class="cls-20" points="4133.98 2344.02 1444.54 2344.02 1397.23 2155.53 4082.02 2155.53 4133.98 2344.02"/><path class="cls-21" d="M1508.3,2240.71c-3.25-13,4.67-23.56,17.69-23.56s26.19,10.55,29.43,23.56-4.67,23.56-17.68,23.56S1511.54,2253.72,1508.3,2240.71Z"/><path class="cls-21" d="M1586.59,2240.71c-3.25-13,4.67-23.56,17.69-23.56s26.19,10.55,29.43,23.56-4.67,23.56-17.68,23.56S1589.83,2253.72,1586.59,2240.71Z"/><path class="cls-21" d="M1670.89,2240.71c-3.24-13,4.68-23.56,17.69-23.56s26.19,10.55,29.44,23.56-4.68,23.56-17.69,23.56S1674.14,2253.72,1670.89,2240.71Z"/><path class="cls-22" d="M3548,1059.74c110.1-129.27,279.88-388.94,394.19-521.92,23.52-27.37,4-69.61-32.12-69.61H3702L3898.21,24.57c8.38-18.94-17.43-34-29.83-17.44L3394,642.06c-13.84,18.52,1.29,44.59,24.24,41.77l235.48-29-140.1,384.84C3505.9,1060.86,3533.33,1076.91,3548,1059.74Z"/><path class="cls-4" d="M2568.66,1847.12c24.77-127,40.41-363,66.58-494.1,5.39-27-23.4-47.72-47.37-34.22l-138.15,77.8-35.63-368c-1.53-15.71-24.31-16.08-26.34-.43l-77.59,599.16c-2.26,17.48,17.54,29.13,31.73,18.67l145.55-107.34,50.9,308C2541.14,1863.58,2565.37,1864,2568.66,1847.12Z"/><path class="cls-23" d="M4639.91,3785.1l-2367,199.42c-179.73,15.14-309.79-168.08-236.21-332.75L3039.52,1407.48c76.07-170.26,309.92-190,413.42-34.83L4817.11,3417.51C4917.21,3567.55,4819.63,3770,4639.91,3785.1Z"/><path class="cls-22" d="M4647.45,3874.63l-2367,199.42c-116.41,9.81-226.28-41.21-293.9-136.47s-79.54-215.81-31.88-322.47l1002.8-2244.29c49.28-110.28,150.56-182.17,270.92-192.31s232.24,43.79,299.28,144.27L4891.85,3367.65c64.84,97.18,73.26,218,22.53,323.25S4763.86,3864.82,4647.45,3874.63Zm-1404-2517.06c-54.18,4.57-99.76,36.93-121.94,86.56L2118.74,3688.42A147.09,147.09,0,0,0,2265.38,3895l2367-199.43a147.07,147.07,0,0,0,110-228.18L3378.19,1422.51C3348,1377.28,3297.66,1353,3243.49,1357.57Z"/><path class="cls-22" d="M3188,3441.74q-3.86-45.75,9.21-86a198.47,198.47,0,0,1,40.5-71.14q27.45-30.91,68-50.42t93.13-23.9q52.55-4.43,96.52,7.93t76.2,38.27a198.74,198.74,0,0,1,51.83,63.35q19.59,37.47,23.46,83.21t-9.27,85.27a200,200,0,0,1-40.55,70.45q-27.45,30.94-68.72,50.47t-93.84,24q-52.58,4.43-95.81-8t-75.48-38.33a199.69,199.69,0,0,1-51.78-62.66Q3191.87,3487.51,3188,3441.74ZM3554,3013.54,3213,3042.26,3066.58,1881.37l437.55-36.86Z"/><path class="cls-6" d="M1718.22,3084.72s7.42-16.69,12.23-24.59,25.34-31.07,28.83-25.82,17.48,40.53,10,50.41.48,27.08-36.46,37.48Z"/><path class="cls-15" d="M1307.7,2979.33s189.1,157.85,262.84,143.23c57.65-11.42,148.81-40.34,148.81-40.34s24.06,22.89,17.25,50.31c0,0-116.13,109.28-198.87,110-129.33,1.11-190.32-64.09-190.32-64.09Z"/><path class="cls-24" d="M976.05,4644.32s5.49,88.55,22.63,89.82c2.28.17,86.89.17,86.89.17l108-.62s-.71-26-32.28-31.53-84.43-27.7-103.55-69.43C1037.64,4588.83,976.05,4644.32,976.05,4644.32Z"/><path class="cls-9" d="M969.83,4650.47s32.83,11,58.47,11c28.6,0,54.59-7.79,54.59-7.79s6.18-59.78,40.2-191.51c17.84-69,43.31-157.82,79.54-268.13,100.2-304.86,130.67-483.21,133.45-500.1.14-.89.2-1.33.2-1.33l-.32-.15-308-135.25s38.07,420.18-10.51,581.46c-6.8,22.54-12.63,48.81-17.63,77.26C969.12,4391.1,969.83,4650.47,969.83,4650.47Z"/><path class="cls-10" d="M1123.09,4462.15c17.84-69,43.31-157.82,79.54-268.13,100.2-304.86,130.67-483.21,133.45-500.1,0-.5-.06-1-.12-1.48l-308-135.25s38.07,420.18-10.51,581.46C1010.62,4161.19,1123.09,4462.15,1123.09,4462.15Z"/><path class="cls-25" d="M1216.64,4644.32s5.49,88.55,22.62,89.82c2.28.17,86.9.17,86.9.17l108-.62s-.71-26-32.28-31.53-84.43-27.7-103.55-69.43C1278.23,4588.83,1216.64,4644.32,1216.64,4644.32Z"/><path class="cls-9" d="M1391.28,3567.1s4,272.27-43.1,606.58S1317,4649.9,1317,4649.9s-32.37,10.49-45.43,11.55c-33.28,2.71-67.4-7.8-67.4-7.8s-67.43-334.43-48.1-501.76-92.33-574.18-92.33-574.18Z"/><path class="cls-6" d="M1172.87,2929.93l60.12,39.43,54.77-15.49c10-14.28,12.66-41.82,12.81-65.66a407.27,407.27,0,0,0-2.15-43.73l-81.12-35.81L1187,2795.33c.09.48,2.35,24.86,2.68,28.42C1195.36,2887,1172.87,2929.93,1172.87,2929.93Z"/><path class="cls-14" d="M1392.66,3642.79c-74.83,72.26-358.08,60.11-375.53-19.51s19-677.73,146.88-715.3c26.53-7.8,168.36,38,168.36,38s22.25,58.22,36.85,132.34c2.83,14.43,11.1,167.28,17.28,310.27,2.89,66.88,5.33,131.62,6.58,179C1394.22,3612,1394.27,3641.21,1392.66,3642.79Z"/><path class="cls-26" d="M1195.78,2824.87c16.45,27.82,74.2,52.18,104.79,63.34a407.27,407.27,0,0,0-2.15-43.73l-81.12-35.81C1199.37,2808.44,1188.44,2812.44,1195.78,2824.87Z"/><path class="cls-6" d="M1329,2839.54s-130.71,40.77-154.85-41-57.26-131.61,25.17-161.1,107.93-3.09,122.63,22.25S1362.4,2826.82,1329,2839.54Z"/><path class="cls-27" d="M1316.84,2651.79s-8.34,95.18-28,91.05-41.35-13-38.47,15.72-19.14,77.87-47.52,77.75c-60.87-.25-127-156.45-110.35-186.07C1140.57,2564.78,1386.33,2547.53,1316.84,2651.79Z"/><path class="cls-15" d="M1297.61,2910c-1.69-.71-97.3-43.6-108.49-39.91S1164,2908,1164,2908L1332.37,2946S1319.12,2919.1,1297.61,2910Z"/><path class="cls-28" d="M1892.9,3373.26l-536,504.65c-10.51,9.89-23.76,13-29.44,7l-18.1-19.22c-5.68-6-1.74-19.07,8.77-29l536-504.65c10.51-9.89,23.76-13,29.45-7l18.09,19.22C1907.34,3350.33,1903.4,3363.36,1892.9,3373.26Z"/><path class="cls-7" d="M1592.1,3656.46l-235.2,221.45c-10.51,9.89-23.76,13-29.44,7l-18.1-19.22c-5.68-6-1.74-19.07,8.77-29l235.2-221.45Z"/><path class="cls-28" d="M1769.7,3182.72a417.88,417.88,0,0,0,114,183.39c169,159,434.88,150.85,593.86-18.11,156.89-166.78,151-427.85-11.54-587.47-2.15-2.15-4.36-4.27-6.6-6.36-169-159-434.82-150.91-593.8,18.08C1758.69,2885.91,1727.33,3043.41,1769.7,3182.72ZM1889.78,2795c92.51-98.35,224.34-137.54,348.13-116.1a385,385,0,0,1,198.82,99.44c155.65,146.43,163.1,391.3,16.66,546.95a385.28,385.28,0,0,1-192.33,111.36c-122.29,28.94-256.27-2.12-354.62-94.67C1750.79,3195.53,1743.32,2950.66,1889.78,2795Z"/><g class="cls-29"><path class="cls-30" d="M2453.4,3325.27a385.34,385.34,0,0,1-192.35,111.37c-122.27,28.93-256.26-2.14-354.62-94.68-155.64-146.43-163.11-391.31-16.66-547,92.52-98.34,224.35-137.54,348.14-116.1a385,385,0,0,1,198.81,99.42C2592.37,2924.74,2599.84,3169.62,2453.4,3325.27Z"/></g><path class="cls-15" d="M1393.08,3567.65c-295.34-210.46-270.78-491.28-270.78-491.28,108,60.88,215.06,195.49,264.2,312.26C1389.39,3455.51,1391.83,3520.25,1393.08,3567.65Z"/><path class="cls-6" d="M1684.57,3471.81c20.83-4.81,34.82-20.56,37.72-23.31,0,0,8.89.61-1.45,19.56-.87,1.58-2.79,5.65-4.24,8.53a1.84,1.84,0,0,0,1.55,2.65c12,.91,24.1-3.85,47.25,1,3.2.67,4.13,8.32,4,11.58-.21,5.52.19,11.71-6.22,20.17-3.73,4.92-14.14,10.22-37.32,19.55-8.83,3.55-34.08.87-57.74-7.26l-18.91-8.75,5.86-35.14,4.75,1C1667.37,3483,1676.71,3473.73,1684.57,3471.81Z"/><path class="cls-14" d="M1214,2946s-265.37,50.53,78.07,434.82c54.93,61.46,351.69,141.48,351.69,141.48s30.1-25.6,14.93-46.34c0,0-204.33-148.38-249.29-172-20.22-10.61-78.49-236.82-111.46-291.3S1214,2946,1214,2946Z"/><path class="cls-6" d="M1725.41,3089.38s8.69-16.58,10.38-25.33,12.62-34.28,17.13-38.77c1.8-1.8,7.74.53,8.44,8.26.31,3.37-1.34,9.49-4.26,16.79-4.75,11.87-4,28-5.62,33.35C1747.37,3097.05,1725.41,3089.38,1725.41,3089.38Z"/><path class="cls-6" d="M1831,2431c-4.51,5.17-5.09,11-2.86,17.12a.2.2,0,0,0,0,.09c4.12,11.41,17.76,24.16,33.6,36.89,2,1.63,3.83,3.12,5.4,4.5.41.36.82.72,1.21,1.09l.93.83c14.77,13.63,9.21,16.75,35.75,44.41,30.26,31.5,51.11,32.08,57,29.21,5-2.44-5.17-19.15-16.46-37.93-.55-.91-1.08-1.83-1.64-2.74-1.51-2.5-3-5-4.49-7.54-13.23-22.61-9.83-33.2-6.68-66.84,2.56-27.32,42.57-152.66,42.57-152.66l-58-10s-17.5,99.81-36.76,115.17c-10.3,8.19-21.82,8.29-31.71,14.36-.7.42-1.39.86-2.06,1.3C1841.28,2422,1835.55,2425.79,1831,2431Z"/><path class="cls-10" d="M1831,2431c-4.51,5.17-5.09,11-2.86,17.12a.2.2,0,0,0,0,.09c5,11.4,18.35,24.08,33.66,36.77,2,1.67,3.77,3.19,5.34,4.62.41.36.82.72,1.21,1.09l.93.83c14.77,13.63,9.21,16.75,35.75,44.41,30.26,31.5,51.11,32.08,57,29.21,5-2.44-5.17-19.15-16.46-37.93-5.89-2.16-33.26-13.29-54-39.79-17.56-22.42-29.47-51-41.42-68.53l-3.41-.64C1841.28,2422,1835.55,2425.79,1831,2431Z"/><path class="cls-6" d="M2298.82,2394.9c3.57,17.91,29.1,14.93,57.62,8s21.74,1.32,62.33-3.15,52.89-19.61,54.13-25.65c1.11-5.35-19-7.25-40.46-9.73-2.7-.31-5.42-.64-8.14-1-24.28-3.05-42.06-18.73-64.12-31.61-20.89-12.2-52-61.88-52-61.88l-55.67,4.39s29.19,44.38,40.49,63.67c6.64,11.34,6.28,26.35,5.45,37.93C2298,2382.16,2297.55,2388.59,2298.82,2394.9Z"/><path class="cls-10" d="M2356.44,2402.87c28.52-7,21.74,1.32,62.33-3.15s52.89-19.61,54.13-25.65c1.11-5.35-19-7.25-40.46-9.73l-.2.41s-24.34,17.25-58.13,18.05c-27.53.66-56.7-7.24-75.71-6.94-.44,6.3-.85,12.73.42,19C2302.39,2412.81,2327.92,2409.83,2356.44,2402.87Z"/><path class="cls-10" d="M2085.63,2038.91l-52.08,140-68,182.8s-18.43,1.77-36.08-3.31c-16.26-4.71-34.9-17-34.9-17s18.93-196.29,54.16-309c9-28.92,19.14-52.32,30.3-65.48C2033.6,1902.51,2085.63,2038.91,2085.63,2038.91Z"/><path class="cls-9" d="M2032.8,1816.53c-29.61-9.56-106.9-.18-190.72,15a56.86,56.86,0,0,1-58.7-26.53h0l-211-16.55s-69.66,154.35-31.58,252.73c5.59,14.46,17.88,23.48,36.85,23.8,0,0,0,0,0,0s127.48.22,168.25.23c104.91,0,222.06-72,237.21-75.06,24.8-5,34.7,44.64,59.48,96.73s233,230.71,233,230.71,32,.33,45.24-4.63c14.23-5.33,19.43-12.25,19.43-12.25S2109.67,1841.36,2032.8,1816.53Z"/><path class="cls-10" d="M1761.18,1185.47a74.9,74.9,0,0,0-40.3-10.5,112,112,0,0,1-19.45-1.18c-80.51-11.84-129,105.09-131.89,140.43-5.24,64.87-39.56,74.75-87.88,115.37-96.89,81.43-68.52,176.11-15.57,211.3,31.77,21.11,87.79,0,87.79,0,.8.55,153.22-85.14,228.36-126.48C1894.86,1498.47,1806.41,1212.42,1761.18,1185.47Z"/><path class="cls-6" d="M1719.28,1479.21c.34.21-37,12.93-61.89,1.88-23.46-10.37-41.22-49-40.87-49,10.68-.48,22.39-9.81,31.44-71l4.54,1.63,76.39,27.52s-5.54,24.51-9.13,47.85C1716.74,1457.66,1715.11,1476.44,1719.28,1479.21Z"/><path class="cls-31" d="M1728.89,1390.22s-3.05,13.22-7.51,37.93c-43.88-7.91-62.71-41.72-68.88-65.45Z"/><path class="cls-6" d="M1740.26,1414.55s-104.53-14.06-94.76-79,2.84-110.53,70-104.29,76.37,33,78.38,55.44S1767.7,1416.54,1740.26,1414.55Z"/><path class="cls-10" d="M1790.07,1251.07s-66.93,57.64-112.45,62.27-62.74-10-62.74-10a177.74,177.74,0,0,0,43-58.2,32,32,0,0,1,26.39-18.87C1716.76,1223.5,1778.37,1222.24,1790.07,1251.07Z"/><path class="cls-10" d="M1748.25,1245.89s22.37,21.65,29.42,37.71c6.8,15.49,8.82,52.55,3.4,67.26,0,0,34.9-67.81,15.17-100.77C1775.31,1215.15,1748.25,1245.89,1748.25,1245.89Z"/><path class="cls-14" d="M1807.25,1633.23c-3.23,211.59-.92,167.38-24.07,187.45-5.58,4.83-21.26,7.71-41.9,9.06-64.89,4.29-178.94-6.44-183.27-18.43-15-41.5-4.38-54.38-16.85-117.91-1.3-6.75-2.91-14.07-4.79-22-10.4-43.63-20.53-58.48,16.43-128.55,33.52-63.48,68.33-115,71.46-113.14,88.35,52.49,95.5,8.4,95.5,8.4S1808.84,1530,1807.25,1633.23Z"/><path class="cls-9" d="M2033.55,2178.91l-68,182.8s-18.43,1.77-36.08-3.31c-16.26-4.71-34.9-17-34.9-17s18.93-196.29,54.16-309Z"/><path class="cls-14" d="M1719.76,1438.07s90.92,15.45,101.59,54.6,45.73,276.8,45.73,276.8-25.65,25-47,3.67S1753,1550.78,1753,1550.78Z"/><path class="cls-15" d="M1741.28,1829.74c-64.89,4.29-178.94-6.44-183.27-18.43-15-41.5-4.38-54.38-16.85-117.91l31.33-88.11s-5.21,98.13,23.72,124,118.47,49.86,132.53,71.44C1735.52,1811,1740,1821.41,1741.28,1829.74Z"/><path class="cls-6" d="M1667,1788.44s64-14.23,74.35-8.54,35.56,26.38,38.72,33.58-23-5.47-31.5-7.76c-5.51-1.48-20,3.56-27.19,6-30.22,10.06-48.73,4.87-48.73,4.87Z"/><path class="cls-14" d="M1624.21,1429.64s-86,5.26-115.72,46.75c-41.91,58.4-125.08,307.34-77.47,340.56,53.61,37.41,244.06,9.86,244.06,9.86s6.35-29.62-2.47-44-152.09-37.53-158.7-44.14,82.71-128.93,82.72-148.77S1624.21,1429.64,1624.21,1429.64Z"/><path class="cls-6" d="M1744.39,1797.72s13.41,17.3,17.8,19.37,7.24,1.55,7.24,1.55l-9-16.27Z"/><path class="cls-6" d="M1741.3,1779.9l39,18.95s-1.66,2.71-6.47,2.49-16.91-4.65-16.91-4.65Z"/><polygon class="cls-10" points="2074.27 1824.53 1666.94 1824.39 1666.94 1833.38 2070.65 1833.52 2074.27 1824.53"/><polygon class="cls-10" points="1762.19 1833.41 2070.65 1833.52 2163.52 1602.81 1855.53 1602.7 1762.19 1833.41"/><path class="cls-32" d="M1992.82,1718.12c2.33-8.11-2.36-14.69-10.47-14.69s-16.57,6.57-18.9,14.68,2.36,14.69,10.47,14.69S1990.49,1726.23,1992.82,1718.12Z"/><path class="cls-27" d="M4080.41,2703.56c-41.56-13.8-70.32,3.62-70.32,3.62-119.65,4.91-124.09,127.55-110,173.19,19.72,64.1-50.08,114.64,27.33,140.58,89.82,30.1,165.19-5.61,160,9.9C4371.47,3053.23,4174.92,2734.94,4080.41,2703.56Z"/><path class="cls-14" d="M3956.31,3300a313,313,0,0,1-32,48.38c-24.85,31.13-155.3-42.76-144.06-48.38s76.79-194.46,92.39-218.19,68.81-36.06,68.81-36.06Z"/><path class="cls-33" d="M4396.53,4573.71s36,32.86,29,56.21-39.52,38.91-43.91,67.44-22,44.1-37.76,44.1h-75.36s-11.63-20.08,16.47-26.13,38.69-39.58,36.93-70.71,2.64-72.64,2.64-72.64l59.71-13.83Z"/><path class="cls-8" d="M4091.79,4587.66s12.95,139.2-2.85,147l-202.3-.41s0-23.35,32.49-28.54,89.58-24.21,99.24-66.58S4091.79,4587.66,4091.79,4587.66Z"/><path class="cls-14" d="M4247.4,3206.14a804.24,804.24,0,0,1,0,93.5c-2,33.81-36.2,79.09-41,90.29-12.18,28.09-25.9,32.67-25.9,32.67l-106.22,26-37.34,9.14-117.77-35.17s-53.64-149.72-32.11-234,54.45-142.81,54.45-142.81,80-18,221.23-8Z"/><path class="cls-15" d="M4257.52,3300.83c-2,33.8-46.32,77.9-51.17,89.1-12.18,28.09-25.9,32.67-25.9,32.67l-106.22,26-19.17-55s155.19-40.76,130.23-184.4Z"/><path class="cls-10" d="M3926.61,3445.32s-58.32,181.54-62.07,243.34,111.49,878,116.12,906.5c4.37,26.84,37.71,43.95,37.71,43.95s15.33,9.05,37.21,2.87c30.36-8.57,40-18.84,40-18.84s45.4-582.11,17.31-790.05-28.43-387.77-28.43-387.77Z"/><path class="cls-9" d="M4173.71,3439.91s89,119.37,97.26,200.06,13,364.12,30.68,442.78,82.58,230.05,82.58,475.4c0,0-6.74,14.06-27.58,21.55a226.35,226.35,0,0,1-24.26,6.71,38.13,38.13,0,0,1-42.65-20.25c-43.89-88.37-183.7-373.38-190.87-432.54-5.07-41.87-49.21-319-145.51-481.58-23.11-39,14.19-194.27,14.19-194.27Z"/><path class="cls-10" d="M3917.29,3417.3s23.42,18.52,69.93,19.46c55.55,1.11,193.22-14.17,193.22-14.17s6.12,17.09,5.87,35.14c0,0-168.14,42.41-265.56,6.19C3920.75,3463.92,3908.19,3440.28,3917.29,3417.3Z"/><path class="cls-32" d="M3973.89,3484.63c-14,0-25.35-12.87-25.35-28.69s11.37-28.69,25.35-28.69,25.35,12.87,25.35,28.69S3987.87,3484.63,3973.89,3484.63Zm0-49c-9.35,0-16.95,9.1-16.95,20.29s7.6,20.29,16.95,20.29,17-9.1,17-20.29S3983.23,3435.65,3973.89,3435.65Z"/><polygon class="cls-34" points="4095.36 3536.82 3842.65 3539.19 3718.3 3246.95 3971.01 3244.59 4095.36 3536.82"/><path class="cls-6" d="M4062.31,3404.76,4043.78,3382s-12.53-11.18-21.63-13.08-28.3-13-30.17-9.86,14.76,25.39,14.76,25.39l.85.12c-19.08,14.35-67.25,1.68-73.2,7.54-7.2,7.09,9.92,22.43,19.11,31s35.46,23,55.95,16.6c15-4.66,38.54-9.41,38.54-9.41Z"/><path class="cls-6" d="M3737.3,3298.36s15.89-18.05,26-9.39-2.65,51.26-12.28,46.92S3731.77,3303.65,3737.3,3298.36Z"/><path class="cls-14" d="M4162.69,3037.81s72.34,8,124.26,102.3c40.94,74.38,110.93,211.51,84.52,250.25-11.6,17-122.73,77.51-337.08,42.93,0,0,3.37-27.08,20.67-39.63,0,0,180.38-57.91,180.08-69.43-.59-21.8-24.38-40.63-125.14-141.42C4082.6,3155.4,4162.69,3037.81,4162.69,3037.81Z"/><path class="cls-6" d="M4107,3041.63c2.48-3.34-.72-14-4.69-33.76-3.6-17.93-9.7-45.66-9.57-76.85l-5.34.89L3997.76,2947s2,24,2.1,46.55c0,.19,0,.38,0,.57.11,19.61-5.3,49.25,1.32,53.12C4035.16,3067.15,4097.46,3054.46,4107,3041.63Z"/><path class="cls-35" d="M3997.76,2947s1.79,33.8,1.85,56.38c50.17-1.2,76.95-49.92,87.81-71.47Z"/><path class="cls-6" d="M3992.35,2987.31s117.54-16.74,106-89.78-4.16-124.38-79.7-116.78-85.67,37.77-87.74,63.08S3961.48,2989.78,3992.35,2987.31Z"/><path class="cls-27" d="M3965,2787.47s45.75,80.55,97,85.37,70.54-11.78,70.54-11.78-42.57-24-58.75-75.14C4073.78,2785.92,3982.68,2742.83,3965,2787.47Z"/><path class="cls-27" d="M3974,2793.15s-22.39,12.69-29.42,31.61c-6.87,18.5-11.45,42.29-5.16,69.57,0,0-33.46-54.38-11.53-91.65C3951.17,2763.16,3974,2793.15,3974,2793.15Z"/><rect class="cls-10" x="40.06" y="4730.97" width="6531.71" height="20.99" rx="2.9"/></g></g></svg>