<svg xmlns="http://www.w3.org/2000/svg" viewBox="0 0 5368.46 3433.49"><defs><style>.cls-1{fill:#ebf3fa;}.cls-2,.cls-7{fill:#aec3ff;}.cls-2{opacity:0.3;}.cls-3{fill:#2e3552;}.cls-4,.cls-5{fill:#cde0fb;}.cls-5{opacity:0.5;}.cls-6{fill:#f78248;}.cls-8{fill:#94b0ed;}.cls-9{fill:#24406d;}.cls-10{fill:#ff9e55;}.cls-11{fill:#ed7d2b;}.cls-12{fill:#ffb27d;}.cls-13{fill:#ed975d;}.cls-14{fill:#233862;}.cls-15{fill:#163560;}.cls-16{fill:#1d3356;}.cls-17{fill:#f2ccaa;}.cls-18{fill:#2b478b;}.cls-19{fill:#fff;}.cls-20{fill:#e8945b;}.cls-21{fill:#ffe5d4;}</style></defs><title>Asset 1</title><g id="Layer_2" data-name="Layer 2"><g id="_лой_1" data-name="‘лой_1"><path class="cls-1" d="M443.9,3427.33s-651.54-632.39-237-1376.41,971.21-369.85,944.27-1235.82S2431.46-125.27,2847.58,125.83s413.61,553.51,1272.63,453.45,1023.12,734,799.64,1159.13c-317.09,603.14,880,503.66,125.72,1688.92Z"/><path class="cls-2" d="M3305.06,1939.27S3443.5,1352.5,3910.53,1288c0,0,90.87-11.16,121.12,88.9s-150.41,100.77-262.08,141S3397.54,1728.78,3305.06,1939.27Z"/><path class="cls-2" d="M3294.45,1829.46s-48.55-486,292.26-658.53c0,0,66.68-32.49,116.23,36.19S3614.26,1324,3539.3,1384.23,3309.84,1643.82,3294.45,1829.46Z"/><rect class="cls-3" y="3418.75" width="5368.46" height="14.74" rx="2.99"/><path class="cls-4" d="M774.63,2986c-72.11-164.3,189.44-305.46,189.44-305.46s344.64,111.55,394.12,80.95-276-152.9-276-152.9C1162.47,2530,1470.44,2458,1470.44,2458s207.74,286.68,248.17,244.85-196.89-244.46-196.89-244.46c104.66-42.6,262.55-7.63,262.55-7.63,227.34,80.95,111.66,368.7,111.66,368.7s74.13,97.8,221.4,159.85h0s29.61,9.51,70.85,33l-23,18.51c-6.85-4.65-13.71-8.94-20.61-12.81a.19.19,0,0,0-.13-.07l-.3-.16c-4.43-2.29-10.76-5.52-18.54-9.4l0,0h0c-18.09-8.09-31-14.43-39.92-19.34a.18.18,0,0,1-.07-.05c-55.79-26.2-131.38-58-161.09-53.51,0,0-.33-5.63-3.57-14.51,1.14,4.63,2.33,9.45,3.57,14.51,28.56,116-156.81,288.45-284.5,354.23s-104.81-3.6-86.21-101.29,152.88-184,173.57-233.13-48.54-25.76-117.07,38.7-46.22,166.94-155.18,273.23-377.66-43.26-377.66-43.26c101.85-40.34,211.75-203,194.74-235.61s-231.1,144.45-271.61,163.18S846.73,3150.32,774.63,2986Z"/><path class="cls-4" d="M4067.49,3183.56c105.18-124.11-85.56-314.49-85.56-314.49s-328.38,7.73-363.46-31.67S3897.93,2776,3897.93,2776c-49.45-89.08-298.45-231.38-298.45-231.38s-254.74,195.35-279,148.54,234.38-161.47,234.38-161.47c-79.93-64.12-226.18-74.6-226.18-74.6-218.53,11.5-192.48,291.51-192.48,291.51s-89.74,65.8-233.78,81.6h0s-28.19.6-70.11,10.34l15.18,22c7.15-2.27,14.23-4.22,21.23-5.8a.14.14,0,0,1,.12,0l.31-.07c4.44-.83,10.78-2,18.55-3.36h0s0,0,0,0c17.82-2.35,30.69-4.51,39.7-6.47l.08,0c55.26-8.32,129.18-16.4,153.83-4.81a52.35,52.35,0,0,1,6.86-11.68c-2.18,3.73-4.47,7.61-6.86,11.68-54.83,93.4,61.61,291.26,155.55,381.49s92,24,101.14-65.71-85.22-199.51-90.49-247.53,48.85-9.82,91.72,63.94-3,157,64.13,277.61,339.39,60.16,339.39,60.16c-78.07-61.42-131.47-231.21-108.24-255.16s163.44,185.35,193.79,212.11S3962.3,3307.67,4067.49,3183.56Z"/><path class="cls-5" d="M1450.64,779.42C1559.06,597.5,1874,752,1874,752s129.11,407.62,192.43,434.19-42.34-370.06-42.34-370.06C2154.68,839.41,2435,1085.94,2435,1085.94s-133,396.15-65.09,406.32,99.87-356.78,99.87-356.78c112.7,71.34,187.34,247,187.34,247,78.1,273.93-277.69,360.07-277.69,360.07s-43.13,138.29-1.78,322.33h0s11.17,35,16.88,90.7l-33.54-9.39c-.23-9.76-.81-19.3-1.82-28.58a.2.2,0,0,0,0-.17c0-.14,0-.27,0-.41-.84-5.82-2.08-14.12-3.68-24.26v0s0,0,0-.05c-4.63-22.93-7.4-39.69-8.79-51.61a.4.4,0,0,1,0-.11c-13.08-71.57-34.34-166-59-191.46,0,0,5.17-4.18,11.49-13.38l-11.49,13.38c-91.85,107-384.66,47.1-535.41-30.48s-68.41-103.17,38.21-152.28,281.65,20.7,343,6.92-8.54-64.3-117.46-85.94-192.08,70-368.91,38.24-217.37-392.52-217.37-392.52c108.6,70.2,340.22,64.28,359.9,25.56s-297.24-123-343-149.08S1342.23,961.34,1450.64,779.42Z"/><path class="cls-6" d="M2661.17,1112.38a83.17,83.17,0,0,1,6.3-32.6,76.27,76.27,0,0,1,17.79-25.92,81.79,81.79,0,0,1,27.65-17.1q16.14-6.13,36.4-6.14t36.68,6.14a81.28,81.28,0,0,1,27.92,17.1,76.13,76.13,0,0,1,17.79,25.92,83.17,83.17,0,0,1,6.3,32.6,81.15,81.15,0,0,1-6.3,32.32,76.52,76.52,0,0,1-17.79,25.65,80.82,80.82,0,0,1-27.92,17.1,104.18,104.18,0,0,1-36.68,6.15q-20.25,0-36.4-6.15a81.32,81.32,0,0,1-27.65-17.1,76.66,76.66,0,0,1-17.79-25.65A81.15,81.15,0,0,1,2661.17,1112.38ZM2815,960.32H2683.62L2665,511.38h168.62Z"/><path class="cls-7" d="M2264.45,673.51a63.74,63.74,0,0,1,4.84-25,58.43,58.43,0,0,1,13.65-19.89,62.7,62.7,0,0,1,21.22-13.12,78.19,78.19,0,0,1,27.94-4.72,79.92,79.92,0,0,1,28.15,4.72,62.31,62.31,0,0,1,21.43,13.12,58.74,58.74,0,0,1,13.66,19.89,64.09,64.09,0,0,1,4.83,25,62.52,62.52,0,0,1-4.83,24.81A59,59,0,0,1,2381.68,718a62,62,0,0,1-21.43,13.12,79.92,79.92,0,0,1-28.15,4.72,78.19,78.19,0,0,1-27.94-4.72A62.39,62.39,0,0,1,2282.94,718a58.71,58.71,0,0,1-13.65-19.69A62.18,62.18,0,0,1,2264.45,673.51Zm118.07-116.7H2281.68L2267.4,212.25h129.41Z"/><path class="cls-7" d="M4223.39,1255.69a63.65,63.65,0,0,1,4.84-25,58.34,58.34,0,0,1,13.65-19.89,62.72,62.72,0,0,1,21.22-13.13A78.15,78.15,0,0,1,4291,1193a79.92,79.92,0,0,1,28.15,4.71,62.33,62.33,0,0,1,21.43,13.13,58.64,58.64,0,0,1,13.66,19.89,64,64,0,0,1,4.83,25,62.57,62.57,0,0,1-4.83,24.82,59.08,59.08,0,0,1-13.66,19.68,62,62,0,0,1-21.43,13.13A79.92,79.92,0,0,1,4291,1318a78.15,78.15,0,0,1-27.94-4.71,62.41,62.41,0,0,1-21.22-13.13,58.77,58.77,0,0,1-13.65-19.68A62.23,62.23,0,0,1,4223.39,1255.69ZM4341.46,1139H4240.62l-14.29-344.56h129.42Z"/><path class="cls-7" d="M4001.58,2132.54c-21.07,39.09-47.33,78.58-74.24,110.7v0c-28.18,33.65-57,59.23-81.38,67.88l-.18.07c-1.28.43-2.53.85-3.78,1.19a.31.31,0,0,1-.19,0l0,0a44.26,44.26,0,0,1-14.14,1.81c-79.89-3.58-164.11-175-164.11-175s2.19-20.32,17.73-34.67c13.56-12.52,24-15.79,24-15.79s86,88.36,107.08,94.72c13.22,4,30.6-57.72,55.51-135.21s112.43-96.61,112.43-96.61S4068.86,2007.79,4001.58,2132.54Z"/><path class="cls-8" d="M3927.34,2243.24v0c-28.18,33.65-57,59.23-81.38,67.88l-.18.07-3.78,1.19-.21.06,0,0c.88-.59,26.94-14.1,31-39.18,4.18-25.63-22.94-46.59,45.21-86.23C3957.75,2163.92,3927.34,2243.24,3927.34,2243.24Z"/><path class="cls-9" d="M3865,3418.75h187.27c13.41-9.1-3.62-98.05-3.62-98.05s-51.11-19.4-59.94,20-65.1,51.94-94.86,56.75C3873.44,3400.8,3867,3412,3865,3418.75Z"/><path class="cls-10" d="M4150.52,2496.7s-5.9,109.24-13.28,235.82c-5.32,90.76-11.37,190.45-16.57,265.11-.69,9.91-1.37,19.38-2,28.33-.19,2.78-.4,5.53-.61,8.28-13.41,167.41-58.24,314.07-58.24,314.07-52.65,11.1-76.43-9.2-76.43-9.2s-36.27-425.15-49.71-596.62c-9.89-126.22-18.31-310-18.31-310Z"/><path class="cls-11" d="M4137.24,2732.52c-5.32,90.76-11.37,190.45-16.57,265.11-34.42-81.19-104.73-397.64-104.73-397.64Z"/><path class="cls-9" d="M4142.69,3418.75H4330c13.42-9.1-3.62-98.05-3.62-98.05s-51.11-19.4-59.93,20-65.1,51.94-94.87,56.75C4151.16,3400.8,4144.73,3412,4142.69,3418.75Z"/><path class="cls-10" d="M3966.21,2475s133.73,332.87,176.48,459c30.45,89.88,116.33,405.18,116.33,405.18s37.34,11.36,68.73-10.61c0,0,31.95-322.13-32.59-413-34.24-48.19-8.51-500.94-147.34-504.81S3966.21,2475,3966.21,2475Z"/><path class="cls-7" d="M4240,2367.9c-.56,47.34-1.08,82.09-.95,90.87.37,28.64-17.94,35.11-36.82,39.47,0,0-17.44,3.75-39.45,7.49-21.55,3.61-47.54,7.17-65.9,7.05-93.89-.75-172.47-28.39-172.47-28.39-17.67,0-25.72-27.33-28.62-65.48-2-25.83,6-283.37,7-347.68.69-46.12,26-88.74,33.09-95,65.56-58,259-50.67,293.85-10.68,8.62,9.89,11.12,105.24,11.41,209.69C4241.37,2242.49,4240.68,2313.5,4240,2367.9Z"/><path class="cls-12" d="M4123.86,1942.63c-24.69,26.76-107.65,22.8-105.19-.57.33-2.87.87-20,1.14-22.63.21-2.13.42-4.21.59-6.17q.84-8.64,1.4-15.25c1.1-12.81,1.46-19.76,1.46-19.76h.08c2.38-.66,55.72-15.81,82.25-22.09,8.91-2.1,14.81-3.21,14.71-2.44C4112.16,1913.32,4132,1933.85,4123.86,1942.63Z"/><path class="cls-13" d="M4108.41,1873.75s-22.28,22.63-86.61,24.26c1.1-12.81,1.46-19.76,1.46-19.76h.08c2.38-.66,55.72-15.81,82.25-22.09C4110.26,1858.08,4104.07,1870.53,4108.41,1873.75Z"/><path class="cls-12" d="M4007,1875.08a201.23,201.23,0,0,0,37.05,8.64c30.37,4.1,70.3,1.68,82.85-35.06,21.13-61.84,48.12-98.92-14.06-124.18-33.29-13.52-54.58-14.23-69.05-9.07-12.56,4.45-20,13.34-25.58,22.14C4006.09,1756.48,3981.8,1864.26,4007,1875.08Z"/><path class="cls-14" d="M4022.84,1689.69c-22.21,14.59-15,48.78,11.22,53.38,15.68,2.76,28.84,3.3,36.45,6.69,15.46,6.87,28.75,14.16,25.1,38.15-1.24,8.16-5.22,18.09,15.78,13.16,3.44-.8,5.92-.57,7.63.46,8.71,5.16-2.42,30.22-5.78,35.64,0,0-4.83,17.94,5.89,26.68,1.3,1,22.36,10.25,73.13-67.44,8-12.19,15.59-39.66,3.27-66.11s-46.64-59.91-111.31-59.91C4067.39,1670.39,4042.08,1677.06,4022.84,1689.69Z"/><path class="cls-8" d="M4240,2367.9c-9.44,43.92-7,44.38-21.53,32.86-59.06-46.94-41.8-71.53-28.68-112.21s-32.93-104.3,0-131.42c32.21-26.51,50.57,16.23,51.36,18.13C4241.37,2242.49,4240.68,2313.5,4240,2367.9Z"/><path class="cls-12" d="M4238.59,2362.26s-22.26,36.4-36.85,35.11-34.29-6.73-45.66,4.13-29.69,38.83-24.57,46.29,25.71.84,40.5-7.32,38.09,4,50.51-5.25,42.15-46.08,42.15-46.08Z"/><path class="cls-7" d="M4229.78,1965.57S4414.51,2139.4,4390.52,2255c-10.93,52.68-44.85,97.14-135.24,169.1,0,0-42.77-29.55-52.15-53.54,0,0,82.05-115.56,78.88-135.24-3.89-24.09-59.9-84.49-80-93.87S4183.77,1985.75,4229.78,1965.57Z"/><path class="cls-12" d="M4201.74,2397.37s-19.47-8.51-25.73-12.16-4.87,2.25-3,5.21,7.13,9.56,14.78,10.26A24.44,24.44,0,0,0,4201.74,2397.37Z"/><path class="cls-15" d="M953.47,2019.64c-6.68-12.88,145.71-59.27,148.13,67.86,0,0,285.47-7,149.16-166.13-47.19-55.09-42.33-100.63-40.92-143s-29.39-165.63-135-153.22c0,0-27.67-11.26-62.21,6.66C934.05,1672.52,758.12,2066.52,953.47,2019.64Z"/><path class="cls-12" d="M1420.18,2136.33s18.58-28.29,33.55-28.84,42.71-8.33,40.5-2.78-19.42,6.1-21.08,9.43,25.51,8.32,33.28,8.88,26.07,0,25.51,3.88-33,20-55.87,17.75-51.18,6.65-51.18,6.65Z"/><path class="cls-7" d="M1151.44,2145.48a278.6,278.6,0,0,0,28.42,43c22.08,27.66,56.13,59.6,98.88,65.91,20.41,3,40.38-1.38,58.74-9.53l.06,0c51.92-23.05,91-76.05,91-76.05,9.15-25-5.83-41.88-5.83-41.88s-104.83,23.58-114.81,18.59-71.37-141.17-82.43-163.85c-23.5-48.21-60.79-62-60.79-62Z"/><path class="cls-8" d="M1179.86,2188.46c22.08,27.66,56.13,59.6,98.88,65.91,20.41,3,40.38-1.38,58.74-9.53-2,.26-53.88,6.67-74.55-30.31-21.08-37.72-43.88-97.62-75.2-77.65C1174.22,2145.5,1174.82,2166.91,1179.86,2188.46Z"/><path class="cls-16" d="M760.33,3277.09s-32,29.19-25.74,49.93,35.1,34.57,39,59.92,19.51,39.18,33.55,39.18h67s10.33-17.84-14.63-23.21-34.38-35.17-32.82-62.83-2.34-64.53-2.34-64.53l-53.06-12.29Z"/><path class="cls-16" d="M1031.08,3289.48s-11.51,123.67,2.54,130.58l179.72-.37s0-20.74-28.87-25.35-79.58-21.51-88.16-59.15S1031.08,3289.48,1031.08,3289.48Z"/><path class="cls-7" d="M892.82,2062.06a718,718,0,0,0,0,83.07c1.79,30,32.17,70.27,36.48,80.22,10.81,25,23,29,23,29l94.37,23.13,33.18,8.12,104.63-31.25s47.66-133,28.52-207.9-48.37-126.88-48.37-126.88-70.94-28-196.55-7.09Z"/><path class="cls-17" d="M920.45,2157.39c1.78,30,4.54,58,8.85,68,10.81,25,23,29,23,29l94.37,23.13,41-12.05S950.85,2244.72,966,2127Z"/><path class="cls-14" d="M1177.83,2274.56s51.82,161.29,55.15,216.2-99,780.07-103.17,805.37c-3.88,23.86-33.5,39.06-33.5,39.06s-13.62,8-33.06,2.54c-27-7.61-35.5-16.73-35.5-16.73s-40.33-517.18-15.37-701.93,25.25-344.51,25.25-344.51Z"/><path class="cls-18" d="M958.3,2269.75s-79,106.05-86.41,177.74-11.56,323.51-27.26,393.4-73.38,204.38-73.38,422.37c0,0,6,12.49,24.51,19.15a204.82,204.82,0,0,0,21.55,6,33.9,33.9,0,0,0,37.9-18c39-78.52,163.21-331.74,169.58-384.3,4.5-37.2,43.72-283.39,129.27-427.85,20.54-34.69-12.6-172.61-12.6-172.61Z"/><path class="cls-14" d="M1186.11,2249.66s-20.8,16.46-62.12,17.29c-49.36,1-171.67-12.58-171.67-12.58s-5.44,15.18-5.22,31.21c0,0,149.38,37.68,235.94,5.51C1183,2291.09,1194.2,2270.08,1186.11,2249.66Z"/><path class="cls-19" d="M1113.3,2284c0-14,10.11-25.49,22.53-25.49s22.52,11.44,22.52,25.49-10.1,25.5-22.52,25.5S1113.3,2298.05,1113.3,2284Zm7.47,0c0,10,6.75,18,15.06,18s15.06-8.08,15.06-18-6.76-18-15.06-18S1120.77,2274.06,1120.77,2284Z"/><path class="cls-6" d="M807.38,2292.66l121.3,105.63a21.05,21.05,0,0,0,29.69-2.05l154.78-177.76a21.05,21.05,0,0,0-2.05-29.69L989.79,2083.17a21,21,0,0,0-29.69,2L805.32,2263A21,21,0,0,0,807.38,2292.66Z"/><path class="cls-12" d="M986.83,2279.33c1.73.46,64.44,7.83,64.45,20.78,0,15-18.38,35.06-35.71,34.11-7-.38-39.37-30.13-39.37-30.13Z"/><path class="cls-12" d="M1019,1905.64c7.13-17.3,11.3-43.66,11.18-76.28l4.74.93,79.66,15.78s-1.82,25.07-1.87,48.68v.59c-.1,20.51,13.85,41.09-19,49.23C1083.54,1947.08,1004.05,1942,1019,1905.64Z"/><path class="cls-20" d="M1114.62,1846.07s-1.82,25.07-1.87,48.68c-44.58-1.25-68.14-41.92-77.79-64.46Z"/><path class="cls-12" d="M1129.5,1868.43s-105.46,1.74-105.54-64-13.73-109.71,53.6-113.6S1158,1712,1163.37,1734,1156.94,1866.28,1129.5,1868.43Z"/><path class="cls-15" d="M1125.6,1689.26s-28.88,77.07-73.19,88.47-63.54-.48-63.54-.48,34-27,41-74.14C1029.91,1703.11,1103.82,1652.58,1125.6,1689.26Z"/><path class="cls-15" d="M1118.44,1695.52s21.42,8,30.23,23.62c8.62,15.27,16,35.5,14.25,60.31,0,0,21.76-52.39-2.69-82C1134.31,1666,1118.44,1695.52,1118.44,1695.52Z"/><path class="cls-12" d="M986.83,2279.33s15-4.83,25.08-3.42,17.47-.2,17.47,2.61-13,4.12-15.72,5.47S986.83,2279.33,986.83,2279.33Z"/><path class="cls-7" d="M968.09,1912.5s-74.87,5.25-103.57,75-83.15,186.9-83.15,206.6,30.42,80.45,193.77,115.38c0,0,16.89-17.78,15.87-31.83,0,0-102-87.58-101.69-97.82.51-19.36,16.71-44.92,106.23-134.47C1019.89,2021,968.09,1912.5,968.09,1912.5Z"/><path class="cls-6" d="M3060.34,1318h-809a73.81,73.81,0,0,0-52.17,21.61l-572.07,572.07a73.81,73.81,0,0,0-21.61,52.17v809a73.79,73.79,0,0,0,21.61,52.16l572.07,572.07a73.77,73.77,0,0,0,52.17,21.61h809a73.74,73.74,0,0,0,52.16-21.61l572.08-572.07a73.78,73.78,0,0,0,21.6-52.16v-809a73.8,73.8,0,0,0-21.6-52.17L3112.5,1339.64A73.79,73.79,0,0,0,3060.34,1318Z"/><path class="cls-21" d="M3003.42,3313.59h-695.2a105.33,105.33,0,0,1-75-31.05L1741.68,2791a105.3,105.3,0,0,1-31-75v-695.2a105.36,105.36,0,0,1,31-75l491.58-491.57a105.32,105.32,0,0,1,75-31.06h695.2a105.31,105.31,0,0,1,75,31.06L3570,1945.83a105.32,105.32,0,0,1,31.05,75V2716a105.32,105.32,0,0,1-31.05,75l-491.58,491.59A105.34,105.34,0,0,1,3003.42,3313.59Zm-695.2-1818.31a33.71,33.71,0,0,0-24,9.94L1792.65,1996.8a33.71,33.71,0,0,0-9.94,24V2716a33.69,33.69,0,0,0,9.94,24l491.58,491.59a33.74,33.74,0,0,0,24,9.93h695.2a33.74,33.74,0,0,0,24-9.93L3519,2740a33.72,33.72,0,0,0,9.93-24v-695.2a33.74,33.74,0,0,0-9.93-24l-491.58-491.58a33.71,33.71,0,0,0-24-9.94Z"/><path class="cls-21" d="M3216.53,2394.85l-14.16-12.26a85.83,85.83,0,0,0-120.71,8.68l-80,92.39c-11.43,13.2-33.12,5.12-33.12-12.35h0a204.63,204.63,0,0,0-1.16-21.69V1868a69.67,69.67,0,0,0-69.46-69.46h-5.13a69.67,69.67,0,0,0-69.46,69.46v378.57a16.63,16.63,0,0,1-16.63,16.63h0a18.36,18.36,0,0,1-18.36-18.36V1794.62a67.33,67.33,0,0,0-67.13-67.14h-9.78a67.33,67.33,0,0,0-67.13,67.14v453.14a15.4,15.4,0,0,1-15.4,15.4h0a19.59,19.59,0,0,1-19.6-19.59V1882.32a69.67,69.67,0,0,0-69.46-69.46h-5.13a69.66,69.66,0,0,0-69.45,69.46v364.17a16.67,16.67,0,0,1-16.67,16.67h0a18.33,18.33,0,0,1-18.33-18.33V1959.91a69.66,69.66,0,0,0-69.45-69.46h-5.14a69.66,69.66,0,0,0-69.45,69.46v500.26c0,1.39.05,2.77.13,4.14-.08,2.32-.13,4.66-.13,7v275.36c0,111.92,91.57,203.48,203.48,203.48h275.36c71.58,0,134.83-37.46,171.12-93.74a430,430,0,0,1,36.07-48.69l253-292.16A85.83,85.83,0,0,0,3216.53,2394.85Z"/></g></g></svg>