<svg xmlns="http://www.w3.org/2000/svg" xmlns:xlink="http://www.w3.org/1999/xlink" viewBox="0 0 8454.17 4817.82"><defs><style>.cls-1{fill:none;}.cls-2{fill:#ddeffe;opacity:0.6;}.cls-3,.cls-56{fill:#9bd6e8;}.cls-11,.cls-3{opacity:0.5;}.cls-4{fill:#63acc2;}.cls-5{clip-path:url(#clip-path);}.cls-6{fill:#d5ebfe;}.cls-7{fill:#303c60;}.cls-8{fill:#f09959;}.cls-11,.cls-9{fill:#6791c9;}.cls-10{fill:#75a1de;}.cls-12{fill:#e38540;}.cls-13{fill:#f5ce5c;}.cls-14{fill:#4381db;}.cls-15{fill:#2e5b9a;}.cls-16{fill:#9cbeed;}.cls-17{fill:#fff;}.cls-18{fill:#232e4f;}.cls-19{fill:#1b243d;}.cls-20{fill:#ffd24f;}.cls-21{fill:#edc055;}.cls-22{fill:#2a66c6;}.cls-23{fill:#0f2d5c;}.cls-24{fill:#9ec8ff;}.cls-25{clip-path:url(#clip-path-2);}.cls-26{fill:#d54a41;}.cls-27{fill:#58556e;}.cls-28{fill:#7ec1d6;}.cls-29{fill:#8ddaf2;}.cls-30{fill:#3e6bab;}.cls-31{fill:#f37168;}.cls-32{fill:#ffcb30;}.cls-33{fill:#4578bf;}.cls-34{clip-path:url(#clip-path-3);}.cls-35{fill:#255096;}.cls-36{fill:#ffc34e;}.cls-37{fill:#a1a654;}.cls-38{fill:#c1c765;}.cls-39{clip-path:url(#clip-path-4);}.cls-40{fill:#a8ceff;}.cls-41{fill:#93bbf0;}.cls-42{clip-path:url(#clip-path-5);}.cls-43{fill:#fb8627;}.cls-44{fill:url(#Безымянный_градиент_37);}.cls-45{fill:url(#Безымянный_градиент_37-2);}.cls-46{fill:url(#Безымянный_градиент_37-3);}.cls-47{fill:url(#Безымянный_градиент_37-4);}.cls-48{clip-path:url(#clip-path-6);}.cls-49{fill:#c6e0f7;}.cls-50{fill:#2e2d3d;}.cls-51{fill:#bdccd4;}.cls-52{clip-path:url(#clip-path-7);}.cls-53{fill:#3a384d;}.cls-54{clip-path:url(#clip-path-8);}.cls-55{fill:#7a4e34;}</style><clipPath id="clip-path"><circle class="cls-1" cx="3719.7" cy="2682.12" r="862.38" transform="translate(-807.07 3415.8) rotate(-45)"/></clipPath><clipPath id="clip-path-2"><circle class="cls-1" cx="2085.69" cy="1165.4" r="1023.55"/></clipPath><clipPath id="clip-path-3"><circle class="cls-1" cx="5977.9" cy="1079.71" r="945.5" transform="translate(987.42 4543.25) rotate(-45)"/></clipPath><clipPath id="clip-path-4"><circle class="cls-1" cx="7757.06" cy="2761.18" r="676.72" transform="translate(319.54 6293.8) rotate(-45)"/></clipPath><clipPath id="clip-path-5"><circle class="cls-1" cx="925.69" cy="3707.43" r="848.72"/></clipPath><linearGradient id="Безымянный_градиент_37" x1="3727.88" y1="3334.31" x2="2275.93" y2="5055.95" gradientTransform="translate(-2051.62)" gradientUnits="userSpaceOnUse"><stop offset="0" stop-color="#ffc34e"/><stop offset="1" stop-color="#fb8627"/></linearGradient><linearGradient id="Безымянный_градиент_37-2" x1="3444.3" y1="3095.15" x2="1992.36" y2="4816.8" xlink:href="#Безымянный_градиент_37"/><linearGradient id="Безымянный_градиент_37-3" x1="3781.66" y1="2782.62" x2="2784.14" y2="4567.06" xlink:href="#Безымянный_градиент_37"/><linearGradient id="Безымянный_градиент_37-4" x1="3695.61" y1="3206.57" x2="2145.94" y2="5044.09" xlink:href="#Безымянный_градиент_37"/><clipPath id="clip-path-6"><circle class="cls-1" cx="3884.65" cy="753.29" r="412.11"/></clipPath><clipPath id="clip-path-7"><circle class="cls-1" cx="422.89" cy="2072.68" r="412.11"/></clipPath><clipPath id="clip-path-8"><circle class="cls-1" cx="8004.28" cy="1141.52" r="439.12" transform="translate(1537.22 5994.23) rotate(-45)"/></clipPath></defs><title>Asset 1</title><g id="Layer_2" data-name="Layer 2"><g id="Слой_1" data-name="Слой 1"><path class="cls-2" d="M194.85,2867.92c-329.5-1441.4,624.91-2573,2585.8-2799.09,2196.2-253.22,2637.71,961.4,2013.79,1314.05S3116.36,3912.53,2980.83,4337.8,658.14,4894.57,194.85,2867.92Z"/><path class="cls-2" d="M7161.38,1313.21C8196.3,1358.43,8899.15,2936.7,8124,3758.3s-3652.16,527.49-3549.64-68.87,1330.77-404.8,1858.71-1141.64S6866.12,1300.3,7161.38,1313.21Z"/><path class="cls-3" d="M7495.74,4450.07c-806.3-2-2607.59,32.57-4023.2,106.08s-217.41,238.23,757.53,168.11,1657,153.21,2850.26,77.79S8431.21,4452.43,7495.74,4450.07Z"/><path class="cls-4" d="M442,2144a6.73,6.73,0,0,1-6.46-4.83l-19.07-64.57a6.73,6.73,0,0,1,3.55-8l60.72-29.1a6.73,6.73,0,1,1,5.82,12.14L431,2076.27l17.45,59.08A6.72,6.72,0,0,1,442,2144Z"/><path class="cls-4" d="M870.87,3596.12a6.75,6.75,0,0,1-6.46-4.83l-35.74-121a6.74,6.74,0,0,1,12.92-3.81l35.74,121a6.74,6.74,0,0,1-6.46,8.64Zm-71.49-242a6.73,6.73,0,0,1-6.45-4.83l-35.74-121a6.73,6.73,0,1,1,12.91-3.81l35.74,121a6.72,6.72,0,0,1-4.55,8.36A6.64,6.64,0,0,1,799.38,3354.1Zm-71.48-242a6.75,6.75,0,0,1-6.46-4.83l-35.74-121a6.74,6.74,0,0,1,12.92-3.81l35.74,121a6.74,6.74,0,0,1-6.46,8.64Zm-71.49-242a6.73,6.73,0,0,1-6.45-4.83l-35.74-121a6.73,6.73,0,1,1,12.91-3.81l35.74,121a6.72,6.72,0,0,1-4.55,8.36A6.59,6.59,0,0,1,656.41,2870.06Zm-71.48-242a6.75,6.75,0,0,1-6.46-4.83l-35.74-121a6.74,6.74,0,1,1,12.92-3.82l35.74,121a6.75,6.75,0,0,1-6.46,8.65Zm-71.49-242a6.73,6.73,0,0,1-6.45-4.83l-35.74-121a6.73,6.73,0,1,1,12.91-3.82l35.74,121a6.73,6.73,0,0,1-4.55,8.37A6.64,6.64,0,0,1,513.44,2386Z"/><path class="cls-4" d="M925.69,3781.71a6.72,6.72,0,0,1-6.46-4.82l-19.07-64.59a6.73,6.73,0,1,1,12.91-3.81l17,57.67,56.4-20.87a6.74,6.74,0,0,1,4.67,12.64L928,3781.29A6.66,6.66,0,0,1,925.69,3781.71Z"/><path class="cls-4" d="M1113.31,3712.3a6.73,6.73,0,0,1-2.34-13.05l124.47-46.05a6.73,6.73,0,0,1,4.67,12.63l-124.47,46.05A6.83,6.83,0,0,1,1113.31,3712.3Zm248.93-92.1a6.73,6.73,0,0,1-2.33-13l124.46-46.06a6.74,6.74,0,0,1,4.67,12.64l-124.46,46.05A6.84,6.84,0,0,1,1362.24,3620.2Zm248.93-92.1a6.74,6.74,0,0,1-2.33-13.06L1733.31,3469a6.73,6.73,0,0,1,4.67,12.63l-124.47,46.06A6.84,6.84,0,0,1,1611.17,3528.1ZM1860.11,3436a6.73,6.73,0,0,1-2.34-13l124.47-46.05a6.73,6.73,0,0,1,4.67,12.63l-124.47,46.05A6.6,6.6,0,0,1,1860.11,3436Zm248.93-92.1a6.73,6.73,0,0,1-2.33-13l124.46-46.05a6.73,6.73,0,0,1,4.67,12.63l-124.46,46A6.84,6.84,0,0,1,2109,3343.89Zm248.94-92.1a6.73,6.73,0,0,1-2.34-13.05l124.47-46a6.73,6.73,0,0,1,4.67,12.63l-124.47,46A6.83,6.83,0,0,1,2358,3251.79Zm248.93-92.1a6.73,6.73,0,0,1-2.34-13.05l124.47-46a6.73,6.73,0,0,1,4.67,12.63l-124.47,46.05A6.83,6.83,0,0,1,2606.91,3159.69Zm248.93-92.1a6.73,6.73,0,0,1-2.33-13.05L2978,3008.48a6.74,6.74,0,0,1,4.67,12.64l-124.46,46.05A6.84,6.84,0,0,1,2855.84,3067.59Zm248.94-92.1a6.74,6.74,0,0,1-2.34-13.06l124.47-46a6.73,6.73,0,0,1,4.67,12.63l-124.47,46.06A6.83,6.83,0,0,1,3104.78,2975.49Zm248.93-92.11a6.73,6.73,0,0,1-2.33-13.05l124.46-46a6.73,6.73,0,0,1,4.67,12.63L3356.05,2883A6.61,6.61,0,0,1,3353.71,2883.38Z"/><path class="cls-4" d="M3723.7,2802.28a6.7,6.7,0,0,1-3.43-.94l-55.14-32.73L3605,2790.86a6.73,6.73,0,1,1-4.67-12.63l63.16-23.36a6.7,6.7,0,0,1,5.77.52l57.91,34.37a6.73,6.73,0,0,1-3.45,12.52Z"/><path class="cls-4" d="M5635.58,3937a6.67,6.67,0,0,1-3.43-.94l-119.5-70.93a6.73,6.73,0,0,1,6.88-11.58L5639,3924.52a6.73,6.73,0,0,1-3.44,12.52Zm-239-141.84a6.71,6.71,0,0,1-3.43-.95l-119.49-70.92a6.73,6.73,0,0,1,6.88-11.58L5400,3782.67a6.74,6.74,0,0,1-3.45,12.53Zm-239-141.85a6.67,6.67,0,0,1-3.43-.94l-119.5-70.92a6.73,6.73,0,1,1,6.88-11.58l119.49,70.92a6.73,6.73,0,0,1-3.44,12.52Zm-239-141.84a6.71,6.71,0,0,1-3.43-1l-119.49-70.92a6.73,6.73,0,1,1,6.88-11.58L4922.07,3499a6.74,6.74,0,0,1-3.45,12.53Zm-239-141.85a6.67,6.67,0,0,1-3.43-.94l-119.5-70.92a6.73,6.73,0,1,1,6.88-11.58l119.49,70.92a6.73,6.73,0,0,1-3.44,12.52Zm-239-141.84a6.62,6.62,0,0,1-3.44-1L4317.73,3156a6.73,6.73,0,0,1,6.88-11.58l119.49,70.93a6.73,6.73,0,0,1-3.44,12.52Zm-239-141.85a6.7,6.7,0,0,1-3.43-.94l-119.49-70.92a6.73,6.73,0,1,1,6.87-11.58l119.5,70.92a6.73,6.73,0,0,1-3.45,12.52Zm-239-141.84a6.65,6.65,0,0,1-3.44-1l-119.49-70.92a6.73,6.73,0,0,1,6.88-11.58l119.49,70.93a6.73,6.73,0,0,1-3.44,12.52Z"/><path class="cls-4" d="M5813,4042.33a6.71,6.71,0,0,1-3.43-.94L5751.64,4007a6.73,6.73,0,0,1,6.87-11.58l54.31,32.23,52.9-34.48a6.74,6.74,0,0,1,7.35,11.29l-56.41,36.76A6.7,6.7,0,0,1,5813,4042.33Z"/><path class="cls-4" d="M5989,3927.66a6.73,6.73,0,0,1-3.69-12.37l119.55-77.91a6.74,6.74,0,0,1,7.35,11.29l-119.54,77.9A6.71,6.71,0,0,1,5989,3927.66ZM6228,3771.86a6.74,6.74,0,0,1-3.69-12.38l119.54-77.9a6.73,6.73,0,1,1,7.36,11.28l-119.54,77.91A6.71,6.71,0,0,1,6228,3771.86Zm239.08-155.81a6.73,6.73,0,0,1-3.68-12.37L6583,3525.77a6.74,6.74,0,0,1,7.36,11.29L6470.79,3615A6.68,6.68,0,0,1,6467.12,3616.05Zm239.09-155.8a6.74,6.74,0,0,1-3.68-12.38l119.54-77.9a6.73,6.73,0,1,1,7.36,11.28l-119.55,77.91A6.77,6.77,0,0,1,6706.21,3460.25Zm239.09-155.81a6.74,6.74,0,0,1-3.69-12.38l119.55-77.9a6.74,6.74,0,1,1,7.35,11.29L6949,3303.35A6.71,6.71,0,0,1,6945.3,3304.44Zm239.09-155.8a6.74,6.74,0,0,1-3.69-12.38l119.55-77.9a6.73,6.73,0,1,1,7.35,11.28l-119.54,77.9A6.72,6.72,0,0,1,7184.39,3148.64Zm239.08-155.81a6.74,6.74,0,0,1-3.68-12.38l119.54-77.9a6.73,6.73,0,1,1,7.36,11.28l-119.54,77.91A6.72,6.72,0,0,1,7423.47,2992.83Z"/><path class="cls-4" d="M7662.56,2837a6.74,6.74,0,0,1-3.68-12.38l54-35.16L7724,2726a6.74,6.74,0,1,1,13.27,2.33l-11.63,66.33a6.73,6.73,0,0,1-3,4.48l-56.42,36.76A6.68,6.68,0,0,1,7662.56,2837Z"/><path class="cls-4" d="M7754.42,2598a6.73,6.73,0,0,1-6.64-7.9l23.83-135.95a6.73,6.73,0,1,1,13.26,2.32l-23.82,136A6.74,6.74,0,0,1,7754.42,2598Zm47.65-271.91a6.73,6.73,0,0,1-6.64-7.89l23.82-136a6.74,6.74,0,1,1,13.27,2.33L7808.7,2320.5A6.74,6.74,0,0,1,7802.07,2326.07Zm47.65-271.9a6.73,6.73,0,0,1-6.64-7.9l23.82-136a6.74,6.74,0,1,1,13.27,2.33l-23.82,135.95A6.74,6.74,0,0,1,7849.72,2054.17Zm47.65-271.9a7.7,7.7,0,0,1-1.17-.1,6.74,6.74,0,0,1-5.47-7.8l23.82-135.95a6.74,6.74,0,0,1,13.27,2.32l-23.83,136A6.73,6.73,0,0,1,7897.37,1782.27Zm47.65-271.9a6.62,6.62,0,0,1-1.17-.11,6.73,6.73,0,0,1-5.48-7.79l23.83-136a6.74,6.74,0,0,1,13.27,2.32l-23.83,136A6.74,6.74,0,0,1,7945,1510.37Z"/><path class="cls-4" d="M7992.67,1238.46a6.6,6.6,0,0,1-1.17-.1,6.74,6.74,0,0,1-5.48-7.8l10.35-59-59.75-4.72a6.74,6.74,0,0,1,1.06-13.43l67.13,5.31a6.73,6.73,0,0,1,6.1,7.87l-11.62,66.33A6.73,6.73,0,0,1,7992.67,1238.46Z"/><path class="cls-4" d="M605.86,1991.74a6.74,6.74,0,0,1-2.92-12.81l122.24-58.57A6.73,6.73,0,1,1,731,1932.5l-122.24,58.58A6.7,6.7,0,0,1,605.86,1991.74ZM850.34,1874.6a6.74,6.74,0,0,1-2.92-12.81l122.24-58.58a6.74,6.74,0,1,1,5.82,12.15l-122.24,58.57A6.71,6.71,0,0,1,850.34,1874.6Zm244.48-117.15a6.74,6.74,0,0,1-2.92-12.81l122.25-58.58a6.73,6.73,0,1,1,5.81,12.15l-122.24,58.57A6.65,6.65,0,0,1,1094.82,1757.45ZM1339.3,1640.3a6.73,6.73,0,0,1-2.91-12.81l122.24-58.57a6.73,6.73,0,1,1,5.81,12.14l-122.24,58.58A6.64,6.64,0,0,1,1339.3,1640.3Zm244.48-117.15a6.73,6.73,0,0,1-2.91-12.81l122.24-58.57a6.73,6.73,0,0,1,5.82,12.14l-122.24,58.58A6.71,6.71,0,0,1,1583.78,1523.15ZM1828.26,1406a6.73,6.73,0,0,1-2.91-12.81l122.24-58.57a6.74,6.74,0,0,1,5.82,12.15l-122.24,58.57A6.71,6.71,0,0,1,1828.26,1406Zm244.49-117.15a6.73,6.73,0,0,1-2.92-12.8l80.89-38.76a7.44,7.44,0,0,1,1-.4l44-12.85a6.74,6.74,0,1,1,3.78,12.93l-43.48,12.7-80.4,38.52A6.7,6.7,0,0,1,2072.75,1288.85Zm255-89.61a6.74,6.74,0,0,1-1.89-13.2l130.11-38a6.74,6.74,0,1,1,3.78,12.93l-130.11,38A6.54,6.54,0,0,1,2327.76,1199.24ZM7802,1156.16l-.54,0-135.13-10.67a6.74,6.74,0,0,1,1.06-13.43l135.13,10.68a6.74,6.74,0,0,1-.52,13.45Zm-270.26-21.35-.54,0-135.12-10.67a6.74,6.74,0,1,1,1.06-13.43l135.13,10.68a6.74,6.74,0,0,1-.53,13.45ZM2588,1123.25a6.74,6.74,0,0,1-1.89-13.2l130.12-38A6.73,6.73,0,0,1,2720,1085l-130.11,38A6.9,6.9,0,0,1,2588,1123.25Zm4673.52-9.79-.53,0-135.13-10.67a6.74,6.74,0,0,1,1.06-13.43L7262,1100a6.74,6.74,0,0,1-.53,13.45Zm-270.25-21.35-.54,0-135.13-10.68a6.74,6.74,0,0,1,1.06-13.43l135.13,10.68a6.74,6.74,0,0,1-.52,13.45ZM6721,1070.76l-.54,0-135.13-10.68a6.74,6.74,0,0,1,1.07-13.43l135.12,10.68a6.74,6.74,0,0,1-.52,13.45Zm-270.26-21.35-.53,0-135.13-10.68a6.74,6.74,0,1,1,1.06-13.43L6451.27,1036a6.74,6.74,0,0,1-.53,13.45Zm-3602.53-2.15a6.73,6.73,0,0,1-1.88-13.2l130.11-38a6.74,6.74,0,1,1,3.78,12.93l-130.11,38A7,7,0,0,1,2848.21,1047.26Zm3332.28-19.2-.54,0-135.13-10.68a6.74,6.74,0,0,1,1.06-13.43L6181,1014.61a6.74,6.74,0,0,1-.52,13.45ZM5910.4,1005a7,7,0,0,1-.79,0L5775,989a6.73,6.73,0,0,1,1.57-13.37l134.62,15.86a6.73,6.73,0,0,1-.78,13.42Zm-269.23-31.72a7.16,7.16,0,0,1-.8-.05l-134.62-15.86a6.74,6.74,0,0,1,1.58-13.38L5642,959.81a6.73,6.73,0,0,1-.78,13.42Zm-2532.72-2a6.74,6.74,0,0,1-1.89-13.2l130.12-38a6.73,6.73,0,1,1,3.77,12.92l-130.11,38A6.54,6.54,0,0,1,3108.45,971.26ZM5371.93,941.5a7.26,7.26,0,0,1-.8,0l-134.61-15.87a6.73,6.73,0,0,1,1.57-13.37l134.62,15.86a6.73,6.73,0,0,1-.78,13.42Zm-269.24-31.72a7,7,0,0,1-.79,0l-134.62-15.86a6.74,6.74,0,0,1,1.58-13.38l134.61,15.86a6.74,6.74,0,0,1-.78,13.43Zm-1734-14.51a6.74,6.74,0,0,1-1.89-13.2l130.12-38a6.73,6.73,0,0,1,3.77,12.93l-130.12,38A6.44,6.44,0,0,1,3368.68,895.27Zm1464.78-17.22a7.14,7.14,0,0,1-.8,0L4698,862.14a6.73,6.73,0,1,1,1.58-13.37l134.62,15.86a6.73,6.73,0,0,1-.78,13.42Zm-269.24-31.72a7.31,7.31,0,0,1-.8-.05l-134.61-15.86a6.74,6.74,0,0,1,1.57-13.38L4565,832.9a6.74,6.74,0,0,1-.78,13.43Zm-935.31-27.06a6.73,6.73,0,0,1-1.89-13.19l130.12-38a6.73,6.73,0,1,1,3.77,12.93L3630.8,819A6.54,6.54,0,0,1,3628.91,819.27ZM4295,814.6a5.37,5.37,0,0,1-.8-.05l-134.62-15.86a6.73,6.73,0,1,1,1.58-13.37l134.62,15.86a6.73,6.73,0,0,1-.78,13.42Zm-269.24-31.73a7.14,7.14,0,0,1-.8,0L3890.33,767a6.74,6.74,0,0,1,1.58-13.38l134.62,15.86a6.73,6.73,0,0,1-.78,13.42Z"/><path class="cls-4" d="M543.88,2105.18a6.74,6.74,0,0,1-1.4-.15l-65.87-14a6.73,6.73,0,1,1,2.8-13.17l65.87,14a6.74,6.74,0,0,1-1.4,13.33Z"/><path class="cls-4" d="M3467.06,2725.73a6.74,6.74,0,0,1-1.4-.15l-132.87-28.21a6.73,6.73,0,1,1,2.8-13.17l132.87,28.2a6.74,6.74,0,0,1-1.4,13.33Zm-265.74-56.42a6.9,6.9,0,0,1-1.41-.15L3067,2641a6.74,6.74,0,0,1,2.8-13.18L3202.71,2656a6.73,6.73,0,0,1-1.39,13.32Zm-265.74-56.41a6.83,6.83,0,0,1-1.41-.15l-132.87-28.21a6.73,6.73,0,1,1,2.8-13.17L2937,2599.58a6.73,6.73,0,0,1-1.39,13.32Zm-265.75-56.42a7.47,7.47,0,0,1-1.4-.14l-132.87-28.21a6.73,6.73,0,1,1,2.8-13.17l132.87,28.2a6.73,6.73,0,0,1-1.4,13.32Zm-265.74-56.41a6.9,6.9,0,0,1-1.41-.15l-132.87-28.21a6.73,6.73,0,0,1,2.8-13.17l132.87,28.21a6.73,6.73,0,0,1-1.39,13.32Zm-265.74-56.41a6.76,6.76,0,0,1-1.41-.15l-132.87-28.21a6.73,6.73,0,1,1,2.8-13.17l132.87,28.21a6.73,6.73,0,0,1-1.39,13.32Zm-265.75-56.42a6.74,6.74,0,0,1-1.4-.15l-132.87-28.2a6.73,6.73,0,1,1,2.79-13.17l132.87,28.2a6.73,6.73,0,0,1-1.39,13.32Zm-265.74-56.41a6.83,6.83,0,0,1-1.41-.15l-132.87-28.21a6.73,6.73,0,1,1,2.8-13.17l132.87,28.21a6.73,6.73,0,0,1-1.39,13.32Zm-265.74-56.41a6.76,6.76,0,0,1-1.41-.15l-132.87-28.21a6.73,6.73,0,1,1,2.8-13.17l132.87,28.21a6.73,6.73,0,0,1-1.39,13.32ZM1075.37,2218a6.74,6.74,0,0,1-1.4-.15l-132.88-28.2a6.74,6.74,0,0,1,2.8-13.18l132.87,28.21a6.73,6.73,0,0,1-1.39,13.32Zm-265.74-56.41a6.76,6.76,0,0,1-1.41-.15l-132.87-28.21a6.73,6.73,0,1,1,2.8-13.17L811,2148.27a6.73,6.73,0,0,1-1.39,13.32Z"/><path class="cls-4" d="M3665.8,2767.91a6.72,6.72,0,0,1-1.4-.14l-65.87-14a6.73,6.73,0,1,1,2.8-13.17l58.61,12.44,6.7-59.54A6.74,6.74,0,1,1,3680,2695l-7.54,66.91a6.72,6.72,0,0,1-6.69,6Z"/><path class="cls-4" d="M3689,2561.8a6.61,6.61,0,0,1-.76-.05,6.73,6.73,0,0,1-5.94-7.44l15.68-139.2a6.73,6.73,0,1,1,13.38,1.5l-15.68,139.2A6.74,6.74,0,0,1,3689,2561.8Zm31.35-278.41a6.56,6.56,0,0,1-.76,0,6.75,6.75,0,0,1-5.94-7.45l15.68-139.2a6.73,6.73,0,1,1,13.38,1.5l-15.67,139.21A6.74,6.74,0,0,1,3720.37,2283.39Zm31.35-278.4a6.61,6.61,0,0,1-.76,0,6.74,6.74,0,0,1-5.94-7.44l15.68-139.21a6.73,6.73,0,0,1,13.38,1.51L3758.41,1999A6.74,6.74,0,0,1,3751.72,2005Zm31.35-278.41a6.56,6.56,0,0,1-.76,0,6.75,6.75,0,0,1-5.94-7.45l15.68-139.2a6.73,6.73,0,1,1,13.38,1.5l-15.67,139.21A6.74,6.74,0,0,1,3783.07,1726.58Zm31.36-278.41a6.45,6.45,0,0,1-.76,0,6.73,6.73,0,0,1-5.94-7.45l15.67-139.2a6.74,6.74,0,0,1,13.39,1.51l-15.68,139.2A6.73,6.73,0,0,1,3814.43,1448.17Zm31.35-278.4a6.33,6.33,0,0,1-.76,0,6.72,6.72,0,0,1-5.94-7.44l15.67-139.21a6.74,6.74,0,0,1,13.39,1.51l-15.68,139.21A6.73,6.73,0,0,1,3845.78,1169.77Z"/><path class="cls-4" d="M3877.13,891.36a6.62,6.62,0,0,1-.77,0,6.73,6.73,0,0,1-5.93-7.45L3878,817a6.74,6.74,0,0,1,13.39,1.5l-7.54,66.92A6.73,6.73,0,0,1,3877.13,891.36Z"/><path class="cls-4" d="M1042.07,3840.36h-.32l-67.26-3.14a6.73,6.73,0,1,1,.62-13.45l67.27,3.14a6.73,6.73,0,0,1-.31,13.46Z"/><path class="cls-4" d="M5169.14,4032.78h-.32l-137.57-6.41a6.73,6.73,0,0,1,.63-13.45l137.57,6.41a6.73,6.73,0,0,1-.31,13.46ZM4894,4020h-.32l-137.56-6.42a6.73,6.73,0,1,1,.62-13.45l137.57,6.41A6.73,6.73,0,0,1,4894,4020Zm-275.14-12.82h-.31L4481,4000.7a6.73,6.73,0,0,1-6.42-7,6.8,6.8,0,0,1,7-6.42l137.57,6.42a6.73,6.73,0,0,1-.31,13.46Zm-275.14-12.83h-.31l-137.57-6.41a6.74,6.74,0,0,1,.62-13.46l137.57,6.42a6.73,6.73,0,0,1-.31,13.46Zm-275.13-12.83h-.32l-137.57-6.41a6.73,6.73,0,0,1,.63-13.45l137.56,6.41a6.73,6.73,0,0,1-.3,13.46Zm-275.14-12.83h-.32l-137.57-6.41a6.73,6.73,0,0,1,.63-13.45l137.57,6.41a6.73,6.73,0,0,1-.31,13.46Zm-275.14-12.83H3518l-137.57-6.41a6.73,6.73,0,0,1,.63-13.45l137.57,6.41a6.73,6.73,0,0,1-.31,13.46ZM3243.17,3943h-.31l-137.58-6.42a6.73,6.73,0,0,1,.63-13.45l137.57,6.42a6.73,6.73,0,0,1-.31,13.46ZM2968,3930.16h-.32l-137.57-6.42a6.73,6.73,0,1,1,.62-13.45l137.57,6.42a6.73,6.73,0,0,1-.3,13.46Zm-275.14-12.83h-.32L2555,3910.9a6.73,6.73,0,0,1,.63-13.45l137.56,6.42a6.73,6.73,0,0,1-.3,13.46Zm-275.14-12.83h-.32l-137.57-6.41a6.73,6.73,0,0,1,.63-13.45l137.57,6.41a6.73,6.73,0,0,1-.31,13.46Zm-275.14-12.83h-.32l-137.57-6.41a6.73,6.73,0,0,1,.63-13.45l137.57,6.41a6.73,6.73,0,0,1-.31,13.46Zm-275.14-12.83h-.32l-137.56-6.41a6.73,6.73,0,0,1-6.42-7,6.8,6.8,0,0,1,7-6.41l137.57,6.41a6.73,6.73,0,0,1-.31,13.46ZM1592.34,3866H1592l-137.57-6.42a6.73,6.73,0,1,1,.62-13.45l137.57,6.41a6.73,6.73,0,0,1-.31,13.46Zm-275.13-12.82h-.32l-137.57-6.42a6.73,6.73,0,0,1,.62-13.45l137.57,6.42a6.73,6.73,0,0,1-.3,13.46Z"/><path class="cls-4" d="M5374,4042.33h-.32l-67.27-3.14a6.74,6.74,0,0,1-6.41-7,6.81,6.81,0,0,1,7-6.41l67.26,3.13a6.73,6.73,0,0,1-.3,13.46Z"/><path class="cls-4" d="M7855.82,3032.5a6.71,6.71,0,0,1-4.48-1.71L7801,2986A6.73,6.73,0,0,1,7810,2976l50.31,44.76a6.74,6.74,0,0,1-4.48,11.77Z"/><path class="cls-4" d="M7705.14,2898.42a6.71,6.71,0,0,1-4.48-1.7l-100.38-89.31a6.74,6.74,0,1,1,9-10.06l100.38,89.31a6.73,6.73,0,0,1-4.48,11.76ZM7504.38,2719.8a6.7,6.7,0,0,1-4.47-1.7l-100.38-89.31a6.74,6.74,0,1,1,9-10.06L7508.86,2708a6.73,6.73,0,0,1-4.48,11.76Zm-200.75-178.62a6.7,6.7,0,0,1-4.47-1.7l-100.38-89.31a6.74,6.74,0,1,1,8.95-10.07l100.38,89.32a6.73,6.73,0,0,1-4.48,11.76Zm-200.75-178.62a6.73,6.73,0,0,1-4.48-1.7L6998,2271.55a6.74,6.74,0,1,1,8.95-10.07l100.38,89.31a6.74,6.74,0,0,1-4.48,11.77Zm-200.76-178.62a6.7,6.7,0,0,1-4.47-1.7l-100.38-89.32a6.73,6.73,0,1,1,8.95-10.06l100.38,89.31a6.74,6.74,0,0,1-4.48,11.77Zm-200.75-178.62a6.71,6.71,0,0,1-4.48-1.71l-100.37-89.31a6.73,6.73,0,1,1,8.95-10.06l100.38,89.31a6.74,6.74,0,0,1-4.48,11.77ZM6500.61,1826.7a6.66,6.66,0,0,1-4.47-1.71l-100.38-89.31a6.74,6.74,0,1,1,9-10.06l100.37,89.31a6.74,6.74,0,0,1-4.48,11.77Zm-200.75-178.63a6.7,6.7,0,0,1-4.47-1.7L6195,1557.06A6.73,6.73,0,0,1,6204,1547l100.38,89.31a6.73,6.73,0,0,1-4.48,11.76Z"/><path class="cls-4" d="M6099.11,1469.45a6.75,6.75,0,0,1-4.48-1.7L6048,1426.29l-53.37,32.28a6.73,6.73,0,0,1-7-11.52l57.62-34.86a6.73,6.73,0,0,1,8,.74l50.31,44.76a6.73,6.73,0,0,1-4.48,11.76Z"/><path class="cls-4" d="M3996.9,2666a6.73,6.73,0,0,1-3.49-12.49l110.79-67a6.73,6.73,0,0,1,7,11.52l-110.8,67A6.69,6.69,0,0,1,3996.9,2666ZM4218.49,2532a6.74,6.74,0,0,1-3.49-12.5l110.79-67a6.74,6.74,0,1,1,7,11.53L4222,2531A6.7,6.7,0,0,1,4218.49,2532Zm221.59-134.06a6.73,6.73,0,0,1-3.49-12.49l110.79-67a6.73,6.73,0,1,1,7,11.52l-110.79,67A6.69,6.69,0,0,1,4440.08,2397.92Zm221.59-134.05a6.73,6.73,0,0,1-3.5-12.49l110.8-67a6.73,6.73,0,1,1,7,11.52l-110.79,67A6.71,6.71,0,0,1,4661.67,2263.87Zm221.58-134a6.74,6.74,0,0,1-3.49-12.5l110.8-67a6.74,6.74,0,0,1,7,11.53l-110.8,67A6.7,6.7,0,0,1,4883.25,2129.82Zm221.59-134.06a6.73,6.73,0,0,1-3.49-12.49l110.79-67a6.73,6.73,0,0,1,7,11.52l-110.8,67A6.69,6.69,0,0,1,5104.84,1995.76Zm221.59-134a6.74,6.74,0,0,1-3.49-12.5l110.79-67a6.73,6.73,0,1,1,7,11.52l-110.79,67A6.7,6.7,0,0,1,5326.43,1861.71ZM5548,1727.65a6.73,6.73,0,0,1-3.49-12.49l110.79-67a6.73,6.73,0,1,1,7,11.52l-110.79,67A6.69,6.69,0,0,1,5548,1727.65Zm221.59-134.05a6.74,6.74,0,0,1-3.49-12.5l110.79-67a6.73,6.73,0,1,1,7,11.52l-110.79,67A6.69,6.69,0,0,1,5769.61,1593.6Z"/><path class="cls-4" d="M3828.49,2767.91a6.73,6.73,0,0,1-3.49-12.49l57.62-34.86a6.74,6.74,0,0,1,7,11.53L3832,2766.94A6.69,6.69,0,0,1,3828.49,2767.91Z"/><path class="cls-4" d="M7859.56,1310.68a6.74,6.74,0,0,1-5-11.26l45.28-49.84a6.74,6.74,0,1,1,10,9.06l-45.28,49.84A6.72,6.72,0,0,1,7859.56,1310.68Z"/><path class="cls-4" d="M5814.25,3562a6.73,6.73,0,0,1-5-11.26l93-102.33a6.73,6.73,0,1,1,10,9l-93,102.33A6.71,6.71,0,0,1,5814.25,3562Zm185.94-204.66a6.74,6.74,0,0,1-5-11.26l93-102.34a6.74,6.74,0,1,1,10,9.06l-93,102.33A6.67,6.67,0,0,1,6000.19,3357.33Zm185.93-204.67a6.74,6.74,0,0,1-5-11.26l93-102.33a6.73,6.73,0,1,1,10,9l-93,102.34A6.72,6.72,0,0,1,6186.12,3152.66ZM6372.06,2948a6.74,6.74,0,0,1-5-11.26l93-102.34a6.74,6.74,0,0,1,10,9.06l-93,102.33A6.74,6.74,0,0,1,6372.06,2948ZM6558,2743.33a6.63,6.63,0,0,1-4.52-1.75,6.73,6.73,0,0,1-.46-9.51l93-102.33a6.74,6.74,0,1,1,10,9.06l-93,102.33A6.73,6.73,0,0,1,6558,2743.33Zm185.94-204.66a6.74,6.74,0,0,1-5-11.26l93-102.33a6.73,6.73,0,0,1,10,9.05l-93,102.33A6.72,6.72,0,0,1,6743.94,2538.67ZM6929.87,2334a6.73,6.73,0,0,1-5-11.26l93-102.33a6.74,6.74,0,0,1,10,9.06l-93,102.33A6.72,6.72,0,0,1,6929.87,2334Zm185.94-204.66a6.74,6.74,0,0,1-5-11.26l93-102.33a6.73,6.73,0,0,1,10,9l-93,102.33A6.71,6.71,0,0,1,7115.81,2129.34Zm185.94-204.66a6.73,6.73,0,0,1-5-11.26l93-102.34a6.74,6.74,0,0,1,10,9.06l-93,102.33A6.74,6.74,0,0,1,7301.75,1924.68ZM7487.69,1720a6.73,6.73,0,0,1-5-11.26l93-102.33a6.73,6.73,0,0,1,10,9l-93,102.34A6.7,6.7,0,0,1,7487.69,1720Zm185.93-204.66a6.74,6.74,0,0,1-5-11.26l93-102.34a6.74,6.74,0,0,1,10,9.06l-93,102.33A6.73,6.73,0,0,1,7673.62,1515.35Z"/><path class="cls-4" d="M5676,3714.17a6.73,6.73,0,0,1-5-11.26l45.28-49.85a6.74,6.74,0,0,1,10,9.06L5681,3712A6.74,6.74,0,0,1,5676,3714.17Z"/><g class="cls-5"><circle class="cls-6" cx="3719.7" cy="2682.12" r="862.38" transform="translate(-807.07 3415.8) rotate(-45)"/><path class="cls-7" d="M3580.37,1987.44c131-116.68,227.21-47.08,298.85,30.7,57.1,62,65.07,75.74,112.25,140,7,9.54,12.39,20.13,12.61,32,1.32,71,37.66,371.27-2.73,474.87-47.08,120.77-627.71,176-627.71,176Z"/><path class="cls-7" d="M3952.22,2734.29a6.56,6.56,0,0,1-.33-13.12c17.05-.87,30.93-8.54,42.45-23.46,65-84.18,28.36-365.58-3.51-518.58a6.56,6.56,0,1,1,12.85-2.67c7,33.44,30.26,152.17,37.54,275.83,7.48,127.11-4.8,212.38-36.49,253.44-13.81,17.89-31.36,27.49-52.18,28.55Z"/><path class="cls-7" d="M3629.5,1952.64c-251.77,139.19-98.25,610-417.57,777.81-88.46,46.5-360.25,282.47-182.17,593.6,116.49,203.51,464.64,159.66,579.27-20.47S3629.5,1952.64,3629.5,1952.64Z"/><path class="cls-7" d="M2959.49,3023.58a6.58,6.58,0,0,1-6.51-7.43c.22-1.66,5.71-41.37,30.86-94a412.19,412.19,0,0,1,150.88-169.95c147.63-93.94,245.63-182.49,361.53-619.08a6.56,6.56,0,1,1,12.68,3.37c-56,211.13-111.62,353.87-174.91,449.21-58.8,88.58-119.29,131.14-192.25,177.57-153.26,97.53-175.57,253-175.78,254.6A6.56,6.56,0,0,1,2959.49,3023.58Z"/><path class="cls-7" d="M2965,2901.66a6.56,6.56,0,0,1-5.54-10.07c36.55-57.86,83.11-105.32,138.38-141.06,207.33-134.08,241.65-211.19,413-652.89a6.56,6.56,0,0,1,12.24,4.75c-85.69,220.94-136.91,350.41-192.94,442.2-60.21,98.62-128.14,154.23-225.13,217-53.66,34.7-98.89,80.81-134.42,137.06A6.57,6.57,0,0,1,2965,2901.66Z"/><path class="cls-8" d="M3620.8,2246.43c-86.68,180-73.35,343.4-73.35,343.4s10,63.34,50,76.68,96.69-26.68,93.35-80,13.34-183.37,33.35-230S3620.8,2246.43,3620.8,2246.43Z"/><path class="cls-9" d="M3162.81,3497.35c5.46,49.12-6.82,45,36.84,53.22s121.45-21.84,121.45-21.84l-87.33-162.38Z"/><path class="cls-8" d="M3557.91,2493.14c-24.56,79.82-208.77,18.42-273.24,36.84s-119.74,288.6-129,531.14,3.07,436,27.63,466.67,429.83,43,466.67,30.7-307-165.79-307-165.79-21.49-282.46,6.14-426.75,276.32-334.65,276.32-334.65Z"/><path class="cls-8" d="M3643.88,2517.7c64.47,98.25,233.33,86,291.66,165.79s181.14,518.86,181.14,518.86l128.95-445.18s104.57-17.56,70.61,55.27c-60.4,129.52-82.91,547.43-148.41,606.79-72.84,66-145.33,12.28-186.24-103.28-39.56-111.8-138.15-353.07-208.77-445.18s-147.36-239.47-147.36-239.47Z"/><path class="cls-10" d="M3364.49,2530c129,150.44,380.7,144.3,436,125.88l55.26-18.42s43-15.35,79.82,27.63,125.88,313.16,141.23,374.56,39.91,162.72,39.91,162.72-65.87,79.06-65.87,158.88,28,80.51,28,80.51-81.85-18.34-100.27-67.46S3794.31,2880,3794.31,2880l-457.45,9.21L3343,3392.7s-39.91-36.84-95.17,0-73.69,122.8-64.48,135.09-18.42,12.28-18.42,3.07-52.19-233.34-15.35-601.76S3257,2520.77,3297,2517.7,3364.49,2530,3364.49,2530Z"/><path class="cls-9" d="M4060.05,3435.39a4.78,4.78,0,0,0,1.37.29Z"/><path class="cls-9" d="M4077.76,3213.52c-26.61,8.18-71.64,102.34-71.64,102.34s-102.34-223.11-133-532.19l-36.54,209.69c50.43,135.4,129.59,347.86,142,380.92,16.86,44.93,84.81,63.68,94.13,65.76-2.55-.86-8.18-4.26-12.84-17.75-2.69-2.45-18.06-9.64-20.94-12.27-24.56-22.52-14.32-75.74,2.05-135.1S4104.37,3205.33,4077.76,3213.52Z"/><path class="cls-9" d="M3358.88,2888.75l-50.74-232c-55.27,77.78-61.41,343.87-38.89,526.05,18.46,149.39,46.08,188.16,65.06,203.74a56,56,0,0,1,8.69,6.14l-6.14-503.51Z"/><path class="cls-10" d="M3211.93,2654.72c94.16,253.81,47.08,305,171,602.89,69.2,166.38,202.63,291.67,202.63,291.67s107.46,27.63,242.55,18.42,234-18.49,234-18.49-141.88-85.9-148-144.23-32.79-289.71,2-453.46c27.17-127.87-84.9-255.75-84.9-255.75l-187.28-9.21Z"/><path class="cls-11" d="M3377.73,3043.63c-16.37-59.36,69.6,18.42,210.83,32.75s298.85-8.19,221.06,16.37-290.65-12.28-251.76,65.5c45.77,91.54,99.81,180.12,178.08,233.35,51.17,34.79,174,67.54,55.26,49.12s-245.62-157.61-300.89-247.67S3381.38,3056.86,3377.73,3043.63Z"/><path class="cls-12" d="M3690.47,2563.12c1.24-61.27,16.19-165.85,33.69-206.67,14.33-33.44-44.93-75.44-79.68-96.56l-29.4-1.26q-6.7,14.64-12.6,29.08c-31,203.78,61.84,288,106.16,304.92,19.13,7.31,40.57,8.13,58.88,6.47C3740.17,2589.37,3713.5,2578.31,3690.47,2563.12Z"/><path class="cls-13" d="M3634.22,2654.05a138.74,138.74,0,0,1-32.74-4c-25.68-6.26-86.95-30-101.19-115.51a3.72,3.72,0,1,1,7.33-1.23c13.52,81.1,71.38,103.6,95.62,109.51,37.64,9.19,77.57.71,92.87-19.7,12.27-16.36,4.88-51.21,4.81-51.56a3.72,3.72,0,1,1,7.27-1.58c.34,1.56,8.16,38.56-6.12,57.6C3689.43,2644.46,3663.37,2654.05,3634.22,2654.05Z"/><path class="cls-8" d="M3923.15,2326.52c-20.83,110-68.93,198.69-150.33,182s-167-132.88-144.44-242.52,106.76-185,188.16-168.24S3950.89,2180,3923.15,2326.52Z"/><path class="cls-8" d="M4212.86,2869.64s-150.45,404.26-157.61,446.22,7.16,68.57,11.26,68.57,132-219,132-219Z"/><path class="cls-8" d="M4219,2851.9c12.28-40.94-6.82-92.79-6.82-92.79l54.58,6.82Z"/><path class="cls-14" d="M4279,2782.07H4126.67a13.82,13.82,0,0,1-13.24-17.76l96.15-322.37a13.82,13.82,0,0,1,13.24-9.87h152.3a13.82,13.82,0,0,1,13.24,17.77l-96.14,322.37A13.82,13.82,0,0,1,4279,2782.07Z"/><path class="cls-15" d="M4298.08,2782.07h-152.3a13.81,13.81,0,0,1-13.24-17.76l96.14-322.37a13.83,13.83,0,0,1,13.24-9.87h152.3a13.82,13.82,0,0,1,13.24,17.77l-96.14,322.37A13.82,13.82,0,0,1,4298.08,2782.07Z"/><path class="cls-16" d="M4187.81,2548.41c-16.24,58.51-27.17,106.55-24.41,107.32s18.15-46,34.39-104.55,27.16-106.55,24.41-107.31S4204,2489.91,4187.81,2548.41Z"/><path class="cls-8" d="M4291.32,2877.83c4.51-53.16,50.55-103,68.07-118.89a25.14,25.14,0,0,0,8.27-18.88c-.25-26.5-1.43-89.06-6.91-96.36-7-9.3-24.42-129.08-32.56-124.43s2.33,109.31,2.33,109.31-19.77-9.3-30.24-14-53.49,43-53.49,43-20.17,51,35,29.14c65.5-25.93,16.38,46.39-27.29,92.79-36,38.23-5.36,46.68-5.36,46.68l29.07-1.16Z"/><path class="cls-13" d="M4274.79,2920a53.79,53.79,0,0,1-15.84-2.46c-14.24-4.44-39.11-18.75-45.68-64.74a3.72,3.72,0,1,1,7.36-1.05c5.5,38.48,24,52.79,38.57,58,12.13,4.36,22.47,2.58,25.22,1.18a3.72,3.72,0,0,1,7.11-.71,5.09,5.09,0,0,1-1.14,5.44C4288,2918.28,4282.09,2920,4274.79,2920Z"/><path class="cls-13" d="M4269,2906.81a96.39,96.39,0,0,1-13.67-1c-26.47-3.84-44.21-17.28-48.68-36.89a3.72,3.72,0,0,1,7.26-1.65c4.07,17.86,20.07,25.73,32.78,29.18,19,5.16,37.41,2.38,39.77-.14a3.64,3.64,0,0,1,5-1.35,3.8,3.8,0,0,1,1.36,5.15C4290.27,2904.72,4280.22,2906.81,4269,2906.81Z"/><path class="cls-17" d="M3829.72,2384.33a33.66,33.66,0,0,1-5.09-.39c-26.15-4-42-37.62-36-76.52s31.14-66.22,57.26-62.24,42,37.62,36,76.52C3876.31,2358.07,3854,2384.33,3829.72,2384.33Zm11.19-126.4c-17.32,0-34.89,22.56-39.32,51.48-4.68,30.57,6.78,58.76,25,61.56s37.62-20.68,42.3-51.26-6.78-58.76-25-61.56A19.83,19.83,0,0,0,3840.91,2257.93Z"/><path class="cls-17" d="M3915,2384.36a17.91,17.91,0,0,1-2.63-.2c-17.43-2.67-26.57-30.93-21.24-65.72s22.51-59,39.94-56.35,26.57,30.93,21.24,65.72c-2.4,15.68-7.5,30.07-14.36,40.51S3923,2384.36,3915,2384.36Zm13.48-112.54c-9.77,0-23.09,19-27.55,48.12-4.62,30.19,3.11,52.91,12.94,54.41,4.79.73,10.52-3.45,15.79-11.48,6.09-9.27,10.66-22.26,12.85-36.56,4.62-30.19-3.11-52.9-12.94-54.41A6.67,6.67,0,0,0,3928.45,2271.82Z"/><path class="cls-17" d="M3801.44,2282.61a6.69,6.69,0,0,1-1.81-.25L3599,2225.05a6.57,6.57,0,0,1,3.6-12.63l200.6,57.32a6.56,6.56,0,0,1-1.8,12.87Z"/><path class="cls-7" d="M3944.72,2157.33c-310.45,182.85-327.5,60-327.5,60l18.42-174.67,184.22,10.24Z"/><path class="cls-8" d="M3641.24,2258c7.22,30.91-2.64,59.64-22,64.17s-41-16.85-48.19-47.76,2.64-59.65,22-64.18S3634,2227,3641.24,2258Z"/><path class="cls-13" d="M3620,2298.55a12.23,12.23,0,1,1-12.23-12.22A12.24,12.24,0,0,1,3620,2298.55Z"/><path class="cls-8" d="M3709.33,3464.6s83.92-36.84,108.48-20.47,95.52,91.43,95.52,91.43Z"/><path class="cls-15" d="M3908.71,3542.24c-1.6,2-4,2.84-5.32,1.84l-172.68-128.56c-9.3-6.92-13.73-17.51-9.25-23.1s15.77-3.6,24.57,4l163.3,140.28C3910.6,3537.74,3910.3,3540.25,3908.71,3542.24Z"/><path class="cls-8" d="M3455.51,3448.91s139.19,55.26,155.57,55.26,107.8-61.4,138.5-53.22,180.81,83.93,176.72,90.07-47.08,20.47-174,16.37-333.64-22.51-333.64-22.51Z"/></g><path class="cls-18" d="M5683.33,4424.16s-729.86-506.94-1038.6-214.64c-246.52,233.4,191.07,507.6,750.87,433.87,394-51.9,438.69,23.48,507.71,21.85,513.57-39.36,1205.59-193,868.82-434.41-458.77-328.85-769.1,19.78-928.95,106.56Z"/><path class="cls-19" d="M6627,4218.65c-191.84-39.58-922.62,231.42-922.62,231.42S5068,4258.24,4915.73,4240s-222.28,39.58-222.28,39.58,71.84-80.95,155.29-88.3,204-27.41,204-27.41,1218-57.85,1379.36-21.31S6627,4218.65,6627,4218.65Z"/><path class="cls-20" d="M5592,3232.13c-28.95,4.57-478.85,200.82-484.37,283s123.26,749.15,372.32,835.93,527.66,0,527.66,0,292.3-721.61,205.52-858.63-479.55-260.33-479.55-260.33Z"/><path class="cls-20" d="M5261.31,3387.47c-429.82,230.32-535.38,646.15-421.7,737.81,79.65,64.22,380,206.28,640.33,197.14s504.82,15.38,504.82,15.38,446.59-90.87,535.65-224.71-158-568.58-379.6-694.24S5261.31,3387.47,5261.31,3387.47Z"/><path class="cls-8" d="M5671.14,3492.46c-59.45,0-108.1-48.64-108.1-108.1V3020.53c0-59.46,48.65-108.1,108.1-108.1s108.1,48.64,108.1,108.1v363.83C5779.24,3443.82,5730.6,3492.46,5671.14,3492.46Z"/><path class="cls-12" d="M5671.14,2912.43c-59.45,0-108.1,48.64-108.1,108.1V3318c63.74,53.26,125.45,25.35,216.2-45V3020.53C5779.24,2961.07,5730.6,2912.43,5671.14,2912.43Z"/><path class="cls-8" d="M5908.4,3035.23c-17.76,36.27-46.61,56.38-64.44,44.92s-17.87-50.14-.11-86.4,46.61-56.38,64.44-44.92S5926.16,2999,5908.4,3035.23Z"/><path class="cls-8" d="M5490.16,2996.45c20.54,33,24.48,72.87,8.81,89.06s-45,2.56-65.58-30.43-24.49-72.87-8.81-89.06S5469.61,2963.45,5490.16,2996.45Z"/><ellipse class="cls-8" cx="5676" cy="3032.91" rx="185.91" ry="239.38"/><path class="cls-21" d="M6081.36,3625.38c121.8,65,227.94,311.11,227.94,311.11s-274.05,42.63-330.89,85.26,8.12-16.24,40.6-134S6081.36,3625.38,6081.36,3625.38Z"/><path class="cls-21" d="M5233.42,3607.64c28.42,129.91,164.43,492.62,164.43,492.62s-126-143.47-259.84-151.59-183.54-10.15-182.69,22.33c.16,6.41,22.33-144.13,125.85-237.51S5233.42,3607.64,5233.42,3607.64Z"/><path class="cls-22" d="M6049.84,4425.54H5314.39a60.64,60.64,0,0,1-59.82-50.63l-88.68-529.25a60.65,60.65,0,0,1,59.82-70.68h912.8a60.66,60.66,0,0,1,59.83,70.68l-88.68,529.25A60.65,60.65,0,0,1,6049.84,4425.54Z"/><path class="cls-4" d="M6049.84,4425.54H5314.39c-29.63,0-54.93-20.63-59.82-48.8l-88.68-510.16c-6.2-35.65,22.32-68.13,59.82-68.13h912.8c37.51,0,66,32.48,59.83,68.13l-88.68,510.16C6104.76,4404.91,6079.47,4425.54,6049.84,4425.54Z"/><path class="cls-19" d="M5779.24,4634c-4.4-.76-475-118.53-580-31.76s351.67,88.26,433.88,69.25S5779.24,4634,5779.24,4634Z"/><path class="cls-19" d="M5884.29,4655.16s100.47-75.71,232.92-62,246.63,42.58,132.45,78.38-232.93,40.37-287.73,35.8S5884.29,4655.16,5884.29,4655.16Z"/><path class="cls-23" d="M5616.67,2695.47c-120.76,36.63-78.73,376.59,59.33,365.39s143.66-158.2,133.87-253.4S5741.27,2657.67,5616.67,2695.47Z"/><path class="cls-23" d="M5573.27,2947.46c-33.6-32.2-79.8,69.14-61.6,113.67s-7.26,70.44,17.37,118.38-45.37-30.46-55.17-87.85-15.4-156.8-29.4-201.6.71-122.48,63.1-138.6,76.9-44.79,100.7-46.19,137.2,9.79,193.19,40.59,86.8,77,82.6,147-22.4,249.19-39.2,278.59-25.49,22.44-20.44,5.62,23.25-117.61,9.24-154-7-126-43.39-133-28,55.07-71.4,59.73S5573.27,2947.46,5573.27,2947.46Z"/><path class="cls-24" d="M4911.41,2189.87H4248.29a38,38,0,0,1-38-38.44l3.49-275.5a39.16,39.16,0,0,1,38.93-38.45h663.13a38,38,0,0,1,37.95,38.45l-3.48,275.5A39.16,39.16,0,0,1,4911.41,2189.87Z"/><path class="cls-17" d="M4878.81,2161H4281.63a32.9,32.9,0,0,1-32.88-33.3l2.89-228.13a33.93,33.93,0,0,1,33.72-33.3h597.18a32.89,32.89,0,0,1,32.87,33.3l-2.89,228.13A33.91,33.91,0,0,1,4878.81,2161Z"/><path class="cls-24" d="M4505.84,2173.85c-4,145.23-72.89,190.08-72.89,190.08s31-83.29,8-123.87-61.2-57.67-61.2-57.67Z"/><path class="cls-24" d="M4851.75,1947.47h-385a11.33,11.33,0,0,1-11.33-11.48v-.53a11.69,11.69,0,0,1,11.62-11.48h385a11.33,11.33,0,0,1,11.33,11.48v.53A11.69,11.69,0,0,1,4851.75,1947.47Z"/><path class="cls-24" d="M4851.13,1996.59h-385a11.33,11.33,0,0,1-11.33-11.48v-.53a11.69,11.69,0,0,1,11.63-11.48h385a11.33,11.33,0,0,1,11.33,11.48v.53A11.69,11.69,0,0,1,4851.13,1996.59Z"/><path class="cls-24" d="M4850.43,2052.12h-385a11.35,11.35,0,0,1-11.34-11.48v-.54a11.69,11.69,0,0,1,11.63-11.47h384.95a11.33,11.33,0,0,1,11.34,11.47v.54A11.69,11.69,0,0,1,4850.43,2052.12Z"/><path class="cls-24" d="M4420.64,1987c-.53,41.87-28.69,75.82-62.89,75.82s-61.51-34-61-75.82,28.69-75.82,62.9-75.82S4421.17,1945.11,4420.64,1987Z"/><path class="cls-24" d="M5465.6,2691.63H4794a38.46,38.46,0,0,1-38.44-38.94l3.53-279a39.66,39.66,0,0,1,39.43-38.93h671.63a38.46,38.46,0,0,1,38.44,38.93l-3.53,279A39.66,39.66,0,0,1,5465.6,2691.63Z"/><path class="cls-17" d="M5432.57,2662.43H4827.74a33.32,33.32,0,0,1-33.3-33.72l2.93-231.06a34.34,34.34,0,0,1,34.15-33.72h604.83a33.31,33.31,0,0,1,33.3,33.72l-2.93,231.06A34.35,34.35,0,0,1,5432.57,2662.43Z"/><path class="cls-24" d="M5146.39,2675.41c.3,147.08,68.94,192.51,68.94,192.51s-29.21-84.36-4.9-125.46,63.47-58.4,63.47-58.4Z"/><path class="cls-24" d="M5199.27,2465.59h-329a10.57,10.57,0,0,1-10.57-10.71l0-2.38a10.9,10.9,0,0,1,10.84-10.7h329a10.57,10.57,0,0,1,10.57,10.7l0,2.38A10.9,10.9,0,0,1,5199.27,2465.59Z"/><path class="cls-24" d="M5198.64,2515.34h-329a10.57,10.57,0,0,1-10.57-10.71l0-2.38a10.89,10.89,0,0,1,10.84-10.7h329a10.56,10.56,0,0,1,10.57,10.7l0,2.38A10.9,10.9,0,0,1,5198.64,2515.34Z"/><path class="cls-24" d="M5197.93,2571.58h-329a10.59,10.59,0,0,1-10.58-10.71l0-2.38a10.9,10.9,0,0,1,10.84-10.7h329a10.57,10.57,0,0,1,10.57,10.7l0,2.38A10.91,10.91,0,0,1,5197.93,2571.58Z"/><path class="cls-24" d="M5357.64,2591.05h-47.59a38.46,38.46,0,0,1-38.44-38.94l1.23-97.34a39.66,39.66,0,0,1,39.43-38.93h47.59a38.46,38.46,0,0,1,38.44,38.93l-1.23,97.34A39.66,39.66,0,0,1,5357.64,2591.05Z"/><g class="cls-25"><circle class="cls-6" cx="2085.69" cy="1165.4" r="1023.55"/><path class="cls-26" d="M1612.68,1003.92c135.4,97.79,426.25,140.42,519,145.43s-51.5,260.77-51.5,260.77-249.39,30.09-367.24,0S1612.68,1003.92,1612.68,1003.92Z"/><path class="cls-7" d="M1380.33,3539.73c1.67,66.86,39.78,106.65,102,152.95,65.2,48.54,68.54,53.86-21.73,65.8s-115.34-29-175.51-46.58-21.73-60.18-25.08-100.3-9-105.3-9-105.3Z"/><path class="cls-7" d="M1906.88,3506.3a1010.19,1010.19,0,0,0,93.61,92.59c53.49,46.15,188.89,61.88,123.69,79.08s-138.22,7.93-205.34,17.59-125.63.31-130.65-17.59,0-144.93,0-144.93Z"/><path class="cls-27" d="M2091.62,580.9c83.91-79.67,238.16,21.89,252.7,89.42,37.42,173.7,54,353.31,8.45,423.87s-420.5,90.53-446,89.91c-34.33-.83-54.34-117.16,12.81-193.41s97-213.71,109.36-284.13C2043.72,621.87,2078.18,593.65,2091.62,580.9Z"/><path class="cls-27" d="M2389.6,1051.29a3.6,3.6,0,0,1-.56,0,4,4,0,0,1-3.45-4.55c19.68-142-6.63-304.36-65.47-404.12a4,4,0,0,1,7-4.11c59.7,101.22,86.43,265.72,66.52,409.34A4,4,0,0,1,2389.6,1051.29Z"/><path class="cls-27" d="M2413.84,958.36h-.26a4,4,0,0,1-3.78-4.29c8-128.55-56-289.65-114.34-337.32a4,4,0,1,1,5.11-6.26c59.82,48.86,125.48,213.25,117.3,344.09A4,4,0,0,1,2413.84,958.36Z"/><path class="cls-28" d="M1918.32,1088.62c-28.58,202.4-56.16,583.52-138.9,676.3s-128.8,314-128.8,314,267.4-146,376.85-505.07c34.33-112.63-49.45-375.62-69.77-400.7S1918.32,1088.62,1918.32,1088.62Z"/><path class="cls-8" d="M2497.79,1644.56c-16.53,20.07-60.81,117.3-83.26,117.3-76.48,0-82.12,30-123.6,52-53.29,28.21-42,71.46-38.24,74s117.13-17.36,155.2-42.15c31.6-20.59,54.05-31.82,69.46-54.39S2580,1703.48,2580,1703.48Z"/><path class="cls-29" d="M2420.42,1044.11c77.37,46.74,91.57,90.2,167.63,222.25s89.43,179.7,119.52,227.34,40.12,102.8-23.4,163c-60.68,57.48-89,81-122.31,72-22.43-6.06-40.15-71.4-71.34-59.56s24-80.1,52.4-106c15.47-14.11,21.73-13,16.71-19.47s-100.29-77.48-179.69-180.29S2420.42,1044.11,2420.42,1044.11Z"/><path class="cls-28" d="M2663.27,1538c-37.65-16.91-84.69-14.5-119.24-8,8.88,7.47,14.49,12.12,15.6,13.55,5,6.44-1.24,5.36-16.71,19.47-5.49,5-12,12.47-18.63,21.17,26.33-14,55.17-26.5,78.8-30,60.18-8.77,63.94,7.53,95.29,27.59S2724.7,1565.58,2663.27,1538Z"/><path class="cls-28" d="M2498.22,1114.07c-20.73-28.31-42.8-48.82-77.8-70,0,0-119.88,216.4-40.48,319.2a941.08,941.08,0,0,0,77,87.24C2458.58,1381.29,2465.86,1226.46,2498.22,1114.07Z"/><path class="cls-29" d="M2126,972.58c-103.64,23.4-187.27,54-208.66,114.09-10.39,29.17,49.72,510.66,109.9,564.16,116.14,103.23,307.57,6.68,307.57,6.68s86.93-216.47,121.41-579.85c9-32.79-198.3-97.14-231.73-103.83S2126,972.58,2126,972.58Z"/><path class="cls-8" d="M2160.89,3526.74s-142,196.56-56.76,189.61S2245,3621.64,2245,3621.64s29.59,99.51,114.84,94.89,37.16-56.77,0-117.64c-35.1-57.49-37-117.8-37-117.8Z"/><path class="cls-8" d="M2173.08,1066.61a64.12,64.12,0,0,1-63.94-63.94V764.47a63.94,63.94,0,0,1,127.88,0v238.2A64.13,64.13,0,0,1,2173.08,1066.61Z"/><path class="cls-12" d="M2173.08,700.53a64.12,64.12,0,0,0-63.94,63.94V872.31c41.42,59.41,89.87,96.13,127.88,118V764.47A64.13,64.13,0,0,0,2173.08,700.53Z"/><ellipse class="cls-8" cx="2223.67" cy="758.85" rx="115.25" ry="158.46" transform="translate(-114.54 527.91) rotate(-13.2)"/><path class="cls-8" d="M2041.61,1622.16s-199.32,150.44-135.39,643.11,131.63,477.63,135.39,714.57,105.31,564.14,165.48,628.07,207.95-278.8,207.95-583c0-177.76.09-263.17,41.46-541.48s32.66-684.48-132.82-861.24S2041.61,1622.16,2041.61,1622.16Z"/><path class="cls-12" d="M2203.06,2724c-.16-116.59-38.76-364.4-30-706.93L1918.84,2355.9c59.93,401.14,119.26,402.55,122.77,623.94,2.85,179.54,61.85,410.86,116.44,540.24,35.48,12.74,59.32,27.68,65.62,46.46,8.44,25.14,14,39.06,17.38,43.1,1.2-.78,2.41-1.61,3.62-2.53,2.92-21-12.3-128.07-29-283.85C2187.53,3059.9,2203.22,2840.56,2203.06,2724Z"/><path class="cls-29" d="M1952.05,1446.18c33.15,194.79,13.25,221.11-33.21,382.83s-47.08,590.46-47.08,590.46,126,52.65,369.82,30.09,277.67-48.9,277.67-48.9-27.73-417.45-62.75-541.56-89.82-209-92.51-288.78S1952.05,1446.18,1952.05,1446.18Z"/><path class="cls-30" d="M2104.13,3716.35c85.25-7,140.91-94.71,140.91-94.71s29.59,99.51,114.84,94.89c73.21-4,48.09-43,16-92.49-2.92,11.12-12,21.53-36,20.6-50.36-1.95-97.66-63.12-97.66-63.12s-87.89,67.7-120.48,62.87,15.86-83.2,15.89-83.27C2101.29,3617.14,2041.62,3721.45,2104.13,3716.35Z"/><path class="cls-27" d="M1511.26,843.59c-39.6-55.63-79.38-207-44-222.49s26.52-39.78,61.88-85.08S1707,473,1749,549.28s60,84,61.48,124.86-99.06,142.55-99.06,142.55Z"/><path class="cls-8" d="M2445.27,1731.71c-11.54,17.31-22.58,30.15-30.74,30.15-76.48,0-82.12,30-123.6,52-53.29,28.21-42,71.46-38.24,74s117.13-17.36,155.2-42.15c31.6-20.59,54.05-31.82,69.46-54.39,3-4.31,8.53-10.18,15.61-16.85A351.13,351.13,0,0,1,2445.27,1731.71Z"/><path class="cls-8" d="M1537.46,647.87s-25.08,308.69-80.24,342.4-160.47,159.08-145.43,429.88,35.1,387.6,55.16,492.18,396.17,40.85,436.29,0,85.25-414.44,0-603.76-180.53-296.29-190.56-343.1,55.16-234.85,55.16-234.85Z"/><path class="cls-12" d="M1611.65,955.35c-1.25-59,56.19-224.73,56.19-224.73l-130.38-82.75s-5.47,67.3-16.91,142.47C1537.46,894.85,1571.31,935,1611.65,955.35Z"/><path class="cls-8" d="M1775.51,734.59c12.56,90.67-18.67,161.66-84,170.71s-139.9-47.28-152.46-138,30.18-171.51,95.46-180.56S1763,643.91,1775.51,734.59Z"/><path class="cls-8" d="M2491.32,1081.65c38.39,23.86,67.65,83.58,50.85,132.06s-40.09-13.73-65.67-49.31S2462.6,1063.81,2491.32,1081.65Z"/><path class="cls-30" d="M1808.44,1730.5c-26.33,316.64,62.71,1031.21,63.32,1192.93S1937,3527.35,1937,3527.35s-105.31,30.26-146.68,33.77S1629.44,3160.36,1611.75,2946s-129.5-594.8-129.5-594.8l38.3-652.68Z"/><path class="cls-15" d="M1808.44,1730.5l-287.89-32-38.3,652.68s111.82,380.43,129.5,594.8c.23,2.79.49,5.64.75,8.51,2.15-330.41,98.21-473.83,199.73-823.67C1803.49,1977.19,1799.92,1833,1808.44,1730.5Z"/><path class="cls-30" d="M1797.16,1836.53c-135.39,458.83-259.5,891.33-342.24,1177.16S1397,3593.34,1397,3593.34l-139.15,11.1s-156.5-471.14-51.19-726.14,55.21-408.63,75.22-646.88c22.56-268.76,60.5-465.14,60.5-465.14Z"/><path class="cls-31" d="M1803.24,1308.57C1757.45,1206.9,1708.79,1129,1672,1071.39a509.62,509.62,0,0,0-60.18-4.78c-38.8-.77-106.37-50.56-146.66-83.26a35.52,35.52,0,0,1-7.92,6.92c-55.16,33.71-160.47,159.08-145.43,429.88S1270,1783.41,1290.06,1888s473.06,65.19,513.18,24.34S1888.49,1497.89,1803.24,1308.57Z"/><path class="cls-31" d="M1450.53,925.36l-40.72,107.4,258,104.89,29.8-25.58s-39.83-58-29.8-93.1,21.73-45.14,0-53.5-99-21.72-147.29-40.11S1458.92,903.24,1450.53,925.36Z"/><path class="cls-26" d="M1851.69,1629.05c-5.13-80.61-21.42-260.44-48.45-320.48-10-22.12-20.06-43-30.14-63l-32.55-14.13S1560,1087.36,1442.18,1114.25s-122.87,465.89-55.17,514,95.24-80.53,345.6-40.6C1773.39,1594.17,1818.3,1632.23,1851.69,1629.05Z"/><path class="cls-30" d="M2273.68,1758.55a12.49,12.49,0,0,0,17.42-2.64L2823,1033.48a12.47,12.47,0,0,0-20.08-14.78L2271,1741.13A12.49,12.49,0,0,0,2273.68,1758.55Z"/><path class="cls-15" d="M2853.55,1044.11h-88.68a26.86,26.86,0,0,1,0-53.71h88.68a26.86,26.86,0,0,1,0,53.71Z"/><path class="cls-27" d="M2827.35,779.05l85.42,14.4a25,25,0,0,1,18.62,34.9L2848.6,1012a25,25,0,0,1-31,13.32l-75.2-26.3a25,25,0,0,1-14.77-33.29L2800.19,794A25,25,0,0,1,2827.35,779.05Z"/><path class="cls-30" d="M2822.16,793.76l70.67,12.7c13.35,2.39,21,17.59,15.4,30.74L2839.74,999c-4.4,10.4-15.54,15.49-25.66,11.73l-62.21-23.17c-11.26-4.19-16.86-17.63-12.22-29.33l60-151.36C2803.42,797.5,2812.72,792.07,2822.16,793.76Z"/><path class="cls-32" d="M2767.78,777.21a4.07,4.07,0,0,1-1.87-.46l-94.59-49.37a4,4,0,1,1,3.74-7.16l94.59,49.37a4,4,0,0,1-1.87,7.62Z"/><path class="cls-32" d="M2785.32,757.33a4,4,0,0,1-3.26-1.65l-66.71-90.83a4,4,0,0,1,6.52-4.79l66.71,90.84a4,4,0,0,1-3.26,6.43Z"/><path class="cls-32" d="M2645.35,877.48a4,4,0,0,1-1.23-7.89l115.66-36.92a4,4,0,0,1,2.45,7.7l-115.65,36.92A4.09,4.09,0,0,1,2645.35,877.48Z"/><path class="cls-32" d="M2767,811.68a3.77,3.77,0,0,1-.58,0c-88.08-12.59-136.28-20.22-143.25-22.68a4,4,0,0,1,2.68-7.62c3.65,1.28,26.9,5.89,141.71,22.3a4,4,0,0,1-.56,8Z"/><path class="cls-33" d="M2739.65,958.26c-4.64,11.7,1,25.14,12.22,29.33l7.54,2.81,107-54.41,41.81-98.79a23.05,23.05,0,0,0,1.31-13.83l-164,119.94Z"/><path class="cls-33" d="M2762.32,991.48l51.76,19.28c10.12,3.76,21.26-1.33,25.66-11.73l17.94-42.4C2827,967.23,2786.23,982.45,2762.32,991.48Z"/><path class="cls-8" d="M2301.46,1423.49l142.92-6.53s73.09-90.86,102.64-72.35,80.71-14.46,80.4,18.51-41.8,118.68-91.38,127.47-163,0-163,0Z"/><path class="cls-31" d="M1483.71,1088.62c83.72,5.87,368.61,256.14,498.16,349.61,178-29,391.16-26.76,391.16-26.76s44.3,83.51,41.5,90.11-288.79,105.86-457.74,98.9-246.84-60-375.78-75.38c-84-10-124.78,24.83-171.2-23.52s-62.8-296.5-37.43-346.53S1447.79,1086.09,1483.71,1088.62Z"/><path class="cls-27" d="M1511.26,843.59c44.29-21.88,22.28-64.42,26.15-92.62s-8.45-50.8,2.13-48.89,8.2,108.26,21.54,107.57,8.38-80.26,22.47-82.47,19.6-22,8.55-56.86-2.21-65.79,27.63-38.17,96.13,91.72,134.81,82.88,36.47-48.62,33.15-53-102.77-116-102.77-116L1488.23,658.67l-5.52,102.77Z"/><path class="cls-8" d="M1546.57,722.93c2.65,26.72,3.54,67.24,5.87,73.05-17.52,7.15-40-7.21-50.09-32.07s-9.21-57.49,8.53-64.07C1521.94,695.73,1543.48,691.82,1546.57,722.93Z"/><path class="cls-27" d="M2325.09,662.92c-27.9,90.26-183.35,91.52-190.88,116.59S2124.85,902,2102.09,964c-36.35,99.11-52.67,131.84-103.27,146.89s-71.92-68.81-71.92-68.81,90.72-119.67,95.74-122.17,52.75-308.41,52.75-308.41S2196.9,589.23,2203.17,586s94,35.6,94,35.6Z"/></g><g class="cls-34"><circle class="cls-6" cx="5977.9" cy="1079.71" r="945.5" transform="translate(987.42 4543.25) rotate(-45)"/><path class="cls-35" d="M5821.61,1118.84s-33.11,30.83-74.49,10.9S5554.64,1003,5559.24,977s75.2-32.29,75.2-32.29S5853.18,1117.61,5821.61,1118.84Z"/><path class="cls-36" d="M5781.79,1114.82c28.34-4.53-64.89-78.68-95.38-109.33s-50.14-45-50.14-45-52.12,6.34-52.12,16.45,149.45,129.46,149.45,129.46S5769,1116.86,5781.79,1114.82Z"/><path class="cls-8" d="M5964.75,1248.21s-54.42-92-80.47-116.49-114-72.07-127.38-72.36c-22.83-.5,78.33,67.76,78.33,67.76s-13.79,88.9-1.53,121.09,141,75.1,141,75.1Z"/><path class="cls-37" d="M6065.91,1344.73s-88.9-133.35-108.82-124.15-73.58,124.15-73.58,124.15,156.34,162.47,156.34,131.82S6065.91,1344.73,6065.91,1344.73Z"/><path class="cls-8" d="M6311.75,630.58s92,324.94,153.27,459.82,92,386.25,79.7,827.68,73.57,429.17-55.17,484.34-588.57-36.78-649.88-177.79,41.05-715.11,193.12-925.78c150.14-208,217.65-282,217.65-331.07s-59.34-257.5-59.34-257.5Z"/><path class="cls-38" d="M5839.67,2224.63c-61.31-141,41.05-715.11,193.12-925.78,69.92-96.85,121.91-164.65,157.52-214.41C6263.1,1041,6343.48,1000.51,6420.6,977c15.43,43.48,30.69,83.22,44.42,113.42,61.31,134.88,92,386.25,79.7,827.68s73.57,429.17-55.17,484.34S5901,2365.64,5839.67,2224.63Z"/><path class="cls-38" d="M6475.24,918.74c-1.53-25.24-329,104.22-331.07,128.75s-21.36,116-48.49,165.29,455.93,324.6,438.17,190.56S6479.33,986.18,6475.24,918.74Z"/><path class="cls-12" d="M6250.16,973.26c.18-1.86.28-3.69.28-5.48,0-49-59.34-257.5-59.34-257.5l120.65-79.7s21.35,75.44,50.33,168.7C6324.61,911.22,6289.54,949.38,6250.16,973.26Z"/><path class="cls-8" d="M5973.43,789.67c25.49,115.55,105.3,197.72,197.54,175.12,67.65-16.57,171.64-111.19,138.3-249.23-27.78-115-121.35-192.62-214.09-172.16S5947.93,674.13,5973.43,789.67Z"/><path class="cls-8" d="M5868.72,1541.9c-83.71-144.57-93.07-279.6-152.38-321.77-83.43-59.33-152-192-121.75-197.22s152.53,106.83,152.53,106.83-31.83-43.56-24.23-47.2,69.22,41.09,78.77,93.92,127.92,295.67,227.21,373.45S5952.43,1686.47,5868.72,1541.9Z"/><path class="cls-37" d="M6411,1177.63c148.34,36.93,80.48,484.89-44.57,750.56s-360.07,36.16-447.95-28.92c-33.37-24.72-55.35-49.76-69.8-71.33,28.21-158.54,76.58-328.6,136.28-448.28C6125,1544,6191.56,1123,6411,1177.63Z"/><path class="cls-38" d="M6366.46,1145.48c186.54,18.69,84.39,484.34-52,672.36s-330.55,6.13-391.86-102.19-185.46-292.48-185.46-412.3c0-22.48,46-27.08,101.16-23,52,3.85,286.69,327,286.69,327S6203.36,1129.13,6366.46,1145.48Z"/><path class="cls-23" d="M5916.47,548.73c-114.06,48-45.74,199.92,14.4,205.61s129.68-105.19,165.39-109-7.21,62,24.58,77.05,61.46,40,70.72,79.48,34.66,125.37-6.83,129.13S6098.14,889.7,6070,887.83s-52.68,6.27-52.68,6.27,71.6,99,124.15,104.61,109.92-71.2,150.78-136.15,23.5-108.22,23.5-108.22,41.79,47,68.1,43.28-39.47-41.35-41.35-152.23-50.74-169.15-110.88-169.15-52.62-30.6-144.47-28.19C6004.33,450.23,5943.23,537.46,5916.47,548.73Z"/><path class="cls-8" d="M6167.26,775.3c-2.66,28.62,12,53.4,32.83,55.33s39.8-19.71,42.46-48.34-12-53.4-32.83-55.33S6169.92,746.67,6167.26,775.3Z"/></g><g class="cls-39"><circle class="cls-6" cx="7757.06" cy="2761.18" r="676.72" transform="translate(319.54 6293.8) rotate(-45)"/><path class="cls-7" d="M7650.48,2438.73c-51.57,103.14-8.88,221.89,92.55,263.85,102.1,42.24,213.74,18.25,265.32-84.88s13.27-226.8-85.55-276.21S7702.06,2335.61,7650.48,2438.73Z"/><path class="cls-7" d="M7928.43,2716.22a33.66,33.66,0,0,1-8.47-.89,6.57,6.57,0,1,1,3.59-12.63c.15,0,23.87,5.61,59.42-25.93,40.13-35.6,68.19-116.47,26.61-236.69a6.56,6.56,0,0,1,12.41-4.28c55,159-9.3,232.15-30.31,250.79C7962.89,2712.13,7940.09,2716.22,7928.43,2716.22Z"/><path class="cls-40" d="M7770.78,2840.05c-58.7,13.15-132.8,176.26-169.09,280.75-36.6,105.39-98.65,236.13-139.27,276.76s-307.56,134.79-307.56,134.79,659.55,1.28,646,0S7770.78,2840.05,7770.78,2840.05Z"/><path class="cls-41" d="M7420.63,3480c36.11-5.16,166.36,11.6,110.9-11.61s-47.71-52.88-47.71-52.88,78.67,65.78,92.85,8.26c12.23-49.59,16.91-224.67,63.34-400.16,38.35-87,88.55-174.06,130.77-183.52,0,0,1.48,61.78,3.93,148.42-16.2,191.72-43.69,473.39-50.66,544.39-87.42.13-233.74,0-356.14-.16l-81.4-3.88S7384.52,3485.11,7420.63,3480Z"/><path class="cls-40" d="M7986.58,2803.9s186.71,104.33,230.23,126.51-121.94,673.41-158.73,701.31-360.76,4.81-397.65-30.36,28.3-143.07-3.61-359.13,97.35-402.6,114-402.18,125-36.15,125-36.15Z"/><path class="cls-41" d="M8058.08,3631.72c-36.8,27.91-268.62,28.54-367.3-2.17-11.14-3.46-61.7-23.61-62.89-42.56,11.91-2.24,59.19,3.45,78.39-1,66.74-15.34,103.49-98,103.49-98s36.75-13.22,119-48,48.36-140.25,50.29-186.68,81.25-198.28,230.2-313.37l13.66,6.11C8233.52,3051.88,8092.12,3605.9,8058.08,3631.72Z"/><path class="cls-8" d="M7872,3469.64c-117.35,21.92-146.21,48.86-210.18,59.18-72.53,11.69-63.9,27.71-10,27.71s189.21,2.09,235.67-8.22S7872,3469.64,7872,3469.64Z"/><path class="cls-40" d="M8231.48,2942.64c89.94,287.57,217.45,613.89,197.14,613.89s-536.77,20.88-557.09,3.49-14.51-84.12-11.61-92.83,293.62-60.3,293.62-60.3-38.28-74.6-52.79-220.41S8214.42,2888.1,8231.48,2942.64Z"/><path class="cls-8" d="M7918.19,2554l72.46,264.76s-122.43,191.1-156.09,174.12,18.81-155.32,18.81-174.12S7800.9,2606,7800.9,2606Z"/><path class="cls-12" d="M7850.86,2832.27c1.56-6.27,2.51-11,2.51-13.5,0-18.8-52.47-212.77-52.47-212.77l117.29-52,24,87.61C7921.23,2732.13,7883.44,2792.41,7850.86,2832.27Z"/><path class="cls-8" d="M7647.09,2549.63c-13.8,76.78-4.71,178.74,63.47,204.67s150.3-23.67,183.43-110.79,4.7-178.74-63.47-204.66S7663.58,2457.91,7647.09,2549.63Z"/><ellipse class="cls-8" cx="7913.66" cy="2605.59" rx="51.58" ry="38.04" transform="translate(2805.09 9187.21) rotate(-70.41)"/><path class="cls-7" d="M7646.3,2453.18c23.21,180.16,242.1,157,242.1,157s45.14-59.35,65.45-28.22-28.17-182.66-153.78-189.39C7758.8,2390.3,7646.3,2453.18,7646.3,2453.18Z"/><ellipse class="cls-7" cx="7987.33" cy="2377.01" rx="118.56" ry="111.23"/></g><g class="cls-42"><circle class="cls-6" cx="925.69" cy="3707.43" r="848.72"/><path class="cls-35" d="M1338.19,3639.07s26.61,24.77,59.86,8.76,154.66-101.81,151-122.75-60.43-25.94-60.43-25.94S1312.83,3638.08,1338.19,3639.07Z"/><path class="cls-36" d="M1370.19,3635.84c-22.77-3.64,52.14-63.22,76.63-87.85s40.3-36.13,40.3-36.13,41.87,5.1,41.87,13.22-120.08,104-120.08,104S1380.46,3637.48,1370.19,3635.84Z"/><path class="cls-8" d="M1223.18,3743s43.72-73.89,64.66-93.6,91.63-57.9,102.35-58.13c18.34-.4-62.94,54.44-62.94,54.44s11.08,71.43,1.23,97.29-113.3,60.35-113.3,60.35Z"/><path class="cls-43" d="M1141.9,3820.57s71.43-107.14,87.44-99.75,59.11,99.75,59.11,99.75-125.62,130.55-125.62,105.92S1141.9,3820.57,1141.9,3820.57Z"/><path class="cls-8" d="M944.36,3246.75s-73.89,261.09-123.15,369.47-73.9,310.35-64,665-59.12,344.84,44.33,389.18,472.92-29.56,522.18-142.86-33-574.6-155.17-743.87c-120.64-167.11-174.88-226.61-174.88-266s47.68-206.9,47.68-206.9Z"/><path class="cls-44" d="M1323.68,4527.58c49.27-113.31-33-574.6-155.17-743.87-56.18-77.82-98-132.3-126.57-172.29-58.49-34.91-123.07-67.43-185-86.34-12.4,34.94-24.66,66.87-35.69,91.14-49.27,108.38-73.9,310.35-64,665s-59.12,344.84,44.33,389.18S1274.42,4640.88,1323.68,4527.58Z"/><path class="cls-45" d="M813,3478.28c1.23-20.27,264.37,83.75,266,103.46s17.17,93.21,39,132.81S751.63,3975.37,765.9,3867.66,809.71,3532.47,813,3478.28Z"/><path class="cls-12" d="M993.85,3522.09c-.14-1.49-.22-3-.22-4.4,0-39.41,47.68-206.9,47.68-206.9l-96.95-64s-17.15,60.61-40.44,135.55C934,3472.24,962.21,3502.91,993.85,3522.09Z"/><path class="cls-8" d="M1188.32,3374.15c-17.91,81.16-74,138.87-138.75,123-47.51-11.64-120.55-78.1-97.14-175.05,19.52-80.78,85.23-135.29,150.37-120.92S1206.23,3293,1188.32,3374.15Z"/><path class="cls-8" d="M1300.34,3979c67.26-116.16,74.78-224.67,122.44-258.55,67-47.66,122.11-154.26,97.82-158.47s-122.55,85.85-122.55,85.85,25.57-35,19.47-37.93-55.62,33-63.3,75.47-102.78,237.57-182.56,300.07S1233.08,4095.16,1300.34,3979Z"/><path class="cls-46" d="M864.59,3686.31c-119.2,29.67-64.67,389.61,35.81,603.08s289.32,29,359.93-23.25c26.81-19.85,44.48-40,56.09-57.3-22.67-127.39-61.53-264-109.5-360.2C1094.43,3980.68,1040.94,3642.41,864.59,3686.31Z"/><path class="cls-47" d="M900.4,3660.47c-149.88,15-67.81,389.17,41.79,540.25s265.6,4.92,314.86-82.11,149-235,149-331.29c0-18.06-37-21.76-81.28-18.47-41.76,3.09-230.36,262.73-230.36,262.73S1031.46,3647.33,900.4,3660.47Z"/><path class="cls-23" d="M1128.61,3122.22c156.45,10.7,136.48,253.16,136.48,253.16s-129,3.73-167.5-7.43-77.66-41.29-77.66-41.29-23.67,91.84-88.33,97l-64.66,5.13s-42.66-174.35-8.93-253C927.94,3012.79,1067.6,3094.4,1128.61,3122.22Z"/><path class="cls-8" d="M958,3357c9.26,23.83,31.18,37.55,48.95,30.64s24.66-31.82,15.4-55.65-31.17-37.55-48.95-30.65S948.69,3333.17,958,3357Z"/><path class="cls-23" d="M880.68,3329.1a4.67,4.67,0,0,0-9-1.83c-14.11,32.93-43.73,90.1-80.66,94.14-52.08,5.7-423.65,36-300,322.71,78.14,181.18,134.7,253.46,57.87,320.52-70.67,61.7-163.93,3.6-187.19-12a4.67,4.67,0,0,0-7.21,3.11c-6.55,39.92-28.29,231.13,157,228.39,206.82-3.07,305.56-190,221.3-361.5s82.68-215.39,89.51-311.74c6.57-92.81,1.65-139.7.31-150a4.6,4.6,0,0,1,1.29-3.84l55.45-56.81a4.67,4.67,0,0,0,1.33-3.27Z"/><path class="cls-23" d="M471.45,4084.29c-42.11,0-108.32-17.18-111.3-18a6.56,6.56,0,0,1,2.24-12.89c.9.08,89.87,7.69,124.64-19.72,43.93-34.61,19.39-91.2-21.26-184.94-17.17-39.6-36.63-84.48-54.5-136.38-33.88-98.38,2.51-166,39-205.39,76.61-82.7,225.88-118.29,354.92-84.61a6.56,6.56,0,1,1-3.31,12.7c-3-.79-6-1.54-9.07-2.25-164.17,2.77-270.1,40.87-314.83,113.25-39.13,63.33-31.07,153.55,24,268.17,53.7,111.85,68.12,190.53,42.84,233.84-12.56,21.51-35,33.93-64.93,35.92C477.19,4084.21,474.38,4084.29,471.45,4084.29Zm-48.28-18c19.8,3.3,40.64,5.69,55.82,4.68,25.74-1.72,44.06-11.62,54.46-29.44,15.78-27,21.07-87.42-43.33-221.55C433,3701,425.19,3606.58,466.83,3539.2c40.42-65.42,126.55-104.29,256.44-115.92-102.26-4.75-205,29.62-263.36,92.65-48.85,52.73-61.38,119.19-36.23,192.2,17.7,51.41,37.06,96,54.13,135.43,41.68,96.11,69.21,159.6,17.35,200.47C477.57,4057.89,449.25,4063.88,423.17,4066.26Z"/></g><g class="cls-48"><circle class="cls-49" cx="3884.65" cy="753.29" r="412.11"/><path class="cls-50" d="M3757.14,715.26c-1-3.06-26.63-150.09-29.69-207.26s91.89-65.35,91.89-65.35,77.59-41.86,133.74-20.42,94.38,57.52,119.9,102.44-22.46,184.93-22.46,184.93Z"/><path class="cls-17" d="M3581.11,1187.64c-.36-2.42,6.55-60.28,6.8-62.62,12.93-121.84,163.11-156.11,313-156.11,176.08,0,295.53,32.23,314.59,158.83.56,3.71,10.72,61.71,10.21,65.62C3899.35,1197.83,3581.11,1187.64,3581.11,1187.64Z"/><path class="cls-8" d="M3931.13,1063.48c-17.45,25.75-30.24,26.82-49.18,0-15-21.33-65.34-70-65.34-94.57l20.64-245.18A44.84,44.84,0,0,1,3882,679h49.18a44.84,44.84,0,0,1,44.7,44.71l9.59,245.18C3985.42,993.5,3946.77,1040.38,3931.13,1063.48Z"/><path class="cls-12" d="M3931.13,679H3882a44.84,44.84,0,0,0-44.7,44.71l-17.91,217.51c55.21,17.58,129.77-18.15,162.75-57.52l-6.26-160A44.84,44.84,0,0,0,3931.13,679Z"/><path class="cls-51" d="M3737.78,986.79l78.83,145.71s42.2-34.71,46.29-27.9-7.49,92.7-7.49,92.7,93.93,1.28,98-2.81-19.06-93.3-9.53-93.3,38.19,25.87,38.19,25.87l88-140.27-19.35-4.71-144.22,77.59-154.25-75.89Z"/><polygon class="cls-26" points="3827.94 1053.93 3886.48 1093.22 3868.34 1197.49 3947.3 1193.08 3927.58 1098.24 3976.11 1053.93 3953.31 1032.45 3850.73 1032.45 3827.94 1053.93"/><path class="cls-17" d="M3820.7,915.37l-72.42,68.91s73.78,131.21,77.86,131.21,62.61-72.34,62.61-72.34l37.47-.66,59.2,62.11,68.78-121.69-70.14-74.34s-59.9,115.71-70.79,118.43-11,4.08-19.78-2.72S3820.7,915.37,3820.7,915.37Z"/><ellipse class="cls-8" cx="3906.54" cy="681.51" rx="148.64" ry="202.54"/><path class="cls-8" d="M3773.11,678.39c13.91,29.27,9.36,60.51-10.16,69.78s-46.6-6.95-60.5-36.22-9.35-60.51,10.16-69.78S3759.21,649.11,3773.11,678.39Z"/><path class="cls-8" d="M4033.26,678.39c-13.9,29.27-9.35,60.51,10.16,69.78s46.6-6.95,60.51-36.22,9.35-60.51-10.17-69.78S4047.16,649.11,4033.26,678.39Z"/><path class="cls-17" d="M3972.48,764.61s-29.52,47.82-65.94,47.82-65.94-47.82-65.94-47.82Z"/><path class="cls-50" d="M3819.34,543.73c61.25-42.88,88.82-35.73,134.77,34.72s101.07,71.69,101.07,71.69l7.15-73S3993.9,444.7,3902,462.05,3757.9,562.11,3757.9,562.11s-4.47,155,8.34,160.3,14.3-50,23.49-61.26-9.19-64.33,3.06-88.83S3819.34,543.73,3819.34,543.73Z"/><path class="cls-50" d="M4016.39,623.37c21.38,23.42,13.27,116.39,24.5,115.37s15.31-88.82,12.25-98S4016.39,623.37,4016.39,623.37Z"/></g><g class="cls-52"><circle class="cls-49" cx="422.89" cy="2072.68" r="412.11"/><path class="cls-30" d="M96.66,2455.91c49.85-107.24,134.22-141.58,272.77-141.58,165,0,274.23,101.85,298.51,188.85C372.52,2507.23,96.66,2455.91,96.66,2455.91Z"/><path class="cls-53" d="M311.82,1792.74c-69.83,19.6-66.77,58.84-90,95.26s-73.86,60.71-79.93,85,15.58,74.87-10.12,103.19-34.39,42.5-24.28,70.82,32.38,72.85,34.4,78.92,30.35,48.56,64.75,54.63,99.15,16.19,131.53,30.35,136.46-18.13,194.24-16.11,97.13-40.54,93.08-68.87,42.61-85,42.49-133.55c-.12-52.15-60.7-91-76.89-125.45s2-95.1-58.68-131.06c-38.36-22.72-64.75-20.7-95.1-30.82S356.34,1780.24,311.82,1792.74Z"/><path class="cls-8" d="M396.8,2399.93c-15.79,23.32-27.37,24.28-44.51,0-13.63-19.3-40.47-63.17-40.47-85.43V2092.37a40.59,40.59,0,0,1,40.47-40.47H396.8a40.59,40.59,0,0,1,40.47,40.47V2314.5C437.27,2336.76,411,2379,396.8,2399.93Z"/><path class="cls-12" d="M396.8,2051.9H352.29a40.59,40.59,0,0,0-40.47,40.47v198.19c50,15.92,95.6-15.72,125.45-51.36V2092.37A40.59,40.59,0,0,0,396.8,2051.9Z"/><ellipse class="cls-8" cx="374.55" cy="2054.15" rx="134.56" ry="183.35"/><path class="cls-53" d="M437.27,1908.24c-85,143.66-210.43,129.5-210.43,129.5s3-190.2,102.68-200.32,158.34,29.88,178.57,95.87,0,109.51,0,109.51-32.37-25.3-48.56-65.76S437.27,1908.24,437.27,1908.24Z"/><path class="cls-8" d="M253.76,2051.33c12.59,26.49,8.47,54.78-9.19,63.17s-42.19-6.29-54.78-32.79-8.47-54.78,9.2-63.17S241.18,2024.83,253.76,2051.33Z"/><path class="cls-8" d="M489.26,2051.33c-12.59,26.49-8.47,54.78,9.2,63.17s42.19-6.29,54.77-32.79,8.47-54.78-9.2-63.17S501.84,2024.83,489.26,2051.33Z"/><path class="cls-17" d="M425.13,2153.59S402.48,2183,374.55,2183,324,2153.59,324,2153.59Z"/></g><g class="cls-54"><circle class="cls-49" cx="8004.28" cy="1141.52" r="439.12" transform="translate(1537.22 5994.23) rotate(-45)"/><path class="cls-55" d="M7775.75,1076.49c0,120.67,72.65,315.35,244,309.1s209.29-191.82,215.93-244.2S7775.75,1076.49,7775.75,1076.49Z"/><path class="cls-26" d="M7704.33,1546.3c56.59-121.74,152.37-160.73,309.64-160.73,187.27,0,284.51,67.84,312.07,166.61-110.18,1.51-215.07,111.06-306.26,110.22C7833.43,1660.69,7704.33,1546.3,7704.33,1546.3Z"/><path class="cls-8" d="M8045.05,1482.75c-17.93,26.46-31.08,27.56-50.53,0-15.48-21.92-45.94-71.71-45.94-97V1133.61a46.07,46.07,0,0,1,45.94-45.94h50.53a46.08,46.08,0,0,1,45.94,45.94v252.16C8091,1411,8061.13,1459,8045.05,1482.75Z"/><path class="cls-12" d="M8045.05,1087.67h-50.53a46.07,46.07,0,0,0-45.94,45.94v225c56.74,18.06,108.52-17.85,142.41-58.31V1133.61A46.08,46.08,0,0,0,8045.05,1087.67Z"/><path class="cls-8" d="M8172.53,1090.23c0,114.94-68.39,208.13-152.75,208.13S7867,1205.17,7867,1090.23s68.39-208.14,152.75-208.14S8172.53,975.28,8172.53,1090.23Z"/><path class="cls-55" d="M8103.74,932c-18.15,64-57.93,63.26-113.39,84.28s-82,42.17-100.12,83.12c-23.15,52.21,10.51,204.44,10.51,204.44s-140.44-105.09-124.2-270.36,113.69-229.29,205.4-229.29,126.58,55.89,126.58,55.89,48.86.21,95.06,54.93c62.1,73.57,43,252.22,0,316.23s-71.65,84.07-70.69,81.2,40.12-149.86,19.1-240.75S8103.74,932,8103.74,932Z"/><path class="cls-17" d="M8077.2,1203.1s-25.71,33.33-57.42,33.33-57.42-33.33-57.42-33.33Z"/></g><path class="cls-56" d="M2085.68,2199.72c-139.62,0-275.08-27.35-402.6-81.29A1037.87,1037.87,0,0,1,1132.65,1568c-53.94-127.53-81.28-263-81.28-402.61s27.34-275.08,81.28-402.61a1038,1038,0,0,1,550.43-550.42c127.52-53.94,263-81.29,402.6-81.29s275.09,27.35,402.61,81.29a1038,1038,0,0,1,550.43,550.42c53.94,127.53,81.28,263,81.28,402.61s-27.34,275.08-81.28,402.61a1037.87,1037.87,0,0,1-550.43,550.42C2360.77,2172.37,2225.31,2199.72,2085.68,2199.72Zm0-2047.09c-558.44,0-1012.77,454.33-1012.77,1012.77s454.33,1012.77,1012.77,1012.77S3098.46,1723.84,3098.46,1165.4,2644.13,152.63,2085.68,152.63Z"/><path class="cls-56" d="M5977.9,2036c-129.09,0-254.33-25.29-372.23-75.16a959.57,959.57,0,0,1-508.89-508.89c-49.87-117.9-75.16-243.14-75.16-372.23s25.29-254.33,75.16-372.23a959.57,959.57,0,0,1,508.89-508.89c117.9-49.87,243.14-75.16,372.23-75.16s254.33,25.29,372.23,75.16A959.57,959.57,0,0,1,6859,707.48c49.87,117.9,75.15,243.14,75.15,372.23S6908.89,1334,6859,1451.94a959.57,959.57,0,0,1-508.89,508.89C6232.23,2010.7,6107,2036,5977.9,2036Zm0-1891c-515.41,0-934.73,419.32-934.73,934.73s419.32,934.73,934.73,934.73,934.73-419.32,934.73-934.73S6493.31,145,5977.9,145Z"/><path class="cls-56" d="M7757.06,3448.68c-183.64,0-356.28-71.51-486.14-201.36s-201.36-302.5-201.36-486.14,71.51-356.28,201.36-486.14,302.5-201.36,486.14-201.36,356.28,71.51,486.13,201.36,201.37,302.5,201.37,486.14-71.52,356.28-201.37,486.14S7940.7,3448.68,7757.06,3448.68Zm0-1353.45c-367.21,0-666,298.74-666,665.95s298.74,666,666,666,665.95-298.74,665.95-666S8124.27,2095.23,7757.06,2095.23Z"/><path class="cls-56" d="M925.69,4566.93c-229.58,0-445.42-89.41-607.75-251.74S66.19,3937,66.19,3707.43,155.6,3262,317.94,3099.68s378.17-251.74,607.75-251.74,445.41,89.4,607.75,251.74,251.74,378.17,251.74,607.75-89.4,445.42-251.74,607.76S1155.27,4566.93,925.69,4566.93Zm0-1697.44c-462.05,0-837.95,375.9-837.95,837.94s375.9,838,838,838,837.94-375.9,837.94-838S1387.73,2869.49,925.69,2869.49Z"/><path class="cls-56" d="M3884.65,1176.17c-233.18,0-422.88-189.7-422.88-422.88s189.7-422.89,422.88-422.89,422.89,189.71,422.89,422.89S4117.84,1176.17,3884.65,1176.17Zm0-824.22c-221.29,0-401.33,180-401.33,401.34s180,401.34,401.33,401.34S4286,974.59,4286,753.29,4106,352,3884.65,352Z"/><path class="cls-56" d="M422.89,2495.56C189.71,2495.56,0,2305.86,0,2072.68s189.71-422.89,422.89-422.89,422.88,189.71,422.88,422.89S656.07,2495.56,422.89,2495.56Zm0-824.22c-221.3,0-401.34,180-401.34,401.34S201.59,2474,422.89,2474s401.33-180,401.33-401.34S644.18,1671.34,422.89,1671.34Z"/><path class="cls-56" d="M8004.28,1591.41c-248.07,0-449.89-201.81-449.89-449.89s201.82-449.89,449.89-449.89,449.89,201.82,449.89,449.89S8252.35,1591.41,8004.28,1591.41Zm0-878.23c-236.19,0-428.34,192.16-428.34,428.34s192.15,428.35,428.34,428.35,428.34-192.16,428.34-428.35S8240.47,713.18,8004.28,713.18Z"/><circle class="cls-31" cx="5490.1" cy="616.92" r="200.79" transform="translate(4083.87 5959.6) rotate(-81.67)"/><path class="cls-17" d="M5488.14,546.33s-70.12-61.84-119.75-2.42c-68.13,81.55,119.75,185.3,119.75,185.3s191.25-107.07,124.35-189.57C5561.89,477.25,5488.14,546.33,5488.14,546.33Z"/><circle class="cls-31" cx="6296.51" cy="3437.91" r="200.79" transform="translate(1442.2 8720.03) rotate(-76.05)"/><path class="cls-17" d="M6294.55,3367.32s-70.12-61.84-119.75-2.42c-68.13,81.55,119.75,185.29,119.75,185.29s191.25-107.06,124.35-189.56C6368.3,3298.24,6294.55,3367.32,6294.55,3367.32Z"/><circle class="cls-31" cx="1573.61" cy="3193.27" r="200.79" transform="translate(-1797.08 2048) rotate(-45)"/><path class="cls-17" d="M1571.66,3122.68s-70.12-61.83-119.75-2.42c-68.13,81.55,119.75,185.3,119.75,185.3S1762.91,3198.49,1696,3116C1645.41,3053.6,1571.66,3122.68,1571.66,3122.68Z"/><path class="cls-31" d="M1492.35,2642.12a119.53,119.53,0,1,1-119.53-119.53A119.53,119.53,0,0,1,1492.35,2642.12Z"/><path class="cls-17" d="M1371.66,2600.1s-41.74-36.81-71.29-1.44c-40.55,48.55,71.29,110.3,71.29,110.3s113.84-63.73,74-112.84C1415.56,2559,1371.66,2600.1,1371.66,2600.1Z"/><path class="cls-31" d="M5273.9,141.85A141.86,141.86,0,1,1,5132,0,141.86,141.86,0,0,1,5273.9,141.85Z"/><path class="cls-17" d="M5130.66,92s-49.53-43.69-84.6-1.71c-48.13,57.61,84.6,130.9,84.6,130.9s135.12-75.64,87.85-133.92C5182.77,43.19,5130.66,92,5130.66,92Z"/><path class="cls-31" d="M6722.07,2683.38a141.86,141.86,0,1,1-141.86-141.85A141.86,141.86,0,0,1,6722.07,2683.38Z"/><path class="cls-17" d="M6578.83,2633.52s-49.54-43.69-84.6-1.72c-48.13,57.62,84.6,130.91,84.6,130.91s135.11-75.64,87.85-133.92C6630.93,2584.71,6578.83,2633.52,6578.83,2633.52Z"/><circle class="cls-30" cx="3562.63" cy="878.92" r="200.79" transform="translate(421.98 2776.59) rotate(-45)"/><path class="cls-17" d="M3558.14,746.66c26-3.6,48.49,61.05,46.69,81.7s48.48-2.7,72.72,15.26,17.06,111.33,0,117.62-85.86,7.18-108-4.49-37.12-9.49-37.12-9.49L3521,849.58s13.81-4.16,29.07-17.63S3558.14,746.66,3558.14,746.66ZM3442.32,975.6c6.28,5.39,77.21,22.45,80.81-13.46s-14.37-112.23-14.37-112.23-49.35-2.49-66.44,6.24C3435.73,859.52,3436,970.22,3442.32,975.6Z"/><circle class="cls-30" cx="1774.41" cy="3933.04" r="200.79" transform="matrix(0.29, -0.96, 0.96, 0.29, -2503.42, 4496.52)"/><path class="cls-17" d="M1769.92,3800.78c26-3.59,48.48,61,46.69,81.7s48.48-2.69,72.72,15.27,17.06,111.33,0,117.62-85.86,7.18-108-4.49-37.13-9.49-37.13-9.49l-11.41-97.68s13.8-4.17,29.07-17.63S1769.92,3800.78,1769.92,3800.78Zm-115.83,228.95c6.29,5.39,77.22,22.45,80.81-13.47S1720.54,3904,1720.54,3904s-49.36-2.49-66.45,6.25C1647.51,3913.65,1647.81,4024.34,1654.09,4029.73Z"/><circle class="cls-30" cx="7236.62" cy="2363.93" r="184.06"/><path class="cls-17" d="M7232.51,2242.69c23.86-3.29,44.44,56,42.79,74.89s44.45-2.47,66.67,14,15.63,102.06,0,107.82-78.71,6.58-99-4.12-34-8.7-34-8.7L7198.45,2337s12.66-3.81,26.65-16.16S7232.51,2242.69,7232.51,2242.69Zm-106.17,209.86c5.76,4.94,70.78,20.58,74.07-12.34s-13.17-102.87-13.17-102.87-45.24-2.29-60.9,5.72C7120.3,2346.15,7120.58,2447.62,7126.34,2452.55Z"/><circle class="cls-30" cx="2980.83" cy="1710.37" r="155.87" transform="translate(-336.35 2608.72) rotate(-45)"/><path class="cls-17" d="M2977.34,1607.7c20.21-2.79,37.64,47.39,36.24,63.42S3051.22,1669,3070,1683s13.24,86.42,0,91.3-66.66,5.58-83.86-3.48-28.82-7.37-28.82-7.37l-8.86-75.82s10.72-3.23,22.57-13.69S2977.34,1607.7,2977.34,1607.7Zm-89.91,177.72c4.88,4.19,59.94,17.43,62.73-10.45s-11.15-87.12-11.15-87.12-38.31-1.93-51.58,4.85C2882.32,1695.31,2882.55,1781.24,2887.43,1785.42Z"/><circle class="cls-38" cx="728.46" cy="1866.31" r="200.79" transform="translate(-1106.32 1061.73) rotate(-45)"/><path class="cls-17" d="M632.68,1972.72C603,1795.31,738.83,1790.93,738.83,1790.93v-52.57L846.44,1846,742.76,1949.64v-60.15s-52.12,2.19-71.83,30.66S632.68,1972.72,632.68,1972.72Z"/><circle class="cls-38" cx="4029.28" cy="3908.23" r="200.79" transform="translate(-1583.38 3993.82) rotate(-45)"/><path class="cls-17" d="M3933.49,4014.64c-29.64-177.42,106.16-181.8,106.16-181.8v-52.57l107.6,107.61-103.67,103.67V3931.4s-52.12,2.19-71.83,30.67S3933.49,4014.64,3933.49,4014.64Z"/><circle class="cls-56" cx="3183.16" cy="294.92" r="53.87"/><circle class="cls-56" cx="3183.16" cy="537.33" r="53.87"/><circle class="cls-56" cx="2981.14" cy="420.24" r="53.87" transform="translate(1452.06 3013.64) rotate(-67.5)"/><path class="cls-56" d="M3183.15,548.11a10.7,10.7,0,0,1-5.4-1.46l-202-117.09a10.78,10.78,0,0,1-.28-18.48l202-125.32a10.77,10.77,0,1,1,11.35,18.31L3002.08,419.93,3188.56,528a10.78,10.78,0,0,1-5.41,20.1Z"/><circle class="cls-56" cx="8379.91" cy="1716.27" r="53.87"/><circle class="cls-56" cx="8379.91" cy="1958.69" r="53.87"/><circle class="cls-56" cx="8177.9" cy="1841.6" r="53.87"/><path class="cls-56" d="M8379.9,1969.47a10.69,10.69,0,0,1-5.39-1.46l-202-117.09a10.77,10.77,0,0,1-.27-18.48l202-125.32a10.77,10.77,0,1,1,11.36,18.31l-186.75,115.86,186.48,108.08a10.78,10.78,0,0,1-5.42,20.1Z"/><rect class="cls-24" x="7072.68" y="273.62" width="150.11" height="135.1" rx="12.08"/><rect class="cls-24" x="7345.62" y="273.62" width="150.11" height="135.1" rx="12.08"/><rect class="cls-24" x="7618.56" y="273.62" width="150.12" height="135.1" rx="12.08"/></g></g></svg>