<svg xmlns="http://www.w3.org/2000/svg" xmlns:xlink="http://www.w3.org/1999/xlink" viewBox="0 0 1219.5 1111.19"><defs><style>.cls-1{isolation:isolate;}.cls-2{fill:#b5dfea;}.cls-3{fill:#90cedd;}.cls-19,.cls-3{opacity:0.55;}.cls-4{fill:#79c9e8;}.cls-5{fill:#d7f0f9;}.cls-6{fill:#0582c1;}.cls-7{fill:#fff;}.cls-8{fill:#ffbf4d;}.cls-9{fill:#00668e;}.cls-10{fill:#05556d;}.cls-11{fill:#f98d3d;}.cls-12{fill:#ed701b;}.cls-13{fill:none;}.cls-14{fill:#efaa3a;}.cls-15{fill:#f98d2b;opacity:0.29;mix-blend-mode:multiply;}.cls-16{fill:#49b4d6;}.cls-17{fill:#ff9f50;}.cls-18{fill:#f77e2d;}.cls-19{mix-blend-mode:overlay;fill:url(#linear-gradient);}</style><linearGradient id="linear-gradient" x1="670.21" y1="1020.24" x2="670.21" y2="952.33" gradientUnits="userSpaceOnUse"><stop offset="0" stop-color="#fff"/><stop offset="0.12" stop-color="#fff" stop-opacity="0.82"/><stop offset="0.3" stop-color="#fff" stop-opacity="0.58"/><stop offset="0.47" stop-color="#fff" stop-opacity="0.37"/><stop offset="0.64" stop-color="#fff" stop-opacity="0.21"/><stop offset="0.78" stop-color="#fff" stop-opacity="0.1"/><stop offset="0.91" stop-color="#fff" stop-opacity="0.02"/><stop offset="1" stop-color="#fff" stop-opacity="0"/></linearGradient></defs><title>Asset 2</title><g class="cls-1"><g id="Layer_2" data-name="Layer 2"><g id="OBJECTS"><path class="cls-2" d="M1183.08,1111.19a35.93,35.93,0,0,0,36-35.36c1.5-97.81,9.38-242.1-174.84-282C895.12,761.53,983.5,496.61,582,513.72,293.82,526,370.39,768.93,146.3,789.16-2.81,802.62-4.09,991.2,1.63,1077.61a36,36,0,0,0,35.88,33.58Z"/><path class="cls-3" d="M1044.19,793.83C895.12,761.53,983.5,496.61,582,513.72c-68.55,2.92-116.43,18.91-152.66,41.83,12.2-1.6,25.16-2.73,39-3.32C869.81,535.11,781.42,800,930.5,832.34c182.25,39.48,176.48,181.12,174.88,278.85h77.7a35.93,35.93,0,0,0,36-35.36C1220.53,978,1228.41,833.73,1044.19,793.83Z"/><rect class="cls-4" x="405.81" width="6.34" height="462.48"/><rect class="cls-4" x="860.32" width="6.34" height="533.53"/><path class="cls-5" d="M866.05,502.43l-471.37-55A36.72,36.72,0,0,0,354,479.63L318.76,781A36.73,36.73,0,0,0,351,821.78l471.37,55a36.72,36.72,0,0,0,40.73-32.22l35.19-301.42A36.73,36.73,0,0,0,866.05,502.43Z"/><path class="cls-6" d="M894.78,573l3.49-29.83a36.73,36.73,0,0,0-32.22-40.73l-471.37-55A36.72,36.72,0,0,0,354,479.63l-3.49,29.83Z"/><path class="cls-4" d="M426.73,692,486.48,586.7a19.29,19.29,0,0,1,19-9.65h0a19.31,19.31,0,0,1,16.94,21.41L510,705l.53.06a13.37,13.37,0,0,1,11.73,14.84h0a13.36,13.36,0,0,1-14.83,11.73l-.53-.06-2.27,19.39a14.44,14.44,0,0,1-16,12.68h0a14.45,14.45,0,0,1-12.67-16l2.26-19.4-43-5a13.41,13.41,0,0,1-11.76-14.86l1.15-9.77A17.14,17.14,0,0,1,426.73,692Zm54.79,7.88,7.71-66a.42.42,0,0,0-.79-.26l-35.3,62.29a1.77,1.77,0,0,0,1.33,2.63l25.09,2.93A1.77,1.77,0,0,0,481.52,699.85Z"/><path class="cls-4" d="M690.43,722.75l59.75-105.27a19.3,19.3,0,0,1,19-9.65h0a19.3,19.3,0,0,1,16.93,21.41L773.71,735.73l.53.06A13.39,13.39,0,0,1,786,750.63h0a13.37,13.37,0,0,1-14.84,11.73l-.53-.06-2.26,19.39a14.45,14.45,0,0,1-16,12.68h0a14.45,14.45,0,0,1-12.68-16l2.27-19.4-43-5a13.39,13.39,0,0,1-11.75-14.86l1.14-9.77A17.49,17.49,0,0,1,690.43,722.75Zm54.79,7.88,7.71-66a.42.42,0,0,0-.79-.26l-35.3,62.29a1.77,1.77,0,0,0,1.33,2.63l25.09,2.93A1.77,1.77,0,0,0,745.22,730.63Z"/><path class="cls-4" d="M571.88,630c3.48-29.75,21.13-44.93,49.83-41.58s42.38,22.18,38.91,51.94l-11.29,96.7c-3.47,29.76-21.13,44.93-49.83,41.58s-42.38-22.18-38.9-51.94ZM589.6,732c-1.55,13.28,3.71,19,13,20.09s15.73-3.27,17.28-16.56l11.72-100.42c1.55-13.29-3.71-19-13-20.1s-15.74,3.28-17.29,16.56Z"/><path class="cls-7" d="M406,489.06a9.87,9.87,0,1,1-8.66-10.95A9.87,9.87,0,0,1,406,489.06Z"/><path class="cls-4" d="M453.31,494.58a9.87,9.87,0,1,1-8.65-10.95A9.87,9.87,0,0,1,453.31,494.58Z"/><path class="cls-8" d="M502.33,500.3a9.87,9.87,0,1,1-8.66-10.95A9.88,9.88,0,0,1,502.33,500.3Z"/><path class="cls-9" d="M312.7,843.63s-6.37,28.23-5.3,57.09c1,25.84-2.13,195.7-2.13,195.7H326s29.53-133,30.64-143.54,16-115.56,16-115.56Z"/><path class="cls-6" d="M326.5,835.88s4.77,36.3,12.89,62.08,48,198.46,48,198.46h20.75s-3.82-133-5.26-143.54S391,837.32,391,837.32Z"/><path class="cls-6" d="M389.1,1096.39v14.47h39.5a2.26,2.26,0,0,0,1.25-4.15c-5.77-3.84-15-9.14-23.62-10.32Z"/><path class="cls-6" d="M306.33,1096.39v14.47h39.49a2.27,2.27,0,0,0,1.26-4.15c-5.78-3.84-15-9.14-23.63-10.32Z"/><path class="cls-9" d="M377.59,667.06s13.58-20.63-2-22.64c-12-1.54-16.91,2-16.91,2s-13.78-1.52-21.33,5c-5.17,4.49-24.15,39.25,6.54,51.82S368,683.66,368,683.66Z"/><path class="cls-10" d="M375.58,644.42c-12-1.54-16.91,2-16.91,2s-13.78-1.52-21.33,5c-5.17,4.49-24.15,39.25,6.54,51.82,14.43,5.91,20.62,1.93,23.14-3.95-29.11,8.19-32.27-26.9-27.47-36.89,4.88-10.14,16.59-5.46,16.59-5.46,4.58-11.52,19.5-10.28,25.65-9.38C380.67,646,378.72,644.83,375.58,644.42Z"/><path class="cls-11" d="M358.47,677.12s-4-4-7,0-1,13.08,4,13.59c0,0-1.51,13.08-11.57,12.57v10.57h23.65V705.8s14.59-6,14.08-18.11a66.69,66.69,0,0,0-4-20.63S369.54,676.12,358.47,677.12Z"/><path class="cls-12" d="M362.09,709.18c2.34,1,1.93,2.45,2,4.67h3.4V705.8s-5.73,1.82-14.12-3C353.41,702.84,358.29,707.6,362.09,709.18Z"/><path class="cls-11" d="M366.93,657.87s-12.26-4.88-13.69-1.22c-.94,2.39,1.45,4.46,4.72,6.54l-2.89.48a.76.76,0,0,0-.36,1.33c.8.65,3,1.09,7.66,1.25Z"/><polygon class="cls-13" points="294.02 790.78 310.45 843.7 310.15 841.03 310.45 843.7 315.99 766.64 294.02 790.78"/><path class="cls-8" d="M454.45,688.56c-23.37-17.31-87.2-31.16-87.2-31.16L362,667s57.94,22.46,54.12,25.81c-2.25,2-30.57,14.94-40.15,19.31a15.21,15.21,0,0,1-6.59,1.35L340,713.29s-21.17-2.52-37.82,16.61C287.32,747,262,786.7,262,786.7l42.62,62.69,4.72,6.92,0-.08,0,.58s1.52.17,4.2.42c13.7,1.26,57.62,4.74,80.86-.19l.65-.15L394,754.06c37.12-29.38,54.83-52.06,61.17-59.2A4.3,4.3,0,0,0,454.45,688.56Zm-143,140.24-4.16-9.08L294,790.78l22-24.62-4,54Z"/><polygon class="cls-14" points="307.26 819.72 311.42 828.8 309.4 856.23 309.36 856.31 304.64 849.39 307.26 819.72"/><path class="cls-15" d="M384.05,750.36c-3.95,2.87-2.95,28.3-3.92,44.2-1.64,26.63-3.23,49.67-2.05,64.53A119.57,119.57,0,0,0,394.42,857l.65-.15L394,754.06c37.12-29.38,54.83-52.06,61.17-59.2a4.3,4.3,0,0,0-.68-6.3A523.42,523.42,0,0,1,384.05,750.36Z"/><path class="cls-9" d="M402.9,952.88c-1-7.58-6.79-64.38-9.91-95.43l-14.91,1.64s21.75,178.82,23.18,237.33h6.9S404.34,963.39,402.9,952.88Z"/><path class="cls-6" d="M307.3,680.05,302.81,672a30.43,30.43,0,1,0-5.27,7.18Z"/><path class="cls-7" d="M260.07,655h1.19v4.25c0,1.3.39,1.85,1.3,1.85.71,0,1.21-.35,1.87-1.17V655h1.17v7h-1l-.1-1.09h0a2.93,2.93,0,0,1-2.29,1.26c-1.47,0-2.13-1-2.13-2.72Z"/><path class="cls-7" d="M270.54,662.54v2.34h-1.17V655h1l.1.8h.05a3.54,3.54,0,0,1,2.21-1c1.79,0,2.74,1.39,2.74,3.54,0,2.36-1.41,3.75-3,3.75a3.25,3.25,0,0,1-1.93-.8Zm1.7-1.4c1.15,0,2-1,2-2.76,0-1.52-.52-2.55-1.83-2.55a2.9,2.9,0,0,0-1.86.94v3.64A2.76,2.76,0,0,0,272.24,661.14Z"/><path class="cls-7" d="M278.54,660.38a3.09,3.09,0,0,0,2,.83c.92,0,1.37-.48,1.37-1.08s-.82-1-1.58-1.32c-1-.35-2.07-.83-2.07-2s.88-2,2.38-2a3.47,3.47,0,0,1,2.16.79l-.56.74a2.55,2.55,0,0,0-1.58-.61c-.87,0-1.27.47-1.27,1s.75.9,1.54,1.2c1,.37,2.11.78,2.11,2.1,0,1.12-.9,2.07-2.54,2.07a4.21,4.21,0,0,1-2.59-1Z"/><path class="cls-7" d="M286.75,660.33a.9.9,0,0,1,0,1.8.9.9,0,0,1,0-1.8Z"/><path class="cls-7" d="M291.74,660.33a.9.9,0,1,1-.86.91A.86.86,0,0,1,291.74,660.33Z"/><path class="cls-4" d="M190.59,1046.08s-6.39-6-2.1-28.63,15.18-44.41,9.84-69S151.1,861.91,151,857.79,138,929.89,159.7,959.91s24.27,40.44,23.3,56.23.23,28.51,2.6,32.18Z"/><path class="cls-16" d="M186.63,1000.51c-2.52,10.11-4,35.45,0,41.52.38.57.92.24,1.59-.8-1.22-4.19-2-11.53.29-23.78,4.29-22.65,15.18-44.41,9.84-69S151.1,861.91,151,857.79c0,0,6.31,51.63,27.57,87.17C193.75,970.41,189.15,990.41,186.63,1000.51Z"/><path class="cls-4" d="M198.23,1044.51s-12.3-30.72,8.55-57.32,54.2-60.75,54.86-74.28c0,0,8.57,64.24-18.57,82.42s-46.17,21.09-41.47,49.06Z"/><path class="cls-16" d="M227.52,982.42c-30.26,22-32.73,47.4-28,59.17a3,3,0,0,0,2,1.77c-4.06-27,14.82-30.07,41.62-48,27.14-18.18,18.57-82.42,18.57-82.42S257.79,960.39,227.52,982.42Z"/><path class="cls-4" d="M178,1045.2a107.37,107.37,0,0,0,1.85-33.83c-2.1-17.56-20.44-27.44-37.59-46-8.81-9.54-11.42-60-5.95-64.7,0,0-30.27,36.68-25.6,63.53s54,44.3,58.61,57.28a72,72,0,0,1,4.19,23.86Z"/><path class="cls-16" d="M126.07,915.12c-10,27.08.25,59.89,33.47,80.26,24.46,15,16.67,46.19,16.67,46.19l4-12.3a98.22,98.22,0,0,0-.37-17.9c-2.1-17.56-20.44-27.44-37.59-46-8.5-9.2-11.23-56.46-6.5-64A159.12,159.12,0,0,0,126.07,915.12Z"/><path class="cls-16" d="M135.75,901.37l.55-.69A2.83,2.83,0,0,0,135.75,901.37Z"/><path class="cls-4" d="M204.56,1043.17s7.09-26.32,24.64-29.86,37.68-29.47,38.77-34.55C268,978.76,265,1027.65,204.56,1043.17Z"/><path class="cls-16" d="M228.19,1022c-10.75,5.37-15.21,12.6-16.8,19.16,53.82-17.3,56.58-62.41,56.58-62.41a19.37,19.37,0,0,1-2.73,5.14C260,993.15,247.18,1012.51,228.19,1022Z"/><path class="cls-8" d="M242.52,1033.48H150.77l10.9,68.52a10.71,10.71,0,0,0,10.57,9h48.82a10.71,10.71,0,0,0,10.57-9Z"/><polygon class="cls-17" points="240.72 1044.81 242.52 1033.48 150.77 1033.48 152.58 1044.81 240.72 1044.81"/><path class="cls-17" d="M220.29,1033.48,209.4,1102a10.71,10.71,0,0,1-10.57,9h22.23a10.71,10.71,0,0,0,10.57-9l10.89-68.52Z"/><rect class="cls-8" x="460.68" y="911.27" width="414.66" height="84.31"/><rect class="cls-15" x="460.68" y="911.27" width="414.66" height="20.46"/><polygon class="cls-18" points="496.73 911.27 534.58 911.27 524.43 931.74 486.57 931.74 496.73 911.27"/><polygon class="cls-18" points="582 911.27 619.85 911.27 609.7 931.74 571.86 931.74 582 911.27"/><polygon class="cls-18" points="667.27 911.27 705.11 911.27 694.97 931.74 657.12 931.74 667.27 911.27"/><polygon class="cls-18" points="752.53 911.27 790.36 911.27 780.22 931.74 742.39 931.74 752.53 911.27"/><polygon class="cls-18" points="875.34 911.27 875.34 911.84 865.46 931.74 827.66 931.74 837.8 911.27 875.34 911.27"/><rect class="cls-4" x="512.29" y="995.59" width="29.23" height="115.28"/><rect class="cls-16" x="534.89" y="995.59" width="6.64" height="115.28"/><rect class="cls-4" x="796.76" y="995.59" width="29.23" height="115.28"/><rect class="cls-16" x="817.35" y="995.59" width="8.64" height="115.28"/><rect class="cls-16" x="512.29" y="995.5" width="29.23" height="14.52"/><rect class="cls-16" x="796.76" y="995.5" width="29.23" height="14.52"/><rect class="cls-4" x="512.29" y="898.1" width="29.23" height="13.09"/><rect class="cls-16" x="534.89" y="898.1" width="6.64" height="13.09"/><rect class="cls-4" x="796.76" y="898.1" width="29.23" height="13.09"/><rect class="cls-16" x="817.35" y="898.1" width="8.64" height="13.09"/><rect class="cls-16" x="512.29" y="909.55" width="29.23" height="1.65"/><rect class="cls-16" x="796.76" y="909.55" width="29.23" height="1.65"/><polygon class="cls-6" points="534.58 911.27 492.76 995.58 460.68 995.58 460.68 983.95 496.73 911.27 534.58 911.27"/><polygon class="cls-6" points="582 911.27 540.18 995.58 578.03 995.58 619.85 911.27 582 911.27"/><polygon class="cls-6" points="705.11 911.27 663.29 995.58 625.45 995.58 667.27 911.27 705.11 911.27"/><polygon class="cls-6" points="790.36 911.27 748.56 995.58 710.71 995.58 752.53 911.27 790.36 911.27"/><polygon class="cls-6" points="837.8 911.27 795.98 995.58 833.81 995.58 875.34 911.84 837.8 911.27"/><polygon class="cls-9" points="534.58 911.27 524.43 931.74 486.57 931.74 496.73 911.27 534.58 911.27"/><polygon class="cls-9" points="619.85 911.27 609.7 931.74 571.86 931.74 582 911.27 619.85 911.27"/><polygon class="cls-9" points="705.11 911.27 694.97 931.74 657.12 931.74 667.27 911.27 705.11 911.27"/><polygon class="cls-9" points="790.36 911.27 780.22 931.74 742.39 931.74 752.53 911.27 790.36 911.27"/><polygon class="cls-9" points="875.34 911.84 865.46 931.74 827.66 931.74 837.8 911.27 875.34 911.84"/><rect class="cls-19" x="472.23" y="947.74" width="395.96" height="42.17"/><circle class="cls-8" cx="526.15" cy="879.8" r="26.06" transform="translate(-134.5 95.95) rotate(-9.24)"/><path class="cls-6" d="M538,879.8a11.81,11.81,0,1,0-11.81,11.81A11.81,11.81,0,0,0,538,879.8Z"/><circle class="cls-8" cx="811.21" cy="879.8" r="26.06" transform="translate(-130.8 141.74) rotate(-9.24)"/><path class="cls-6" d="M823,879.8a11.81,11.81,0,1,0-11.81,11.81A11.81,11.81,0,0,0,823,879.8Z"/><path class="cls-8" d="M1032.44,1101.93H900.38l20.2-49v0l8.12-19.75,2.24-5.42,3.65-8.82.74-1.79,8.13-19.76L945,993.8l14.4-35a7.64,7.64,0,0,1,14.12,0l14.4,35,1.49,3.59,8.12,19.76.75,1.79,3.65,8.82,2.23,5.42,8.13,19.75v0Z"/><polygon class="cls-15" points="909.03 1080.93 900.38 1101.93 1032.45 1101.93 1023.8 1080.93 909.03 1080.93"/><rect class="cls-4" x="889.82" y="1089.38" width="151.26" height="21.38"/><rect class="cls-16" x="1008.4" y="1089.38" width="32.68" height="21.38"/><path class="cls-15" d="M1027.24,1089.37h-18.68l-15-36.4v0l-8.13-19.76-2.23-5.42-3.65-8.81-.75-1.8-8.12-19.76-1.49-3.59-12.11-29.43,2.27-5.53a7.64,7.64,0,0,1,14.12,0l14.4,35,1.49,3.59,8.12,19.76.75,1.8,3.65,8.81,2.23,5.42,8.13,19.76v0Z"/><polygon class="cls-6" points="997.48 1017.15 935.33 1017.15 943.46 997.39 989.36 997.39 997.48 1017.15"/><polygon class="cls-6" points="1012.24 1052.93 1012.24 1052.96 920.58 1052.96 920.58 1052.93 928.7 1033.18 1004.12 1033.18 1012.24 1052.93"/><polygon class="cls-9" points="997.48 1017.15 978.8 1017.15 970.68 997.39 989.36 997.39 997.48 1017.15"/><polygon class="cls-9" points="1012.24 1052.93 1012.24 1052.96 993.56 1052.96 993.56 1052.93 985.43 1033.18 1004.12 1033.18 1012.24 1052.93"/><path class="cls-5" d="M190.63,621.75a19.85,19.85,0,0,0,19.78-16.94,39.45,39.45,0,0,0-39-44.77c-.9,0-1.78,0-2.66.09a41.86,41.86,0,0,0-83.57,3.55c0,1,.05,2,.12,3a41.87,41.87,0,0,0-62.14,33.54c0,.16,0,.33,0,.49a20,20,0,0,0,20,21Z"/><path class="cls-5" d="M1131.23,652.71c31.16,0,32.89-46.91,1.76-48.42-.85,0-1.71-.06-2.57-.06a52.12,52.12,0,0,0-15.93,2.49,53.47,53.47,0,0,0-105.77,1.69,49.43,49.43,0,0,0-33.61-3.26c-27.25,7-21.53,47.56,6.61,47.56Z"/><path class="cls-5" d="M757,421.61c31.16,0,32.88-46.89,1.76-48.4-.85,0-1.7-.06-2.56-.06a52,52,0,0,0-15.92,2.49,53.46,53.46,0,0,0-105.74,1.68,49.57,49.57,0,0,0-33.6-3.26c-27.24,7-21.53,47.55,6.6,47.55Z"/><circle class="cls-8" cx="260.9" cy="433.58" r="74.69"/><path class="cls-17" d="M261.51,358.9a74.69,74.69,0,0,1-40.95,137.15l-.62,0A74.68,74.68,0,1,0,261.51,358.9Z"/></g></g></g></svg>