<svg xmlns="http://www.w3.org/2000/svg" viewBox="0 0 233.29 233.29"><defs><style>.cls-1{fill:#4e7c4c;}.cls-1,.cls-10,.cls-11,.cls-12,.cls-13,.cls-14,.cls-15,.cls-2,.cls-3,.cls-4,.cls-5,.cls-6,.cls-7,.cls-8,.cls-9{fill-rule:evenodd;}.cls-2{fill:#e4ae7c;}.cls-3{fill:#d67f54;}.cls-4{fill:#81261c;}.cls-5{fill:#6c1a0d;}.cls-6{fill:#261d1b;}.cls-7{fill:#20201e;}.cls-8{fill:#da9077;}.cls-9{fill:#3f2716;}.cls-10{fill:#fff;}.cls-11{fill:#4e2c0b;}.cls-12{fill:#452813;}.cls-13{fill:#632421;}.cls-14{fill:#581200;}.cls-15{fill:#5e422e;}</style></defs><title>default-other_1</title><g id="Layer_2" data-name="Layer 2"><g id="OBJECTS"><path class="cls-1" d="M233.29,39.69v153.9a39.81,39.81,0,0,1-39.7,39.7H39.69A39.81,39.81,0,0,1,0,193.59V39.69A39.81,39.81,0,0,1,39.69,0h153.9A39.81,39.81,0,0,1,233.29,39.69Z"/><path class="cls-2" d="M75.61,98.1c-.18-1.9-7.94-4.14-10.53,2.07s2.07,15,10.87,15.69,6.21-.86,6.21-.86Z"/><path class="cls-2" d="M153.94,98.1c.17-1.9,7.94-4.14,10.53,2.07s-2.08,15-10.87,15.69-6.21-.86-6.21-.86Z"/><path class="cls-2" d="M114.68,219.06h-71c-.82-36.3,27.1-57.37,51.08-65.23,2-10.13,1.45-23.26,1.45-23.26h36.9s-.5,13.13,1.45,23.26c24,7.86,51.91,28.93,51.08,65.23Z"/><path class="cls-3" d="M133.13,130.57s-.1,2.6,0,6.38c-7,17.61-28.76,19.59-36.84.74.09-4.18,0-7.12,0-7.12Z"/><path class="cls-4" d="M188.09,219.06c.83-35.84-27.32-56.84-51.91-64.93-10.36,23-32.79,22.43-42.81-.06-24.63,8-52.93,29.05-52.09,65Z"/><path class="cls-5" d="M163.42,168.61c-.65-.51-1.29-1-1.95-1.49H126.34a22,22,0,0,1-2.26,1.49Zm-57.88,0a21.72,21.72,0,0,1-2.28-1.49H67.89c-.65.49-1.3,1-2,1.49Z"/><path class="cls-5" d="M177,182.64c-.36-.5-.73-1-1.11-1.48H53.5c-.38.49-.74,1-1.11,1.48Z"/><path class="cls-5" d="M184.46,196.68c-.18-.5-.37-1-.57-1.49H45.47l-.57,1.49Z"/><path class="cls-5" d="M187.74,210.71c-.05-.5-.11-1-.18-1.49H41.8c-.07.49-.13,1-.18,1.49Z"/><path class="cls-5" d="M52.1,183.06c-.51.72-1,1.45-1.48,2.2v33.8H52.1Z"/><path class="cls-5" d="M66.14,168.46c-.5.39-1,.79-1.49,1.2v49.4h1.49Z"/><path class="cls-5" d="M80.17,159.55c-.5.25-1,.51-1.49.78v58.73h1.49Z"/><path class="cls-5" d="M94.2,155.82c-.28-.57-.56-1.15-.83-1.75l-.66.22v64.77H94.2Z"/><path class="cls-5" d="M178.75,185.26c-.49-.75-1-1.48-1.49-2.2v36h1.49Z"/><path class="cls-5" d="M164.71,169.66c-.49-.41-1-.8-1.49-1.2v50.6h1.49Z"/><path class="cls-5" d="M150.68,160.33c-.5-.27-1-.53-1.49-.78v59.51h1.49Z"/><path class="cls-5" d="M136.65,154.29l-.47-.16c-.33.74-.67,1.44-1,2.13v62.8h1.49Z"/><path class="cls-6" d="M132.3,160.94c-9.88,13.77-25.37,13.49-35.07-.06l-3.57,1.39,9.44,18.27v38.52h23.16V180.54l9.45-18.27Z"/><path class="cls-2" d="M114.68,139.92C68.91,141,45.8,28.15,114.68,31,183.56,28.15,160.45,141,114.68,139.92Z"/><path class="cls-7" d="M99.3,85.44a4.1,4.1,0,1,1-5.73.92A4.09,4.09,0,0,1,99.3,85.44Z"/><path class="cls-7" d="M130.31,85.44a4.1,4.1,0,1,0,5.74.92A4.1,4.1,0,0,0,130.31,85.44Z"/><path class="cls-8" d="M94.25,100.32c2.33,1.8,2.43,4.42.22,5.87s-5.89,1.17-8.23-.63S83.8,101.14,86,99.7,91.91,98.53,94.25,100.32Z"/><path class="cls-8" d="M135.37,100.32c-2.34,1.8-2.44,4.42-.23,5.87s5.9,1.17,8.23-.63,2.44-4.42.23-5.86S137.71,98.53,135.37,100.32Z"/><path class="cls-9" d="M101.09,74.31l-.46-.19a11.89,11.89,0,0,0-5.24-.68A11.69,11.69,0,0,0,90.5,75c-.74.48-3.63,2.82-2.81,3.68.34.1,3.22-1.37,4.06-1.65a11.44,11.44,0,0,1,3.78-.51A10.07,10.07,0,0,1,99,77.2a3,3,0,0,1,.29.12c2.41,1.17,2.2,1.93,3.84.8C105.66,76.77,103.05,75.33,101.09,74.31Z"/><path class="cls-9" d="M128.27,74.31l.46-.19a11.89,11.89,0,0,1,5.24-.68A11.69,11.69,0,0,1,138.86,75c.74.48,3.63,2.82,2.81,3.68-.34.1-3.21-1.37-4.06-1.65a11.44,11.44,0,0,0-3.78-.51,10.12,10.12,0,0,0-3.46.71,3,3,0,0,0-.29.12c-2.41,1.17-2.19,1.93-3.84.8C123.7,76.77,126.31,75.33,128.27,74.31Z"/><path class="cls-10" d="M102.81,109.9q6.33-.08,12.62-.08t12.63.08c0,6.62-6.53,9-12.61,9h0C109.33,118.88,102.81,116.52,102.81,109.9Z"/><path class="cls-3" d="M112.53,122.83a.5.5,0,0,1-.18-.68A.51.51,0,0,1,113,122a4.85,4.85,0,0,0,2.42.6,4.65,4.65,0,0,0,2.38-.59.49.49,0,1,1,.51.84,5.61,5.61,0,0,1-2.89.75A5.89,5.89,0,0,1,112.53,122.83Z"/><path class="cls-3" d="M114.31,100.82a.5.5,0,1,1,0-1,25,25,0,0,0,3.71-.2c.9-.15,1.57-.4,1.57-.81,0-1.43-1.45-10.3-1.45-10.33a.5.5,0,0,1,.41-.57.51.51,0,0,1,.57.42s1.46,9,1.46,10.48c0,1-1,1.55-2.4,1.79A24.84,24.84,0,0,1,114.31,100.82Z"/><path class="cls-3" d="M161.65,105.07a.5.5,0,0,1-1,0,4.79,4.79,0,0,0-.68-3,1.15,1.15,0,0,0-.92-.46,2.74,2.74,0,0,0-1.36.41,8.89,8.89,0,0,0-3.39,4,18.75,18.75,0,0,0-.85,2.3,3.52,3.52,0,0,1,2.31-.67,2.09,2.09,0,0,1,1.07.39,1.72,1.72,0,0,1,.67.93,3.27,3.27,0,0,1-.68,2.69.51.51,0,0,1-.69.13.49.49,0,0,1-.14-.68,2.38,2.38,0,0,0,.56-1.86.78.78,0,0,0-.3-.41,1.15,1.15,0,0,0-.58-.2,2.69,2.69,0,0,0-2.12.89,1,1,0,0,1-.5.31.54.54,0,0,1-.72-.48v0a2,2,0,0,1,0-.58,15.64,15.64,0,0,1,1.05-3.14,10,10,0,0,1,3.81-4.47,3.62,3.62,0,0,1,1.86-.54,2.15,2.15,0,0,1,1.68.82A5.75,5.75,0,0,1,161.65,105.07Z"/><path class="cls-3" d="M68.7,105.07a.5.5,0,0,1-1,0,5.68,5.68,0,0,1,.91-3.6,2.12,2.12,0,0,1,1.67-.82,3.62,3.62,0,0,1,1.86.54A10,10,0,0,1,76,105.66,15,15,0,0,1,77,108.8a1.66,1.66,0,0,1,0,.58v0a.54.54,0,0,1-.72.48,1,1,0,0,1-.5-.31,2.69,2.69,0,0,0-2.12-.89,1.15,1.15,0,0,0-.58.2.78.78,0,0,0-.3.41,2.38,2.38,0,0,0,.56,1.86.49.49,0,0,1-.14.68.49.49,0,0,1-.68-.13,3.28,3.28,0,0,1-.69-2.69,1.72,1.72,0,0,1,.67-.93,2.13,2.13,0,0,1,1.07-.39,3.52,3.52,0,0,1,2.31.67,18.75,18.75,0,0,0-.85-2.3,8.89,8.89,0,0,0-3.39-4,2.74,2.74,0,0,0-1.35-.41,1.17,1.17,0,0,0-.93.46A4.79,4.79,0,0,0,68.7,105.07Z"/><path class="cls-11" d="M115,49.9c0,22,15.84,17.81,25.36,23,7.15,3.88,6.11,4.33,8.08,12.26,1.81,7.27,2.46,18.68,3.41,22.59,14.37-35.58,20.36-52.21.88-67.86C141.11,30.52,132.81,12,115,26.76,91.15,14.59,89,30.59,77.29,39.87c-16,12.74-17.45,25.45-12.92,38.8,2,5.76,13.51,28.12,14.6,31.36,1.47-14.86.52-27.83,5.19-32.92,4.3-4.67,13.46-5.32,18.37-8.4C111.22,63.27,115,56.34,115,49.9Z"/><path class="cls-12" d="M151.35,104.77v0h0l0,.22v0h0v0l0,.16v.37h0l0,.23h0l0,.24h0l0,.22S151.61,106.44,151.35,104.77Zm0,0c-.72-5.13-1.43-13.74-2.89-19.63-2-7.93-.93-8.38-8.08-12.26-9.52-5.17-25.36-.95-25.36-23,0,6.44-3.8,13.37-12.49,18.81-4.91,3.08-14.07,3.73-18.37,8.4C79.49,82.2,80.44,95.17,79,110c-1.09-3.24-12.64-25.6-14.6-31.36a35.59,35.59,0,0,1-2.09-15.16c2.18,1.65,7.38,2.63,9.71,3.1,5,1,10.43-.31,15.63-2.44,11.55-4.72,20.48-7.09,24.15-17.07s3.68-10.5,3.68-10.5.79,18.91,21.27,24.16c8.4,2.15,15.26,3.78,20.31,3.8a49.32,49.32,0,0,0,8.1-1.9c3.08,16-5.18,25.06-13.17,44.85l-.09.22c0-.12-.05-.24-.08-.37v0l0-.18h0c0-.07,0-.13,0-.21h0l0-.21v0h0Z"/><path class="cls-13" d="M95.9,144l7.2,36.53c-1.56-2.32-5.79-7.79-9.77-7.79-2.53,0-12.11,5.18-12,4.61C83.75,157.09,88.91,148.74,95.9,144Z"/><path class="cls-13" d="M133.28,144l-7.2,36.53c1.56-2.32,5.78-7.79,9.76-7.79,2.54,0,12.12,5.18,12,4.61C145.43,157.09,140.27,148.74,133.28,144Z"/><path class="cls-14" d="M62.92,198.52a.74.74,0,0,1,.74-.74.75.75,0,0,1,.74.75l-.18,20.54a.75.75,0,0,1-1.49,0Z"/><path class="cls-14" d="M165.14,198.52a.75.75,0,0,1,1.49,0l-.19,20.54a.72.72,0,0,1-.74.73.74.74,0,0,1-.74-.74Z"/><path class="cls-15" d="M108.13,38.53a.51.51,0,0,1,.58-.39.5.5,0,0,1,.4.58A29.52,29.52,0,0,1,104,51c-2.88,3.85-7.23,7.19-13.9,9.33C76.87,64.61,72,63.54,72,63.53a.49.49,0,1,1,.2-1s4.6,1,17.61-3.14c6.45-2.07,10.64-5.29,13.4-9A28.45,28.45,0,0,0,108.13,38.53Z"/><path class="cls-15" d="M71,58.41A.5.5,0,0,1,70.1,58a21,21,0,0,1,6.6-7.35,49.78,49.78,0,0,1,9.8-5.36c3.82-1.62,5.61-5.36,7.22-8.74,1.32-2.76,2.54-5.3,4.69-6.47,4.85-2.63,12.43,2.37,12.45,2.39a.48.48,0,0,1,.14.68.48.48,0,0,1-.68.14s-7.11-4.69-11.44-2.34c-1.87,1-3,3.42-4.27,6-1.69,3.54-3.56,7.45-7.72,9.22a48.5,48.5,0,0,0-9.6,5.25A20,20,0,0,0,71,58.41Z"/><path class="cls-15" d="M120.74,38.72a.49.49,0,0,1,.39-.58.5.5,0,0,1,.58.39,28.58,28.58,0,0,0,4.9,11.91c2.77,3.7,7,6.92,13.41,9,13,4.16,17.6,3.14,17.61,3.14a.48.48,0,0,1,.58.38.49.49,0,0,1-.38.58s-4.86,1.08-18.11-3.16c-6.68-2.14-11-5.48-13.9-9.33A29.52,29.52,0,0,1,120.74,38.72Z"/><path class="cls-15" d="M159.75,58a.49.49,0,0,1-.23.66.48.48,0,0,1-.66-.22,20,20,0,0,0-6.3-7,48.78,48.78,0,0,0-9.6-5.25c-4.16-1.77-6-5.68-7.73-9.22-1.25-2.61-2.39-5-4.26-6-4.33-2.35-11.42,2.33-11.44,2.34a.49.49,0,1,1-.55-.82s7.6-5,12.46-2.39c2.15,1.17,3.36,3.71,4.68,6.47,1.62,3.38,3.41,7.12,7.23,8.74a50.06,50.06,0,0,1,9.8,5.36A21,21,0,0,1,159.75,58Z"/></g></g></svg>