<svg xmlns="http://www.w3.org/2000/svg" viewBox="0 0 247.77 247.77"><defs><style>.cls-1{fill:#f0ca0c;}.cls-1,.cls-10,.cls-11,.cls-12,.cls-13,.cls-14,.cls-2,.cls-3,.cls-4,.cls-5,.cls-6,.cls-7,.cls-8,.cls-9{fill-rule:evenodd;}.cls-2{fill:#4b2e1b;}.cls-3{fill:#e3a64a;}.cls-4{fill:#e4ae7c;}.cls-5{fill:#d67f54;}.cls-6{fill:#88342a;}.cls-7{fill:#d17b65;}.cls-8{fill:#cf806b;}.cls-9{fill:#ebebeb;}.cls-10{fill:#cb516b;}.cls-11{fill:#e8b649;}.cls-12{fill:#593720;}.cls-13{fill:#3f2716;}.cls-14{fill:#be3c54;}</style></defs><title>default-female</title><g id="Layer_2" data-name="Layer 2"><g id="OBJECTS"><path class="cls-1" d="M123.89,247.77c68.23,0,123.88-55.65,123.88-123.88S192.12,0,123.89,0,0,55.65,0,123.89,55.65,247.77,123.89,247.77Z"/><path class="cls-2" d="M123.89,146.08s-8.25,5.19-18.69-2c-2.34,4.92-11.52,4.46-13.79-1.42-4.42,4.42-17.63-1.41-13-11.7-7.45,3.12-20.26-9.53-10.41-20.22C53.87,108,52,90.8,62.2,81.87A13.71,13.71,0,0,1,71,61.2a21,21,0,0,1,4.08-11.35c2.53-3.09,6.07-4.29,10.66-6.43C91.3,40.83,92.39,34,97.45,28.83c3.14-3.22,8.63-8,14.91-8,5.17,0,10,2.38,11.53,5.85,1.51-3.47,6.36-5.86,11.52-5.85,6.28,0,11.77,4.76,14.91,8,5.06,5.18,6.15,12,11.72,14.59,4.6,2.14,8.14,3.34,10.66,6.43a20.93,20.93,0,0,1,4.08,11.35,13.72,13.72,0,0,1,8.8,20.67c10.21,8.93,8.33,26.09-5.86,28.92,9.86,10.69-3,23.34-10.41,20.22,4.68,10.29-8.53,16.12-12.95,11.7-2.27,5.88-11.45,6.34-13.78,1.42C132.13,151.27,123.89,146.08,123.89,146.08Z"/><path class="cls-3" d="M124,47.57c7.2,0,13.06-5,13.06-11.07S131.24,25.42,124,25.42,111,30.39,111,36.5,116.85,47.57,124,47.57Z"/><path class="cls-4" d="M138.81,144.67l-.49-16h-29l-1.07,16c-.47,7.06-15.65,9.45-21.58,13.06-17.64,10.71-33,29-32.37,55.77H193.44c.57-25.33-13.14-43.09-29.58-54C155.87,154.18,139,150.34,138.81,144.67Z"/><path class="cls-5" d="M108.47,141.87c8.94,8.2,21.21,8.43,30.27.51l-.42-13.7h-29Z"/><path class="cls-4" d="M123.15,141c-42.21,1.37-63.52-110.1,0-107.16h1.47c63.52-2.94,42.21,108.53,0,107.16-.25,0-.49,0-.73,0S123.4,141.05,123.15,141Z"/><path class="cls-4" d="M85.51,94.4c-.17-1.86-7.78-4.06-10.31,2s2,14.7,10.65,15.38,6.08-.84,6.08-.84Z"/><path class="cls-4" d="M162.26,94.4c.17-1.86,7.78-4.06,10.31,2s-2,14.7-10.64,15.38-6.09-.84-6.09-.84Z"/><path class="cls-6" d="M112.32,118.21c7.73-.1,15.4-.1,23.13,0C129.72,129.32,118.05,129.32,112.32,118.21Z"/><path class="cls-7" d="M129.86,124.7a10.63,10.63,0,0,1-12,0A10.63,10.63,0,0,1,129.86,124.7Z"/><path class="cls-8" d="M106.21,106.53c2.34,1.79,2.44,4.42.23,5.86s-5.9,1.17-8.23-.63-2.44-4.42-.23-5.86S103.88,104.73,106.21,106.53Z"/><path class="cls-8" d="M141.56,106.53c-2.34,1.79-2.44,4.42-.23,5.86s5.9,1.17,8.23-.63,2.44-4.42.23-5.86S143.9,104.73,141.56,106.53Z"/><path class="cls-5" d="M78.75,100.86a.5.5,0,0,1-1,0,5.71,5.71,0,0,1,.9-3.6,2.13,2.13,0,0,1,1.67-.82,3.79,3.79,0,0,1,1.86.54A10,10,0,0,1,86,101.45a15.79,15.79,0,0,1,1.06,3.14,1.9,1.9,0,0,1,0,.58v0a.53.53,0,0,1-.71.48,1,1,0,0,1-.51-.31,2.67,2.67,0,0,0-2.11-.89,1.18,1.18,0,0,0-.59.2.75.75,0,0,0-.29.42,2.35,2.35,0,0,0,.55,1.85.49.49,0,0,1-.13.68.49.49,0,0,1-.69-.13,3.23,3.23,0,0,1-.68-2.69,1.71,1.71,0,0,1,.66-.93,2.16,2.16,0,0,1,1.07-.39,3.52,3.52,0,0,1,2.31.67,17.06,17.06,0,0,0-.84-2.3,9,9,0,0,0-3.4-4,2.71,2.71,0,0,0-1.35-.41,1.18,1.18,0,0,0-.92.46A4.79,4.79,0,0,0,78.75,100.86Z"/><path class="cls-2" d="M111.91,83.48l-.41-.19a9.23,9.23,0,0,0-4.62-.68,9.44,9.44,0,0,0-4.31,1.53c-.65.48-3.2,2.82-2.48,3.68.3.09,2.83-1.38,3.58-1.65a9,9,0,0,1,3.33-.51,8.19,8.19,0,0,1,3,.7l.26.13c2.13,1.17,1.93,1.92,3.39.8C115.93,85.94,113.63,84.49,111.91,83.48Z"/><path class="cls-2" d="M135.86,83.48l.41-.19a9.25,9.25,0,0,1,4.62-.68,9.44,9.44,0,0,1,4.31,1.53c.66.48,3.2,2.82,2.48,3.68-.29.09-2.83-1.38-3.58-1.65a9,9,0,0,0-3.33-.51,8.23,8.23,0,0,0-3.05.7l-.25.13c-2.13,1.17-1.94,1.92-3.39.8C131.84,85.94,134.14,84.49,135.86,83.48Z"/><path class="cls-5" d="M123.22,113.17a.5.5,0,1,1,0-1,20.38,20.38,0,0,0,3.7-.23c.91-.18,1.58-.48,1.58-1,0-1.65-1.45-11.9-1.45-11.93a.48.48,0,0,1,.42-.55.5.5,0,0,1,.56.42s1.46,10.35,1.46,12.06c0,1.15-1,1.72-2.38,2A21,21,0,0,1,123.22,113.17Z"/><path class="cls-5" d="M169.8,100.86a.5.5,0,0,1-1,0,4.79,4.79,0,0,0-.68-3,1.18,1.18,0,0,0-.92-.46,2.71,2.71,0,0,0-1.35.41,9,9,0,0,0-3.4,4,18.75,18.75,0,0,0-.85,2.3,3.56,3.56,0,0,1,2.32-.67,2.16,2.16,0,0,1,1.07.39,1.76,1.76,0,0,1,.66.93,3.23,3.23,0,0,1-.68,2.69.49.49,0,0,1-.82-.55,2.35,2.35,0,0,0,.55-1.85.75.75,0,0,0-.29-.42,1.22,1.22,0,0,0-.59-.2,2.71,2.71,0,0,0-2.12.89,1,1,0,0,1-.5.31.54.54,0,0,1-.72-.48v0a1.9,1.9,0,0,1,0-.58,15.64,15.64,0,0,1,1.05-3.14A10,10,0,0,1,165.37,97a3.79,3.79,0,0,1,1.86-.54,2.13,2.13,0,0,1,1.67.82A5.71,5.71,0,0,1,169.8,100.86Z"/><path class="cls-5" d="M121,131a.5.5,0,0,1-.17-.68.48.48,0,0,1,.67-.18,4.92,4.92,0,0,0,2.43.6,4.71,4.71,0,0,0,2.37-.59.5.5,0,0,1,.68.16.49.49,0,0,1-.17.68,5.57,5.57,0,0,1-2.88.75A5.91,5.91,0,0,1,121,131Z"/><path class="cls-9" d="M120.36,121.5q6.47,0,12.94,0a19.56,19.56,0,0,0,2.15-3.34c-4,0-8.06-.08-12.09-.07q-5.51,0-11,.07a20.19,20.19,0,0,0,2.15,3.34Z"/><path class="cls-9" d="M124.27,177.68a151.52,151.52,0,0,1-51-9.7,60,60,0,0,0-18,33.06l19.86,12.45h98.3l19-12.85a60,60,0,0,0-17.74-32.46A151,151,0,0,1,124.27,177.68Z"/><path class="cls-7" d="M85.39,112.91a1.84,1.84,0,1,0-1.77-1.84A1.81,1.81,0,0,0,85.39,112.91Z"/><path class="cls-7" d="M162.38,112.91a1.84,1.84,0,1,0-1.76-1.84A1.81,1.81,0,0,0,162.38,112.91Z"/><path class="cls-2" d="M74,85.72c5.47,3.17,13.87,2,13.87,2L124,47.28,160.18,87.7s8.4,1.19,13.86-2a119.66,119.66,0,0,0-4.83-20.8c-7-21.72-27.27-32.75-44.33-33.1a47.31,47.31,0,0,0-45.37,33.1A182.15,182.15,0,0,0,74,85.72Z"/><path class="cls-10" d="M193.44,213.49H54.33c-.6-26.75,14.73-45.06,32.37-55.77,2.56-1.55,6.83-2.88,10.91-4.46l26.28,51.58L150.28,153c4.79,2.05,10.06,4.11,13.58,6.45C180.3,170.4,194,188.16,193.44,213.49Z"/><path class="cls-11" d="M85,109c1.51,0,2.79,1.22,3.66,3.21a19.06,19.06,0,0,1,0,13.42c-.87,2-2.15,3.21-3.66,3.21s-2.79-1.23-3.66-3.21a19.06,19.06,0,0,1,0-13.42c.87-2,2.16-3.21,3.66-3.21Zm1.84,4c-.54-1.25-1.2-2-1.84-2s-1.3.77-1.84,2a17.19,17.19,0,0,0,0,11.83c.54,1.25,1.2,2,1.84,2s1.3-.77,1.84-2a17.19,17.19,0,0,0,0-11.83Z"/><path class="cls-11" d="M162.75,109c1.51,0,2.79,1.22,3.66,3.21a19.06,19.06,0,0,1,0,13.42c-.87,2-2.15,3.21-3.66,3.21s-2.79-1.23-3.65-3.21a18.92,18.92,0,0,1,0-13.42c.86-2,2.15-3.21,3.65-3.21Zm1.84,4c-.54-1.25-1.2-2-1.84-2s-1.3.77-1.84,2a17.19,17.19,0,0,0,0,11.83c.54,1.25,1.2,2,1.84,2s1.3-.77,1.84-2a17,17,0,0,0,0-11.83Z"/><path class="cls-12" d="M118.46,64.92a12.94,12.94,0,0,1-7.15,3.72c-4.63.8-6.75,5.49-6.28,10.66s-.16,6.86-3.3,8.4-7.47,3.39-5.58,9.21,2.51,16.55-6.29,19-12.73-7.76-12.73-7.76,4.4,2.83,7.39.57,1.57-8.64-4.72-14.06-3-12.92,2.21-15.5S87.5,73,86.56,64.92s.32-13.25,9.27-15,8.33-16,18.86-16.16S130.72,54.26,118.46,64.92Z"/><path class="cls-12" d="M129.31,64.92a12.94,12.94,0,0,0,7.15,3.72c4.64.8,6.76,5.49,6.29,10.66s.15,6.86,3.3,8.4,7.46,3.39,5.57,9.21-2.51,16.55,6.29,19,12.73-7.76,12.73-7.76-4.4,2.83-7.39.57-1.57-8.64,4.72-14.06,3-12.92-2.2-15.5-5.5-6.14-4.56-14.22-.31-13.25-9.27-15-8.33-16-18.86-16.16S117.05,54.26,129.31,64.92Z"/><path class="cls-13" d="M110.56,93.29a3.82,3.82,0,1,1-5.34.86A3.81,3.81,0,0,1,110.56,93.29Z"/><path class="cls-13" d="M137.74,93.29a3.82,3.82,0,1,0,5.34.86A3.8,3.8,0,0,0,137.74,93.29Z"/><path class="cls-14" d="M76.15,193a.75.75,0,1,1,1.49,0l-.17,20.54a.75.75,0,0,1-.75.74.74.74,0,0,1-.73-.75Z"/><path class="cls-14" d="M170.3,193a.75.75,0,0,1,1.49,0l-.17,20.54a.75.75,0,0,1-.75.74.74.74,0,0,1-.73-.75Z"/></g></g></svg>