<svg xmlns="http://www.w3.org/2000/svg" viewBox="0 0 222.15 222.15"><defs><style>.cls-1{fill:#9976ae;}.cls-1,.cls-10,.cls-11,.cls-12,.cls-13,.cls-14,.cls-2,.cls-3,.cls-4,.cls-5,.cls-6,.cls-7,.cls-8,.cls-9{fill-rule:evenodd;}.cls-2{fill:#e4ae7c;}.cls-3{fill:#d0ced2;}.cls-4{fill:#d67f54;}.cls-5{fill:#20201e;}.cls-6{fill:#da9077;}.cls-7{fill:#3f2716;}.cls-8{fill:#4e2c0b;}.cls-9{fill:#623a1c;}.cls-10{fill:#232221;}.cls-11{fill:#29273f;}.cls-12{fill:#413962;}.cls-13{fill:#141632;}.cls-14{fill:#3d3d3c;}</style></defs><title>default-male</title><g id="Layer_2" data-name="Layer 2"><g id="OBJECTS"><path class="cls-1" d="M222.15,37.8V184.35a37.91,37.91,0,0,1-37.8,37.8H37.8A37.91,37.91,0,0,1,0,184.35V37.8A37.91,37.91,0,0,1,37.8,0H184.35A37.91,37.91,0,0,1,222.15,37.8Z"/><path class="cls-2" d="M111.34,218.18h-71c-.82-36.3,27.1-57.37,51.08-65.24,2-10.12,1.45-23.26,1.45-23.26h36.9s-.5,13.14,1.45,23.26c24,7.87,51.91,28.94,51.08,65.24Z"/><path class="cls-3" d="M129,160.06c-9.88,13.76-25.37,13.48-35.07-.07l-3.58,1.4L83,179.65v38.53h57.83V179.65l-8.41-18.26Z"/><path class="cls-2" d="M72.27,100.57c-.18-1.9-7.94-4.14-10.53,2.07s2.07,15,10.87,15.7,6.21-.86,6.21-.86Z"/><path class="cls-2" d="M150.6,100.57c.17-1.9,7.94-4.14,10.52,2.07s-2.07,15-10.86,15.7-6.21-.86-6.21-.86Z"/><path class="cls-4" d="M130,142.71c-8,15.27-28.56,16.87-37.4.58.24-3.33.31-6.46.32-8.88h36.8C129.75,136.69,129.82,139.6,130,142.71Z"/><path class="cls-2" d="M111.34,142.4c-45.77,1.1-68.88-111.78,0-108.89C180.22,30.62,157.11,143.5,111.34,142.4Z"/><path class="cls-5" d="M96,90a4.1,4.1,0,1,1-5.73.93A4.1,4.1,0,0,1,96,90Z"/><path class="cls-5" d="M127,90a4.11,4.11,0,1,0,5.74.93A4.11,4.11,0,0,0,127,90Z"/><path class="cls-6" d="M90.91,104.89c2.33,1.79,2.43,4.42.22,5.86s-5.89,1.17-8.23-.62-2.44-4.42-.23-5.87S88.57,103.09,90.91,104.89Z"/><path class="cls-6" d="M132,104.89c-2.34,1.79-2.44,4.42-.23,5.86s5.9,1.17,8.23-.62,2.44-4.42.23-5.87S134.37,103.09,132,104.89Z"/><path class="cls-7" d="M97.75,78.87l-.46-.19A11.89,11.89,0,0,0,92.05,78a11.56,11.56,0,0,0-4.89,1.54c-.74.47-3.63,2.81-2.81,3.68.34.09,3.22-1.38,4.06-1.66a11.71,11.71,0,0,1,3.78-.51,10.12,10.12,0,0,1,3.46.71l.29.12c2.41,1.18,2.2,1.93,3.84.8C102.32,81.33,99.71,79.89,97.75,78.87Z"/><path class="cls-7" d="M124.93,78.87l.46-.19a11.89,11.89,0,0,1,5.24-.68,11.56,11.56,0,0,1,4.89,1.54c.74.47,3.63,2.81,2.81,3.68-.34.09-3.21-1.38-4.06-1.66a11.71,11.71,0,0,0-3.78-.51,10.12,10.12,0,0,0-3.46.71l-.29.12c-2.41,1.18-2.2,1.93-3.84.8C120.36,81.33,123,79.89,124.93,78.87Z"/><path class="cls-8" d="M123.26,115.8a.48.48,0,0,1,.67-.18.51.51,0,0,1,.19.68,9.47,9.47,0,0,1-4.61,3.82,19.2,19.2,0,0,1-7.4,1.36h0a19,19,0,0,1-7.36-1.33,9.51,9.51,0,0,1-4.64-3.84.5.5,0,1,1,.86-.5,8.5,8.5,0,0,0,4.17,3.43,18,18,0,0,0,7,1.26h0a18.24,18.24,0,0,0,7-1.27A8.45,8.45,0,0,0,123.26,115.8Z"/><path class="cls-4" d="M109.19,127.39a.49.49,0,0,1-.18-.68.5.5,0,0,1,.68-.17,4.85,4.85,0,0,0,2.42.6,4.65,4.65,0,0,0,2.38-.6.5.5,0,0,1,.51.85,5.7,5.7,0,0,1-2.89.74A5.89,5.89,0,0,1,109.19,127.39Z"/><path class="cls-4" d="M111,109.43a.5.5,0,1,1,0-1,23.68,23.68,0,0,0,3.71-.2c.9-.15,1.57-.4,1.57-.81,0-1.43-1.45-10.3-1.45-10.33a.48.48,0,0,1,.41-.56.49.49,0,0,1,.56.41s1.47,9,1.47,10.48c0,1-1,1.55-2.4,1.79A24.84,24.84,0,0,1,111,109.43Z"/><path class="cls-4" d="M158.31,107.54a.5.5,0,1,1-1,0,4.81,4.81,0,0,0-.68-3,1.2,1.2,0,0,0-.93-.46,2.66,2.66,0,0,0-1.35.42,8.87,8.87,0,0,0-3.39,4,18.84,18.84,0,0,0-.85,2.31,3.41,3.41,0,0,1,2.31-.67,2.22,2.22,0,0,1,1.07.38,1.75,1.75,0,0,1,.67.94,3.26,3.26,0,0,1-.69,2.68.49.49,0,0,1-.68.14.5.5,0,0,1-.14-.69,2.35,2.35,0,0,0,.56-1.85.76.76,0,0,0-.3-.42,1.15,1.15,0,0,0-.58-.2,2.73,2.73,0,0,0-2.12.89,1.16,1.16,0,0,1-.5.32.55.55,0,0,1-.72-.48v0a1.67,1.67,0,0,1,0-.58,15.16,15.16,0,0,1,1.05-3.13,10,10,0,0,1,3.81-4.47,3.73,3.73,0,0,1,1.86-.55,2.13,2.13,0,0,1,1.67.83A5.65,5.65,0,0,1,158.31,107.54Z"/><path class="cls-4" d="M65.36,107.54a.5.5,0,1,1-1,0,5.65,5.65,0,0,1,.91-3.59,2.13,2.13,0,0,1,1.67-.83,3.73,3.73,0,0,1,1.86.55,10,10,0,0,1,3.81,4.47,15.16,15.16,0,0,1,1,3.13,1.67,1.67,0,0,1,0,.58v0a.55.55,0,0,1-.72.48,1.16,1.16,0,0,1-.5-.32,2.73,2.73,0,0,0-2.12-.89,1.15,1.15,0,0,0-.58.2.76.76,0,0,0-.3.42,2.35,2.35,0,0,0,.56,1.85.5.5,0,0,1-.14.69.49.49,0,0,1-.68-.14,3.23,3.23,0,0,1-.69-2.68,1.75,1.75,0,0,1,.67-.94,2.22,2.22,0,0,1,1.07-.38,3.41,3.41,0,0,1,2.31.67,18.84,18.84,0,0,0-.85-2.31,8.87,8.87,0,0,0-3.39-4,2.66,2.66,0,0,0-1.35-.42,1.19,1.19,0,0,0-.93.46A4.81,4.81,0,0,0,65.36,107.54Z"/><path class="cls-9" d="M68.33,97.07c-5-34.46,1.18-69.36,43-69.36s48,34.9,43,69.36c-3.29,10-4.09-9.07-4.09-11.25,0-6.07-5.41-4.85-5.63-18.43-.24-15.35-66.34-15.32-66.58,0C77.83,81,72.42,79.75,72.42,85.82,72.42,87.62,71.26,107.92,68.33,97.07Z"/><path class="cls-10" d="M102.3,59.23c-2.19,7-17.1,8.31-19.81,3.86-1.26,3.83-11.51,5.17-13,3-3.07,4-7.46.85-4.61-2.94a10.27,10.27,0,0,1,0-14.71c-2.11-9.85,6.66-17.17,11.58-14.7C76.15,20.31,91.25,20.9,94.12,26,106.21,7.23,128,13.88,127.8,26c7.15-4.44,20.13-3.92,17.65,7.73,8.53-.62,17.3,2.45,11.58,14.7,4.57,4.92,5.72,11.38-.05,14.71,2.64,3.63-1.38,6.72-4.56,2.94-1.49,2.19-11.72.84-13-3-2.7,4.44-17.18,4.51-19.81-3.86C116.92,65.72,105,65.72,102.3,59.23Z"/><path class="cls-11" d="M99.58,218.18c0-12,.09-32.89,0-37.74-.07-2.63-7.51-6.41-8.83-10.59-1.91-6,2.47-13.59,1.14-19.2-.12.78-.25,1.54-.4,2.29-24,7.87-51.9,28.94-51.08,65.24Z"/><path class="cls-12" d="M92.3,148.05c1.51,16,3.35,23,7.15,31.41C84.86,181.08,80.47,152.72,92.3,148.05Z"/><path class="cls-11" d="M123.1,218.18c0-12-.09-32.89.05-37.74.07-2.63,7.51-6.41,8.83-10.59,1.9-6-2.47-13.59-1.14-19.2.12.78.25,1.54.4,2.29,24,7.87,51.91,28.94,51.08,65.24Z"/><path class="cls-12" d="M130.38,148.05c-1.51,16-3.35,23-7.15,31.41C137.82,181.08,142.21,152.72,130.38,148.05Z"/><path class="cls-13" d="M60.1,197.63a.75.75,0,0,1,1.49,0l-.19,20.54a.74.74,0,0,1-.74.74.75.75,0,0,1-.74-.75Z"/><path class="cls-13" d="M162.33,197.63a.74.74,0,0,1,1.48,0l-.18,20.54a.75.75,0,0,1-.75.74.74.74,0,0,1-.73-.75Z"/><path class="cls-14" d="M100.1,30.47a.5.5,0,0,1-.68.17.49.49,0,0,1-.17-.68,19.75,19.75,0,0,1,7.69-6.81c3-1.55,6.32-2.36,9.11-1.83,5.88,1.12,6.18,4.63,6.18,4.64a.51.51,0,0,1-.45.54.49.49,0,0,1-.54-.44s-.23-2.79-5.37-3.77c-2.56-.48-5.64.28-8.48,1.74A18.74,18.74,0,0,0,100.1,30.47Z"/><path class="cls-14" d="M84.07,34.94a.49.49,0,0,1-.62.34.5.5,0,0,1-.34-.61,8.57,8.57,0,0,1,3-4.55,7.51,7.51,0,0,1,3.18-1.41,7.76,7.76,0,0,1,3.45.17A8.38,8.38,0,0,1,97.11,32a.48.48,0,0,1-.09.69.49.49,0,0,1-.69-.1,7.45,7.45,0,0,0-3.86-2.7,6.55,6.55,0,0,0-5.76,1.06A7.58,7.58,0,0,0,84.07,34.94Z"/><path class="cls-14" d="M126.59,33.86a.48.48,0,0,1-.7,0,.49.49,0,0,1,0-.7,17.73,17.73,0,0,1,8.7-4.5,7.3,7.3,0,0,1,3.67.28,4.07,4.07,0,0,1,2.34,2.17,5.94,5.94,0,0,1,.21,3.64.49.49,0,0,1-.59.38.48.48,0,0,1-.38-.58,5.06,5.06,0,0,0-.15-3A3.1,3.1,0,0,0,138,29.82a6.25,6.25,0,0,0-3.17-.22A16.74,16.74,0,0,0,126.59,33.86Z"/><path class="cls-14" d="M103.24,51.62a.49.49,0,1,1,.88-.45,7.66,7.66,0,0,0,3.94,3.71,7.15,7.15,0,0,0,3,.5,7.64,7.64,0,0,0,3-.82A8.44,8.44,0,0,0,118,50.09a.5.5,0,0,1,.92.37,9.43,9.43,0,0,1-4.4,5,8.38,8.38,0,0,1-3.39.92,8,8,0,0,1-3.45-.56A8.63,8.63,0,0,1,103.24,51.62Z"/><path class="cls-14" d="M136.5,52.61a.5.5,0,0,1,.67-.21.48.48,0,0,1,.21.66,8.65,8.65,0,0,1-4.45,4.19,8.19,8.19,0,0,1-3.45.56,8.55,8.55,0,0,1-3.39-.93,9.43,9.43,0,0,1-4.4-5,.49.49,0,1,1,.92-.36A8.39,8.39,0,0,0,126.54,56a7.48,7.48,0,0,0,3,.82,7.14,7.14,0,0,0,3-.49A7.68,7.68,0,0,0,136.5,52.61Z"/></g></g></svg>